ISO-10303-21;
HEADER;
/* Generated by software containing ST-Developer
 * from STEP Tools, Inc. (www.steptools.com) 
 */
/* OPTION: using custom renumber hook */

FILE_DESCRIPTION(
/* description */ ('STEP AP242 Edition 2',
'CAx-IF Rec.Pracs.---Representation and Presentation of Product Manufa
cturing Information (PMI)---4.0---2014-10-13',
'CAx-IF Rec.Pracs.---3D Tessellated Geometry---0.4---2014-09-14','2;1',
'CAx-IF Rec.Pracs.---User Defined Attributes---1.5---2016-08-15'),
/* implementation_level */ '2;1');

FILE_NAME(
/* name */ 'tray-holding-setup - separator-holder-ATX-setup',
/* time_stamp */ '2026-09-25T08:05:11Z',
/* author */ (''),
/* organization */ (''),
/* preprocessor_version */ 'ST-DEVELOPER v20',
/* originating_system */ 'ONSHAPE BY PTC INC, 1.221',
/* authorisation */ '  ');

FILE_SCHEMA (('AP242_MANAGED_MODEL_BASED_3D_ENGINEERING_MIM_LF { 1 0 10303 442 3 1 4 }'));
ENDSEC;

DATA;
#10=SHAPE_REPRESENTATION_RELATIONSHIP('','',#981,#11);
#11=ADVANCED_BREP_SHAPE_REPRESENTATION('',(#979),#1637);
#12=CONICAL_SURFACE('',#1062,0.009,0.785398163397449);
#13=CONICAL_SURFACE('',#1066,0.00825,0.785398163397449);
#14=B_SPLINE_CURVE_WITH_KNOTS('',3,(#1449,#1450,#1451,#1452,#1453),
 .UNSPECIFIED.,.F.,.F.,(4,1,4),(0.,0.00253709963110141,0.00507419926220282),
 .UNSPECIFIED.);
#15=B_SPLINE_CURVE_WITH_KNOTS('',3,(#1462,#1463,#1464,#1465,#1466),
 .UNSPECIFIED.,.F.,.F.,(4,1,4),(0.,0.0025370996311014,0.00507419926220279),
 .UNSPECIFIED.);
#16=B_SPLINE_CURVE_WITH_KNOTS('',3,(#1538,#1539,#1540,#1541),
 .UNSPECIFIED.,.F.,.F.,(4,4),(0.,0.00480941819548878),.UNSPECIFIED.);
#17=B_SPLINE_CURVE_WITH_KNOTS('',3,(#1546,#1547,#1548,#1549),
 .UNSPECIFIED.,.F.,.F.,(4,4),(0.,0.00480941819548879),.UNSPECIFIED.);
#18=CYLINDRICAL_SURFACE('',#988,0.0101500000000008);
#19=CYLINDRICAL_SURFACE('',#992,0.01015);
#20=CYLINDRICAL_SURFACE('',#996,0.01015);
#21=CYLINDRICAL_SURFACE('',#1000,0.01015);
#22=CYLINDRICAL_SURFACE('',#1003,0.025);
#23=CYLINDRICAL_SURFACE('',#1007,0.025);
#24=CYLINDRICAL_SURFACE('',#1011,0.025);
#25=CYLINDRICAL_SURFACE('',#1015,0.025);
#26=CYLINDRICAL_SURFACE('',#1019,0.03);
#27=CYLINDRICAL_SURFACE('',#1023,0.025);
#28=CYLINDRICAL_SURFACE('',#1027,0.025);
#29=CYLINDRICAL_SURFACE('',#1031,0.025);
#30=CYLINDRICAL_SURFACE('',#1035,0.025);
#31=CYLINDRICAL_SURFACE('',#1039,0.03);
#32=CYLINDRICAL_SURFACE('',#1046,0.00525);
#33=CYLINDRICAL_SURFACE('',#1051,0.006);
#34=CIRCLE('',#985,0.00525);
#35=CIRCLE('',#987,0.006);
#36=CIRCLE('',#989,0.0101500000000008);
#37=CIRCLE('',#990,0.0101500000000008);
#38=CIRCLE('',#993,0.01015);
#39=CIRCLE('',#994,0.01015);
#40=CIRCLE('',#997,0.01015);
#41=CIRCLE('',#998,0.01015);
#42=CIRCLE('',#1001,0.01015);
#43=CIRCLE('',#1002,0.01015);
#44=CIRCLE('',#1004,0.025);
#45=CIRCLE('',#1005,0.025);
#46=CIRCLE('',#1008,0.025);
#47=CIRCLE('',#1009,0.025);
#48=CIRCLE('',#1012,0.025);
#49=CIRCLE('',#1013,0.025);
#50=CIRCLE('',#1016,0.025);
#51=CIRCLE('',#1017,0.025);
#52=CIRCLE('',#1020,0.03);
#53=CIRCLE('',#1021,0.03);
#54=CIRCLE('',#1024,0.025);
#55=CIRCLE('',#1025,0.025);
#56=CIRCLE('',#1028,0.025);
#57=CIRCLE('',#1029,0.025);
#58=CIRCLE('',#1032,0.025);
#59=CIRCLE('',#1033,0.025);
#60=CIRCLE('',#1036,0.025);
#61=CIRCLE('',#1037,0.025);
#62=CIRCLE('',#1040,0.03);
#63=CIRCLE('',#1041,0.03);
#64=CIRCLE('',#1047,0.00525);
#65=CIRCLE('',#1052,0.006);
#66=CIRCLE('',#1057,0.00825);
#67=CIRCLE('',#1058,0.009);
#68=ORIENTED_EDGE('',*,*,#348,.F.);
#69=ORIENTED_EDGE('',*,*,#349,.T.);
#70=ORIENTED_EDGE('',*,*,#350,.F.);
#71=ORIENTED_EDGE('',*,*,#351,.F.);
#72=ORIENTED_EDGE('',*,*,#352,.T.);
#73=ORIENTED_EDGE('',*,*,#353,.F.);
#74=ORIENTED_EDGE('',*,*,#354,.F.);
#75=ORIENTED_EDGE('',*,*,#355,.F.);
#76=ORIENTED_EDGE('',*,*,#356,.T.);
#77=ORIENTED_EDGE('',*,*,#357,.F.);
#78=ORIENTED_EDGE('',*,*,#358,.F.);
#79=ORIENTED_EDGE('',*,*,#359,.T.);
#80=ORIENTED_EDGE('',*,*,#358,.T.);
#81=ORIENTED_EDGE('',*,*,#360,.T.);
#82=ORIENTED_EDGE('',*,*,#361,.F.);
#83=ORIENTED_EDGE('',*,*,#362,.F.);
#84=ORIENTED_EDGE('',*,*,#361,.T.);
#85=ORIENTED_EDGE('',*,*,#363,.F.);
#86=ORIENTED_EDGE('',*,*,#364,.F.);
#87=ORIENTED_EDGE('',*,*,#365,.T.);
#88=ORIENTED_EDGE('',*,*,#364,.T.);
#89=ORIENTED_EDGE('',*,*,#366,.F.);
#90=ORIENTED_EDGE('',*,*,#367,.F.);
#91=ORIENTED_EDGE('',*,*,#368,.T.);
#92=ORIENTED_EDGE('',*,*,#367,.T.);
#93=ORIENTED_EDGE('',*,*,#369,.F.);
#94=ORIENTED_EDGE('',*,*,#370,.F.);
#95=ORIENTED_EDGE('',*,*,#371,.T.);
#96=ORIENTED_EDGE('',*,*,#370,.T.);
#97=ORIENTED_EDGE('',*,*,#372,.T.);
#98=ORIENTED_EDGE('',*,*,#373,.F.);
#99=ORIENTED_EDGE('',*,*,#374,.F.);
#100=ORIENTED_EDGE('',*,*,#373,.T.);
#101=ORIENTED_EDGE('',*,*,#375,.F.);
#102=ORIENTED_EDGE('',*,*,#376,.F.);
#103=ORIENTED_EDGE('',*,*,#377,.T.);
#104=ORIENTED_EDGE('',*,*,#378,.T.);
#105=ORIENTED_EDGE('',*,*,#379,.T.);
#106=ORIENTED_EDGE('',*,*,#380,.F.);
#107=ORIENTED_EDGE('',*,*,#381,.F.);
#108=ORIENTED_EDGE('',*,*,#380,.T.);
#109=ORIENTED_EDGE('',*,*,#382,.T.);
#110=ORIENTED_EDGE('',*,*,#383,.T.);
#111=ORIENTED_EDGE('',*,*,#384,.F.);
#112=ORIENTED_EDGE('',*,*,#348,.T.);
#113=ORIENTED_EDGE('',*,*,#385,.T.);
#114=ORIENTED_EDGE('',*,*,#386,.T.);
#115=ORIENTED_EDGE('',*,*,#387,.T.);
#116=ORIENTED_EDGE('',*,*,#388,.F.);
#117=ORIENTED_EDGE('',*,*,#389,.F.);
#118=ORIENTED_EDGE('',*,*,#388,.T.);
#119=ORIENTED_EDGE('',*,*,#390,.T.);
#120=ORIENTED_EDGE('',*,*,#391,.F.);
#121=ORIENTED_EDGE('',*,*,#392,.F.);
#122=ORIENTED_EDGE('',*,*,#391,.T.);
#123=ORIENTED_EDGE('',*,*,#393,.T.);
#124=ORIENTED_EDGE('',*,*,#394,.F.);
#125=ORIENTED_EDGE('',*,*,#395,.F.);
#126=ORIENTED_EDGE('',*,*,#394,.T.);
#127=ORIENTED_EDGE('',*,*,#396,.F.);
#128=ORIENTED_EDGE('',*,*,#397,.F.);
#129=ORIENTED_EDGE('',*,*,#398,.T.);
#130=ORIENTED_EDGE('',*,*,#352,.F.);
#131=ORIENTED_EDGE('',*,*,#399,.T.);
#132=ORIENTED_EDGE('',*,*,#400,.T.);
#133=ORIENTED_EDGE('',*,*,#401,.F.);
#134=ORIENTED_EDGE('',*,*,#402,.F.);
#135=ORIENTED_EDGE('',*,*,#403,.T.);
#136=ORIENTED_EDGE('',*,*,#397,.T.);
#137=ORIENTED_EDGE('',*,*,#404,.F.);
#138=ORIENTED_EDGE('',*,*,#405,.T.);
#139=ORIENTED_EDGE('',*,*,#406,.F.);
#140=ORIENTED_EDGE('',*,*,#402,.T.);
#141=ORIENTED_EDGE('',*,*,#407,.F.);
#142=ORIENTED_EDGE('',*,*,#408,.F.);
#143=ORIENTED_EDGE('',*,*,#409,.T.);
#144=ORIENTED_EDGE('',*,*,#408,.T.);
#145=ORIENTED_EDGE('',*,*,#410,.F.);
#146=ORIENTED_EDGE('',*,*,#411,.F.);
#147=ORIENTED_EDGE('',*,*,#412,.T.);
#148=ORIENTED_EDGE('',*,*,#411,.T.);
#149=ORIENTED_EDGE('',*,*,#413,.T.);
#150=ORIENTED_EDGE('',*,*,#414,.F.);
#151=ORIENTED_EDGE('',*,*,#415,.F.);
#152=ORIENTED_EDGE('',*,*,#414,.T.);
#153=ORIENTED_EDGE('',*,*,#416,.F.);
#154=ORIENTED_EDGE('',*,*,#417,.F.);
#155=ORIENTED_EDGE('',*,*,#418,.T.);
#156=ORIENTED_EDGE('',*,*,#417,.T.);
#157=ORIENTED_EDGE('',*,*,#419,.F.);
#158=ORIENTED_EDGE('',*,*,#420,.F.);
#159=ORIENTED_EDGE('',*,*,#421,.T.);
#160=ORIENTED_EDGE('',*,*,#422,.F.);
#161=ORIENTED_EDGE('',*,*,#423,.T.);
#162=ORIENTED_EDGE('',*,*,#424,.T.);
#163=ORIENTED_EDGE('',*,*,#425,.F.);
#164=ORIENTED_EDGE('',*,*,#426,.F.);
#165=ORIENTED_EDGE('',*,*,#427,.T.);
#166=ORIENTED_EDGE('',*,*,#420,.T.);
#167=ORIENTED_EDGE('',*,*,#428,.F.);
#168=ORIENTED_EDGE('',*,*,#429,.T.);
#169=ORIENTED_EDGE('',*,*,#430,.F.);
#170=ORIENTED_EDGE('',*,*,#426,.T.);
#171=ORIENTED_EDGE('',*,*,#431,.F.);
#172=ORIENTED_EDGE('',*,*,#432,.F.);
#173=ORIENTED_EDGE('',*,*,#433,.T.);
#174=ORIENTED_EDGE('',*,*,#432,.T.);
#175=ORIENTED_EDGE('',*,*,#434,.F.);
#176=ORIENTED_EDGE('',*,*,#435,.F.);
#177=ORIENTED_EDGE('',*,*,#436,.T.);
#178=ORIENTED_EDGE('',*,*,#435,.T.);
#179=ORIENTED_EDGE('',*,*,#437,.T.);
#180=ORIENTED_EDGE('',*,*,#438,.F.);
#181=ORIENTED_EDGE('',*,*,#439,.F.);
#182=ORIENTED_EDGE('',*,*,#438,.T.);
#183=ORIENTED_EDGE('',*,*,#440,.F.);
#184=ORIENTED_EDGE('',*,*,#441,.T.);
#185=ORIENTED_EDGE('',*,*,#442,.F.);
#186=ORIENTED_EDGE('',*,*,#354,.T.);
#187=ORIENTED_EDGE('',*,*,#443,.T.);
#188=ORIENTED_EDGE('',*,*,#444,.T.);
#189=ORIENTED_EDGE('',*,*,#445,.T.);
#190=ORIENTED_EDGE('',*,*,#446,.F.);
#191=ORIENTED_EDGE('',*,*,#447,.F.);
#192=ORIENTED_EDGE('',*,*,#446,.T.);
#193=ORIENTED_EDGE('',*,*,#448,.T.);
#194=ORIENTED_EDGE('',*,*,#449,.F.);
#195=ORIENTED_EDGE('',*,*,#450,.F.);
#196=ORIENTED_EDGE('',*,*,#449,.T.);
#197=ORIENTED_EDGE('',*,*,#451,.F.);
#198=ORIENTED_EDGE('',*,*,#452,.F.);
#199=ORIENTED_EDGE('',*,*,#453,.T.);
#200=ORIENTED_EDGE('',*,*,#452,.T.);
#201=ORIENTED_EDGE('',*,*,#454,.T.);
#202=ORIENTED_EDGE('',*,*,#455,.F.);
#203=ORIENTED_EDGE('',*,*,#456,.F.);
#204=ORIENTED_EDGE('',*,*,#455,.T.);
#205=ORIENTED_EDGE('',*,*,#457,.T.);
#206=ORIENTED_EDGE('',*,*,#378,.F.);
#207=ORIENTED_EDGE('',*,*,#458,.F.);
#208=ORIENTED_EDGE('',*,*,#376,.T.);
#209=ORIENTED_EDGE('',*,*,#459,.T.);
#210=ORIENTED_EDGE('',*,*,#356,.F.);
#211=ORIENTED_EDGE('',*,*,#460,.F.);
#212=ORIENTED_EDGE('',*,*,#381,.T.);
#213=ORIENTED_EDGE('',*,*,#389,.T.);
#214=ORIENTED_EDGE('',*,*,#392,.T.);
#215=ORIENTED_EDGE('',*,*,#395,.T.);
#216=ORIENTED_EDGE('',*,*,#398,.F.);
#217=ORIENTED_EDGE('',*,*,#403,.F.);
#218=ORIENTED_EDGE('',*,*,#409,.F.);
#219=ORIENTED_EDGE('',*,*,#412,.F.);
#220=ORIENTED_EDGE('',*,*,#415,.T.);
#221=ORIENTED_EDGE('',*,*,#418,.F.);
#222=ORIENTED_EDGE('',*,*,#421,.F.);
#223=ORIENTED_EDGE('',*,*,#427,.F.);
#224=ORIENTED_EDGE('',*,*,#433,.F.);
#225=ORIENTED_EDGE('',*,*,#436,.F.);
#226=ORIENTED_EDGE('',*,*,#439,.T.);
#227=ORIENTED_EDGE('',*,*,#447,.T.);
#228=ORIENTED_EDGE('',*,*,#450,.T.);
#229=ORIENTED_EDGE('',*,*,#453,.F.);
#230=ORIENTED_EDGE('',*,*,#456,.T.);
#231=ORIENTED_EDGE('',*,*,#458,.T.);
#232=ORIENTED_EDGE('',*,*,#359,.F.);
#233=ORIENTED_EDGE('',*,*,#362,.T.);
#234=ORIENTED_EDGE('',*,*,#365,.F.);
#235=ORIENTED_EDGE('',*,*,#368,.F.);
#236=ORIENTED_EDGE('',*,*,#371,.F.);
#237=ORIENTED_EDGE('',*,*,#374,.T.);
#238=ORIENTED_EDGE('',*,*,#377,.F.);
#239=ORIENTED_EDGE('',*,*,#460,.T.);
#240=ORIENTED_EDGE('',*,*,#461,.F.);
#241=ORIENTED_EDGE('',*,*,#462,.T.);
#242=ORIENTED_EDGE('',*,*,#463,.T.);
#243=ORIENTED_EDGE('',*,*,#422,.T.);
#244=ORIENTED_EDGE('',*,*,#406,.T.);
#245=ORIENTED_EDGE('',*,*,#464,.T.);
#246=ORIENTED_EDGE('',*,*,#399,.F.);
#247=ORIENTED_EDGE('',*,*,#353,.T.);
#248=ORIENTED_EDGE('',*,*,#430,.T.);
#249=ORIENTED_EDGE('',*,*,#465,.T.);
#250=ORIENTED_EDGE('',*,*,#466,.F.);
#251=ORIENTED_EDGE('',*,*,#461,.T.);
#252=ORIENTED_EDGE('',*,*,#466,.T.);
#253=ORIENTED_EDGE('',*,*,#467,.T.);
#254=ORIENTED_EDGE('',*,*,#468,.F.);
#255=ORIENTED_EDGE('',*,*,#462,.F.);
#256=ORIENTED_EDGE('',*,*,#468,.T.);
#257=ORIENTED_EDGE('',*,*,#469,.T.);
#258=ORIENTED_EDGE('',*,*,#423,.F.);
#259=ORIENTED_EDGE('',*,*,#463,.F.);
#260=ORIENTED_EDGE('',*,*,#442,.T.);
#261=ORIENTED_EDGE('',*,*,#470,.T.);
#262=ORIENTED_EDGE('',*,*,#443,.F.);
#263=ORIENTED_EDGE('',*,*,#355,.T.);
#264=ORIENTED_EDGE('',*,*,#384,.T.);
#265=ORIENTED_EDGE('',*,*,#471,.T.);
#266=ORIENTED_EDGE('',*,*,#472,.F.);
#267=ORIENTED_EDGE('',*,*,#349,.F.);
#268=ORIENTED_EDGE('',*,*,#472,.T.);
#269=ORIENTED_EDGE('',*,*,#473,.T.);
#270=ORIENTED_EDGE('',*,*,#474,.F.);
#271=ORIENTED_EDGE('',*,*,#350,.T.);
#272=ORIENTED_EDGE('',*,*,#474,.T.);
#273=ORIENTED_EDGE('',*,*,#475,.T.);
#274=ORIENTED_EDGE('',*,*,#385,.F.);
#275=ORIENTED_EDGE('',*,*,#351,.T.);
#276=ORIENTED_EDGE('',*,*,#425,.T.);
#277=ORIENTED_EDGE('',*,*,#476,.T.);
#278=ORIENTED_EDGE('',*,*,#477,.T.);
#279=ORIENTED_EDGE('',*,*,#478,.T.);
#280=ORIENTED_EDGE('',*,*,#428,.T.);
#281=ORIENTED_EDGE('',*,*,#419,.T.);
#282=ORIENTED_EDGE('',*,*,#416,.T.);
#283=ORIENTED_EDGE('',*,*,#413,.F.);
#284=ORIENTED_EDGE('',*,*,#410,.T.);
#285=ORIENTED_EDGE('',*,*,#407,.T.);
#286=ORIENTED_EDGE('',*,*,#401,.T.);
#287=ORIENTED_EDGE('',*,*,#479,.T.);
#288=ORIENTED_EDGE('',*,*,#404,.T.);
#289=ORIENTED_EDGE('',*,*,#396,.T.);
#290=ORIENTED_EDGE('',*,*,#393,.F.);
#291=ORIENTED_EDGE('',*,*,#390,.F.);
#292=ORIENTED_EDGE('',*,*,#387,.F.);
#293=ORIENTED_EDGE('',*,*,#480,.T.);
#294=ORIENTED_EDGE('',*,*,#481,.T.);
#295=ORIENTED_EDGE('',*,*,#482,.T.);
#296=ORIENTED_EDGE('',*,*,#382,.F.);
#297=ORIENTED_EDGE('',*,*,#379,.F.);
#298=ORIENTED_EDGE('',*,*,#457,.F.);
#299=ORIENTED_EDGE('',*,*,#454,.F.);
#300=ORIENTED_EDGE('',*,*,#451,.T.);
#301=ORIENTED_EDGE('',*,*,#448,.F.);
#302=ORIENTED_EDGE('',*,*,#445,.F.);
#303=ORIENTED_EDGE('',*,*,#483,.T.);
#304=ORIENTED_EDGE('',*,*,#440,.T.);
#305=ORIENTED_EDGE('',*,*,#437,.F.);
#306=ORIENTED_EDGE('',*,*,#434,.T.);
#307=ORIENTED_EDGE('',*,*,#431,.T.);
#308=ORIENTED_EDGE('',*,*,#357,.T.);
#309=ORIENTED_EDGE('',*,*,#459,.F.);
#310=ORIENTED_EDGE('',*,*,#375,.T.);
#311=ORIENTED_EDGE('',*,*,#372,.F.);
#312=ORIENTED_EDGE('',*,*,#369,.T.);
#313=ORIENTED_EDGE('',*,*,#366,.T.);
#314=ORIENTED_EDGE('',*,*,#363,.T.);
#315=ORIENTED_EDGE('',*,*,#360,.F.);
#316=ORIENTED_EDGE('',*,*,#429,.F.);
#317=ORIENTED_EDGE('',*,*,#478,.F.);
#318=ORIENTED_EDGE('',*,*,#484,.F.);
#319=ORIENTED_EDGE('',*,*,#465,.F.);
#320=ORIENTED_EDGE('',*,*,#484,.T.);
#321=ORIENTED_EDGE('',*,*,#477,.F.);
#322=ORIENTED_EDGE('',*,*,#485,.F.);
#323=ORIENTED_EDGE('',*,*,#467,.F.);
#324=ORIENTED_EDGE('',*,*,#485,.T.);
#325=ORIENTED_EDGE('',*,*,#476,.F.);
#326=ORIENTED_EDGE('',*,*,#424,.F.);
#327=ORIENTED_EDGE('',*,*,#469,.F.);
#328=ORIENTED_EDGE('',*,*,#444,.F.);
#329=ORIENTED_EDGE('',*,*,#470,.F.);
#330=ORIENTED_EDGE('',*,*,#441,.F.);
#331=ORIENTED_EDGE('',*,*,#483,.F.);
#332=ORIENTED_EDGE('',*,*,#386,.F.);
#333=ORIENTED_EDGE('',*,*,#475,.F.);
#334=ORIENTED_EDGE('',*,*,#486,.F.);
#335=ORIENTED_EDGE('',*,*,#480,.F.);
#336=ORIENTED_EDGE('',*,*,#486,.T.);
#337=ORIENTED_EDGE('',*,*,#473,.F.);
#338=ORIENTED_EDGE('',*,*,#487,.F.);
#339=ORIENTED_EDGE('',*,*,#481,.F.);
#340=ORIENTED_EDGE('',*,*,#383,.F.);
#341=ORIENTED_EDGE('',*,*,#482,.F.);
#342=ORIENTED_EDGE('',*,*,#487,.T.);
#343=ORIENTED_EDGE('',*,*,#471,.F.);
#344=ORIENTED_EDGE('',*,*,#400,.F.);
#345=ORIENTED_EDGE('',*,*,#464,.F.);
#346=ORIENTED_EDGE('',*,*,#405,.F.);
#347=ORIENTED_EDGE('',*,*,#479,.F.);
#348=EDGE_CURVE('',#488,#489,#580,.T.);
#349=EDGE_CURVE('',#488,#490,#581,.T.);
#350=EDGE_CURVE('',#491,#490,#582,.T.);
#351=EDGE_CURVE('',#489,#491,#583,.T.);
#352=EDGE_CURVE('',#492,#493,#584,.T.);
#353=EDGE_CURVE('',#492,#493,#34,.T.);
#354=EDGE_CURVE('',#494,#495,#585,.T.);
#355=EDGE_CURVE('',#495,#494,#35,.T.);
#356=EDGE_CURVE('',#496,#497,#586,.T.);
#357=EDGE_CURVE('',#498,#497,#36,.T.);
#358=EDGE_CURVE('',#499,#498,#587,.T.);
#359=EDGE_CURVE('',#499,#496,#37,.T.);
#360=EDGE_CURVE('',#498,#500,#588,.T.);
#361=EDGE_CURVE('',#501,#500,#589,.T.);
#362=EDGE_CURVE('',#499,#501,#590,.T.);
#363=EDGE_CURVE('',#502,#500,#38,.T.);
#364=EDGE_CURVE('',#503,#502,#591,.T.);
#365=EDGE_CURVE('',#503,#501,#39,.T.);
#366=EDGE_CURVE('',#504,#502,#592,.T.);
#367=EDGE_CURVE('',#505,#504,#593,.T.);
#368=EDGE_CURVE('',#505,#503,#594,.T.);
#369=EDGE_CURVE('',#506,#504,#40,.T.);
#370=EDGE_CURVE('',#507,#506,#595,.T.);
#371=EDGE_CURVE('',#507,#505,#41,.T.);
#372=EDGE_CURVE('',#506,#508,#596,.T.);
#373=EDGE_CURVE('',#509,#508,#597,.T.);
#374=EDGE_CURVE('',#507,#509,#598,.T.);
#375=EDGE_CURVE('',#510,#508,#42,.T.);
#376=EDGE_CURVE('',#511,#510,#599,.T.);
#377=EDGE_CURVE('',#511,#509,#43,.T.);
#378=EDGE_CURVE('',#512,#513,#600,.T.);
#379=EDGE_CURVE('',#513,#514,#44,.T.);
#380=EDGE_CURVE('',#515,#514,#601,.T.);
#381=EDGE_CURVE('',#512,#515,#45,.T.);
#382=EDGE_CURVE('',#514,#516,#602,.T.);
#383=EDGE_CURVE('',#516,#517,#603,.F.);
#384=EDGE_CURVE('',#488,#517,#604,.T.);
#385=EDGE_CURVE('',#489,#518,#605,.T.);
#386=EDGE_CURVE('',#518,#519,#606,.T.);
#387=EDGE_CURVE('',#519,#520,#607,.T.);
#388=EDGE_CURVE('',#521,#520,#608,.T.);
#389=EDGE_CURVE('',#515,#521,#609,.T.);
#390=EDGE_CURVE('',#520,#522,#46,.T.);
#391=EDGE_CURVE('',#523,#522,#610,.T.);
#392=EDGE_CURVE('',#521,#523,#47,.T.);
#393=EDGE_CURVE('',#522,#524,#611,.T.);
#394=EDGE_CURVE('',#525,#524,#612,.T.);
#395=EDGE_CURVE('',#523,#525,#613,.T.);
#396=EDGE_CURVE('',#526,#524,#48,.T.);
#397=EDGE_CURVE('',#527,#526,#614,.T.);
#398=EDGE_CURVE('',#527,#525,#49,.T.);
#399=EDGE_CURVE('',#492,#528,#615,.T.);
#400=EDGE_CURVE('',#528,#529,#14,.T.);
#401=EDGE_CURVE('',#530,#529,#616,.T.);
#402=EDGE_CURVE('',#531,#530,#617,.T.);
#403=EDGE_CURVE('',#531,#527,#618,.T.);
#404=EDGE_CURVE('',#532,#526,#619,.T.);
#405=EDGE_CURVE('',#532,#533,#15,.T.);
#406=EDGE_CURVE('',#493,#533,#620,.T.);
#407=EDGE_CURVE('',#534,#530,#50,.T.);
#408=EDGE_CURVE('',#535,#534,#621,.T.);
#409=EDGE_CURVE('',#535,#531,#51,.T.);
#410=EDGE_CURVE('',#536,#534,#622,.T.);
#411=EDGE_CURVE('',#537,#536,#623,.T.);
#412=EDGE_CURVE('',#537,#535,#624,.T.);
#413=EDGE_CURVE('',#536,#538,#52,.T.);
#414=EDGE_CURVE('',#539,#538,#625,.T.);
#415=EDGE_CURVE('',#537,#539,#53,.T.);
#416=EDGE_CURVE('',#540,#538,#626,.T.);
#417=EDGE_CURVE('',#541,#540,#627,.T.);
#418=EDGE_CURVE('',#541,#539,#628,.T.);
#419=EDGE_CURVE('',#542,#540,#54,.T.);
#420=EDGE_CURVE('',#543,#542,#629,.T.);
#421=EDGE_CURVE('',#543,#541,#55,.T.);
#422=EDGE_CURVE('',#544,#545,#630,.T.);
#423=EDGE_CURVE('',#544,#546,#631,.T.);
#424=EDGE_CURVE('',#546,#547,#632,.F.);
#425=EDGE_CURVE('',#548,#547,#633,.T.);
#426=EDGE_CURVE('',#549,#548,#634,.T.);
#427=EDGE_CURVE('',#549,#543,#635,.T.);
#428=EDGE_CURVE('',#550,#542,#636,.T.);
#429=EDGE_CURVE('',#550,#551,#637,.T.);
#430=EDGE_CURVE('',#545,#551,#638,.T.);
#431=EDGE_CURVE('',#552,#548,#56,.T.);
#432=EDGE_CURVE('',#553,#552,#639,.T.);
#433=EDGE_CURVE('',#553,#549,#57,.T.);
#434=EDGE_CURVE('',#554,#552,#640,.T.);
#435=EDGE_CURVE('',#555,#554,#641,.T.);
#436=EDGE_CURVE('',#555,#553,#642,.T.);
#437=EDGE_CURVE('',#554,#556,#58,.T.);
#438=EDGE_CURVE('',#557,#556,#643,.T.);
#439=EDGE_CURVE('',#555,#557,#59,.T.);
#440=EDGE_CURVE('',#558,#556,#644,.T.);
#441=EDGE_CURVE('',#558,#559,#16,.T.);
#442=EDGE_CURVE('',#494,#559,#645,.T.);
#443=EDGE_CURVE('',#495,#560,#646,.T.);
#444=EDGE_CURVE('',#560,#561,#17,.T.);
#445=EDGE_CURVE('',#561,#562,#647,.T.);
#446=EDGE_CURVE('',#563,#562,#648,.T.);
#447=EDGE_CURVE('',#557,#563,#649,.T.);
#448=EDGE_CURVE('',#562,#564,#60,.T.);
#449=EDGE_CURVE('',#565,#564,#650,.T.);
#450=EDGE_CURVE('',#563,#565,#61,.T.);
#451=EDGE_CURVE('',#566,#564,#651,.T.);
#452=EDGE_CURVE('',#567,#566,#652,.T.);
#453=EDGE_CURVE('',#567,#565,#653,.T.);
#454=EDGE_CURVE('',#566,#568,#62,.T.);
#455=EDGE_CURVE('',#569,#568,#654,.T.);
#456=EDGE_CURVE('',#567,#569,#63,.T.);
#457=EDGE_CURVE('',#568,#513,#655,.T.);
#458=EDGE_CURVE('',#569,#512,#656,.T.);
#459=EDGE_CURVE('',#510,#497,#657,.T.);
#460=EDGE_CURVE('',#511,#496,#658,.T.);
#461=EDGE_CURVE('',#570,#545,#659,.T.);
#462=EDGE_CURVE('',#570,#571,#660,.T.);
#463=EDGE_CURVE('',#571,#544,#661,.T.);
#464=EDGE_CURVE('',#533,#528,#64,.F.);
#465=EDGE_CURVE('',#551,#572,#662,.T.);
#466=EDGE_CURVE('',#570,#572,#663,.T.);
#467=EDGE_CURVE('',#572,#573,#664,.T.);
#468=EDGE_CURVE('',#571,#573,#665,.T.);
#469=EDGE_CURVE('',#573,#546,#666,.T.);
#470=EDGE_CURVE('',#559,#560,#65,.F.);
#471=EDGE_CURVE('',#517,#574,#667,.T.);
#472=EDGE_CURVE('',#490,#574,#668,.T.);
#473=EDGE_CURVE('',#574,#575,#669,.T.);
#474=EDGE_CURVE('',#491,#575,#670,.T.);
#475=EDGE_CURVE('',#575,#518,#671,.T.);
#476=EDGE_CURVE('',#547,#576,#672,.T.);
#477=EDGE_CURVE('',#576,#577,#673,.T.);
#478=EDGE_CURVE('',#577,#550,#674,.T.);
#479=EDGE_CURVE('',#529,#532,#66,.T.);
#480=EDGE_CURVE('',#519,#578,#675,.T.);
#481=EDGE_CURVE('',#578,#579,#676,.T.);
#482=EDGE_CURVE('',#579,#516,#677,.T.);
#483=EDGE_CURVE('',#561,#558,#67,.T.);
#484=EDGE_CURVE('',#572,#577,#678,.T.);
#485=EDGE_CURVE('',#573,#576,#679,.F.);
#486=EDGE_CURVE('',#578,#575,#680,.F.);
#487=EDGE_CURVE('',#579,#574,#681,.T.);
#488=VERTEX_POINT('',#1342);
#489=VERTEX_POINT('',#1343);
#490=VERTEX_POINT('',#1345);
#491=VERTEX_POINT('',#1347);
#492=VERTEX_POINT('',#1351);
#493=VERTEX_POINT('',#1352);
#494=VERTEX_POINT('',#1356);
#495=VERTEX_POINT('',#1357);
#496=VERTEX_POINT('',#1361);
#497=VERTEX_POINT('',#1362);
#498=VERTEX_POINT('',#1364);
#499=VERTEX_POINT('',#1366);
#500=VERTEX_POINT('',#1370);
#501=VERTEX_POINT('',#1372);
#502=VERTEX_POINT('',#1376);
#503=VERTEX_POINT('',#1378);
#504=VERTEX_POINT('',#1382);
#505=VERTEX_POINT('',#1384);
#506=VERTEX_POINT('',#1388);
#507=VERTEX_POINT('',#1390);
#508=VERTEX_POINT('',#1394);
#509=VERTEX_POINT('',#1396);
#510=VERTEX_POINT('',#1400);
#511=VERTEX_POINT('',#1402);
#512=VERTEX_POINT('',#1406);
#513=VERTEX_POINT('',#1407);
#514=VERTEX_POINT('',#1409);
#515=VERTEX_POINT('',#1411);
#516=VERTEX_POINT('',#1415);
#517=VERTEX_POINT('',#1417);
#518=VERTEX_POINT('',#1420);
#519=VERTEX_POINT('',#1422);
#520=VERTEX_POINT('',#1424);
#521=VERTEX_POINT('',#1426);
#522=VERTEX_POINT('',#1430);
#523=VERTEX_POINT('',#1432);
#524=VERTEX_POINT('',#1436);
#525=VERTEX_POINT('',#1438);
#526=VERTEX_POINT('',#1442);
#527=VERTEX_POINT('',#1444);
#528=VERTEX_POINT('',#1448);
#529=VERTEX_POINT('',#1454);
#530=VERTEX_POINT('',#1456);
#531=VERTEX_POINT('',#1458);
#532=VERTEX_POINT('',#1461);
#533=VERTEX_POINT('',#1467);
#534=VERTEX_POINT('',#1471);
#535=VERTEX_POINT('',#1473);
#536=VERTEX_POINT('',#1477);
#537=VERTEX_POINT('',#1479);
#538=VERTEX_POINT('',#1483);
#539=VERTEX_POINT('',#1485);
#540=VERTEX_POINT('',#1489);
#541=VERTEX_POINT('',#1491);
#542=VERTEX_POINT('',#1495);
#543=VERTEX_POINT('',#1497);
#544=VERTEX_POINT('',#1501);
#545=VERTEX_POINT('',#1502);
#546=VERTEX_POINT('',#1504);
#547=VERTEX_POINT('',#1506);
#548=VERTEX_POINT('',#1508);
#549=VERTEX_POINT('',#1510);
#550=VERTEX_POINT('',#1513);
#551=VERTEX_POINT('',#1515);
#552=VERTEX_POINT('',#1519);
#553=VERTEX_POINT('',#1521);
#554=VERTEX_POINT('',#1525);
#555=VERTEX_POINT('',#1527);
#556=VERTEX_POINT('',#1531);
#557=VERTEX_POINT('',#1533);
#558=VERTEX_POINT('',#1537);
#559=VERTEX_POINT('',#1542);
#560=VERTEX_POINT('',#1545);
#561=VERTEX_POINT('',#1550);
#562=VERTEX_POINT('',#1552);
#563=VERTEX_POINT('',#1554);
#564=VERTEX_POINT('',#1558);
#565=VERTEX_POINT('',#1560);
#566=VERTEX_POINT('',#1564);
#567=VERTEX_POINT('',#1566);
#568=VERTEX_POINT('',#1570);
#569=VERTEX_POINT('',#1572);
#570=VERTEX_POINT('',#1583);
#571=VERTEX_POINT('',#1585);
#572=VERTEX_POINT('',#1591);
#573=VERTEX_POINT('',#1595);
#574=VERTEX_POINT('',#1603);
#575=VERTEX_POINT('',#1607);
#576=VERTEX_POINT('',#1613);
#577=VERTEX_POINT('',#1615);
#578=VERTEX_POINT('',#1619);
#579=VERTEX_POINT('',#1621);
#580=LINE('',#1341,#682);
#581=LINE('',#1344,#683);
#582=LINE('',#1346,#684);
#583=LINE('',#1348,#685);
#584=LINE('',#1350,#686);
#585=LINE('',#1355,#687);
#586=LINE('',#1360,#688);
#587=LINE('',#1365,#689);
#588=LINE('',#1369,#690);
#589=LINE('',#1371,#691);
#590=LINE('',#1373,#692);
#591=LINE('',#1377,#693);
#592=LINE('',#1381,#694);
#593=LINE('',#1383,#695);
#594=LINE('',#1385,#696);
#595=LINE('',#1389,#697);
#596=LINE('',#1393,#698);
#597=LINE('',#1395,#699);
#598=LINE('',#1397,#700);
#599=LINE('',#1401,#701);
#600=LINE('',#1405,#702);
#601=LINE('',#1410,#703);
#602=LINE('',#1414,#704);
#603=LINE('',#1416,#705);
#604=LINE('',#1418,#706);
#605=LINE('',#1419,#707);
#606=LINE('',#1421,#708);
#607=LINE('',#1423,#709);
#608=LINE('',#1425,#710);
#609=LINE('',#1427,#711);
#610=LINE('',#1431,#712);
#611=LINE('',#1435,#713);
#612=LINE('',#1437,#714);
#613=LINE('',#1439,#715);
#614=LINE('',#1443,#716);
#615=LINE('',#1447,#717);
#616=LINE('',#1455,#718);
#617=LINE('',#1457,#719);
#618=LINE('',#1459,#720);
#619=LINE('',#1460,#721);
#620=LINE('',#1468,#722);
#621=LINE('',#1472,#723);
#622=LINE('',#1476,#724);
#623=LINE('',#1478,#725);
#624=LINE('',#1480,#726);
#625=LINE('',#1484,#727);
#626=LINE('',#1488,#728);
#627=LINE('',#1490,#729);
#628=LINE('',#1492,#730);
#629=LINE('',#1496,#731);
#630=LINE('',#1500,#732);
#631=LINE('',#1503,#733);
#632=LINE('',#1505,#734);
#633=LINE('',#1507,#735);
#634=LINE('',#1509,#736);
#635=LINE('',#1511,#737);
#636=LINE('',#1512,#738);
#637=LINE('',#1514,#739);
#638=LINE('',#1516,#740);
#639=LINE('',#1520,#741);
#640=LINE('',#1524,#742);
#641=LINE('',#1526,#743);
#642=LINE('',#1528,#744);
#643=LINE('',#1532,#745);
#644=LINE('',#1536,#746);
#645=LINE('',#1543,#747);
#646=LINE('',#1544,#748);
#647=LINE('',#1551,#749);
#648=LINE('',#1553,#750);
#649=LINE('',#1555,#751);
#650=LINE('',#1559,#752);
#651=LINE('',#1563,#753);
#652=LINE('',#1565,#754);
#653=LINE('',#1567,#755);
#654=LINE('',#1571,#756);
#655=LINE('',#1575,#757);
#656=LINE('',#1576,#758);
#657=LINE('',#1578,#759);
#658=LINE('',#1579,#760);
#659=LINE('',#1582,#761);
#660=LINE('',#1584,#762);
#661=LINE('',#1586,#763);
#662=LINE('',#1590,#764);
#663=LINE('',#1592,#765);
#664=LINE('',#1594,#766);
#665=LINE('',#1596,#767);
#666=LINE('',#1598,#768);
#667=LINE('',#1602,#769);
#668=LINE('',#1604,#770);
#669=LINE('',#1606,#771);
#670=LINE('',#1608,#772);
#671=LINE('',#1610,#773);
#672=LINE('',#1612,#774);
#673=LINE('',#1614,#775);
#674=LINE('',#1616,#776);
#675=LINE('',#1618,#777);
#676=LINE('',#1620,#778);
#677=LINE('',#1622,#779);
#678=LINE('',#1625,#780);
#679=LINE('',#1627,#781);
#680=LINE('',#1631,#782);
#681=LINE('',#1633,#783);
#682=VECTOR('',#1071,1.);
#683=VECTOR('',#1072,1.);
#684=VECTOR('',#1073,1.);
#685=VECTOR('',#1074,1.);
#686=VECTOR('',#1077,1.);
#687=VECTOR('',#1082,1.);
#688=VECTOR('',#1087,1.);
#689=VECTOR('',#1090,1.);
#690=VECTOR('',#1095,1.);
#691=VECTOR('',#1096,1.);
#692=VECTOR('',#1097,1.);
#693=VECTOR('',#1102,1.);
#694=VECTOR('',#1107,1.);
#695=VECTOR('',#1108,1.);
#696=VECTOR('',#1109,1.);
#697=VECTOR('',#1114,1.);
#698=VECTOR('',#1119,1.);
#699=VECTOR('',#1120,1.);
#700=VECTOR('',#1121,1.);
#701=VECTOR('',#1126,1.);
#702=VECTOR('',#1131,1.);
#703=VECTOR('',#1134,1.);
#704=VECTOR('',#1139,1.);
#705=VECTOR('',#1140,1.);
#706=VECTOR('',#1141,1.);
#707=VECTOR('',#1142,1.);
#708=VECTOR('',#1143,1.);
#709=VECTOR('',#1144,1.);
#710=VECTOR('',#1145,1.);
#711=VECTOR('',#1146,1.);
#712=VECTOR('',#1151,1.);
#713=VECTOR('',#1156,1.);
#714=VECTOR('',#1157,1.);
#715=VECTOR('',#1158,1.);
#716=VECTOR('',#1163,1.);
#717=VECTOR('',#1168,1.);
#718=VECTOR('',#1169,1.);
#719=VECTOR('',#1170,1.);
#720=VECTOR('',#1171,1.);
#721=VECTOR('',#1172,1.);
#722=VECTOR('',#1173,1.);
#723=VECTOR('',#1178,1.);
#724=VECTOR('',#1183,1.);
#725=VECTOR('',#1184,1.);
#726=VECTOR('',#1185,1.);
#727=VECTOR('',#1190,1.);
#728=VECTOR('',#1195,1.);
#729=VECTOR('',#1196,1.);
#730=VECTOR('',#1197,1.);
#731=VECTOR('',#1202,1.);
#732=VECTOR('',#1207,1.);
#733=VECTOR('',#1208,1.);
#734=VECTOR('',#1209,1.);
#735=VECTOR('',#1210,1.);
#736=VECTOR('',#1211,1.);
#737=VECTOR('',#1212,1.);
#738=VECTOR('',#1213,1.);
#739=VECTOR('',#1214,1.);
#740=VECTOR('',#1215,1.);
#741=VECTOR('',#1220,1.);
#742=VECTOR('',#1225,1.);
#743=VECTOR('',#1226,1.);
#744=VECTOR('',#1227,1.);
#745=VECTOR('',#1232,1.);
#746=VECTOR('',#1237,1.);
#747=VECTOR('',#1238,1.);
#748=VECTOR('',#1239,1.);
#749=VECTOR('',#1240,1.);
#750=VECTOR('',#1241,1.);
#751=VECTOR('',#1242,1.);
#752=VECTOR('',#1247,1.);
#753=VECTOR('',#1252,1.);
#754=VECTOR('',#1253,1.);
#755=VECTOR('',#1254,1.);
#756=VECTOR('',#1259,1.);
#757=VECTOR('',#1264,1.);
#758=VECTOR('',#1265,1.);
#759=VECTOR('',#1268,1.);
#760=VECTOR('',#1269,1.);
#761=VECTOR('',#1274,1.);
#762=VECTOR('',#1275,1.);
#763=VECTOR('',#1276,1.);
#764=VECTOR('',#1283,1.);
#765=VECTOR('',#1284,1.);
#766=VECTOR('',#1287,1.);
#767=VECTOR('',#1288,1.);
#768=VECTOR('',#1291,1.);
#769=VECTOR('',#1298,1.);
#770=VECTOR('',#1299,1.);
#771=VECTOR('',#1302,1.);
#772=VECTOR('',#1303,1.);
#773=VECTOR('',#1306,1.);
#774=VECTOR('',#1309,1.);
#775=VECTOR('',#1310,1.);
#776=VECTOR('',#1311,1.);
#777=VECTOR('',#1314,1.);
#778=VECTOR('',#1315,1.);
#779=VECTOR('',#1316,1.);
#780=VECTOR('',#1321,1.);
#781=VECTOR('',#1324,1.);
#782=VECTOR('',#1331,1.);
#783=VECTOR('',#1334,1.);
#784=EDGE_LOOP('',(#68,#69,#70,#71));
#785=EDGE_LOOP('',(#72,#73));
#786=EDGE_LOOP('',(#74,#75));
#787=EDGE_LOOP('',(#76,#77,#78,#79));
#788=EDGE_LOOP('',(#80,#81,#82,#83));
#789=EDGE_LOOP('',(#84,#85,#86,#87));
#790=EDGE_LOOP('',(#88,#89,#90,#91));
#791=EDGE_LOOP('',(#92,#93,#94,#95));
#792=EDGE_LOOP('',(#96,#97,#98,#99));
#793=EDGE_LOOP('',(#100,#101,#102,#103));
#794=EDGE_LOOP('',(#104,#105,#106,#107));
#795=EDGE_LOOP('',(#108,#109,#110,#111,#112,#113,#114,#115,#116,#117));
#796=EDGE_LOOP('',(#118,#119,#120,#121));
#797=EDGE_LOOP('',(#122,#123,#124,#125));
#798=EDGE_LOOP('',(#126,#127,#128,#129));
#799=EDGE_LOOP('',(#130,#131,#132,#133,#134,#135,#136,#137,#138,#139));
#800=EDGE_LOOP('',(#140,#141,#142,#143));
#801=EDGE_LOOP('',(#144,#145,#146,#147));
#802=EDGE_LOOP('',(#148,#149,#150,#151));
#803=EDGE_LOOP('',(#152,#153,#154,#155));
#804=EDGE_LOOP('',(#156,#157,#158,#159));
#805=EDGE_LOOP('',(#160,#161,#162,#163,#164,#165,#166,#167,#168,#169));
#806=EDGE_LOOP('',(#170,#171,#172,#173));
#807=EDGE_LOOP('',(#174,#175,#176,#177));
#808=EDGE_LOOP('',(#178,#179,#180,#181));
#809=EDGE_LOOP('',(#182,#183,#184,#185,#186,#187,#188,#189,#190,#191));
#810=EDGE_LOOP('',(#192,#193,#194,#195));
#811=EDGE_LOOP('',(#196,#197,#198,#199));
#812=EDGE_LOOP('',(#200,#201,#202,#203));
#813=EDGE_LOOP('',(#204,#205,#206,#207));
#814=EDGE_LOOP('',(#208,#209,#210,#211));
#815=EDGE_LOOP('',(#212,#213,#214,#215,#216,#217,#218,#219,#220,#221,#222,
#223,#224,#225,#226,#227,#228,#229,#230,#231));
#816=EDGE_LOOP('',(#232,#233,#234,#235,#236,#237,#238,#239));
#817=EDGE_LOOP('',(#240,#241,#242,#243));
#818=EDGE_LOOP('',(#244,#245,#246,#247));
#819=EDGE_LOOP('',(#248,#249,#250,#251));
#820=EDGE_LOOP('',(#252,#253,#254,#255));
#821=EDGE_LOOP('',(#256,#257,#258,#259));
#822=EDGE_LOOP('',(#260,#261,#262,#263));
#823=EDGE_LOOP('',(#264,#265,#266,#267));
#824=EDGE_LOOP('',(#268,#269,#270,#271));
#825=EDGE_LOOP('',(#272,#273,#274,#275));
#826=EDGE_LOOP('',(#276,#277,#278,#279,#280,#281,#282,#283,#284,#285,#286,
#287,#288,#289,#290,#291,#292,#293,#294,#295,#296,#297,#298,#299,#300,#301,
#302,#303,#304,#305,#306,#307));
#827=EDGE_LOOP('',(#308,#309,#310,#311,#312,#313,#314,#315));
#828=EDGE_LOOP('',(#316,#317,#318,#319));
#829=EDGE_LOOP('',(#320,#321,#322,#323));
#830=EDGE_LOOP('',(#324,#325,#326,#327));
#831=EDGE_LOOP('',(#328,#329,#330,#331));
#832=EDGE_LOOP('',(#332,#333,#334,#335));
#833=EDGE_LOOP('',(#336,#337,#338,#339));
#834=EDGE_LOOP('',(#340,#341,#342,#343));
#835=EDGE_LOOP('',(#344,#345,#346,#347));
#836=FACE_BOUND('',#784,.T.);
#837=FACE_BOUND('',#785,.T.);
#838=FACE_BOUND('',#786,.T.);
#839=FACE_BOUND('',#787,.T.);
#840=FACE_BOUND('',#788,.T.);
#841=FACE_BOUND('',#789,.T.);
#842=FACE_BOUND('',#790,.T.);
#843=FACE_BOUND('',#791,.T.);
#844=FACE_BOUND('',#792,.T.);
#845=FACE_BOUND('',#793,.T.);
#846=FACE_BOUND('',#794,.T.);
#847=FACE_BOUND('',#795,.T.);
#848=FACE_BOUND('',#796,.T.);
#849=FACE_BOUND('',#797,.T.);
#850=FACE_BOUND('',#798,.T.);
#851=FACE_BOUND('',#799,.T.);
#852=FACE_BOUND('',#800,.T.);
#853=FACE_BOUND('',#801,.T.);
#854=FACE_BOUND('',#802,.T.);
#855=FACE_BOUND('',#803,.T.);
#856=FACE_BOUND('',#804,.T.);
#857=FACE_BOUND('',#805,.T.);
#858=FACE_BOUND('',#806,.T.);
#859=FACE_BOUND('',#807,.T.);
#860=FACE_BOUND('',#808,.T.);
#861=FACE_BOUND('',#809,.T.);
#862=FACE_BOUND('',#810,.T.);
#863=FACE_BOUND('',#811,.T.);
#864=FACE_BOUND('',#812,.T.);
#865=FACE_BOUND('',#813,.T.);
#866=FACE_BOUND('',#814,.T.);
#867=FACE_BOUND('',#815,.T.);
#868=FACE_BOUND('',#816,.T.);
#869=FACE_BOUND('',#817,.T.);
#870=FACE_BOUND('',#818,.T.);
#871=FACE_BOUND('',#819,.T.);
#872=FACE_BOUND('',#820,.T.);
#873=FACE_BOUND('',#821,.T.);
#874=FACE_BOUND('',#822,.T.);
#875=FACE_BOUND('',#823,.T.);
#876=FACE_BOUND('',#824,.T.);
#877=FACE_BOUND('',#825,.T.);
#878=FACE_BOUND('',#826,.T.);
#879=FACE_BOUND('',#827,.T.);
#880=FACE_BOUND('',#828,.T.);
#881=FACE_BOUND('',#829,.T.);
#882=FACE_BOUND('',#830,.T.);
#883=FACE_BOUND('',#831,.T.);
#884=FACE_BOUND('',#832,.T.);
#885=FACE_BOUND('',#833,.T.);
#886=FACE_BOUND('',#834,.T.);
#887=FACE_BOUND('',#835,.T.);
#888=PLANE('',#983);
#889=PLANE('',#984);
#890=PLANE('',#986);
#891=PLANE('',#991);
#892=PLANE('',#995);
#893=PLANE('',#999);
#894=PLANE('',#1006);
#895=PLANE('',#1010);
#896=PLANE('',#1014);
#897=PLANE('',#1018);
#898=PLANE('',#1022);
#899=PLANE('',#1026);
#900=PLANE('',#1030);
#901=PLANE('',#1034);
#902=PLANE('',#1038);
#903=PLANE('',#1042);
#904=PLANE('',#1043);
#905=PLANE('',#1044);
#906=PLANE('',#1045);
#907=PLANE('',#1048);
#908=PLANE('',#1049);
#909=PLANE('',#1050);
#910=PLANE('',#1053);
#911=PLANE('',#1054);
#912=PLANE('',#1055);
#913=PLANE('',#1056);
#914=PLANE('',#1059);
#915=PLANE('',#1060);
#916=PLANE('',#1061);
#917=PLANE('',#1063);
#918=PLANE('',#1064);
#919=PLANE('',#1065);
#920=ADVANCED_FACE('',(#836),#888,.F.);
#921=ADVANCED_FACE('',(#837),#889,.F.);
#922=ADVANCED_FACE('',(#838),#890,.F.);
#923=ADVANCED_FACE('',(#839),#18,.F.);
#924=ADVANCED_FACE('',(#840),#891,.F.);
#925=ADVANCED_FACE('',(#841),#19,.F.);
#926=ADVANCED_FACE('',(#842),#892,.T.);
#927=ADVANCED_FACE('',(#843),#20,.F.);
#928=ADVANCED_FACE('',(#844),#893,.F.);
#929=ADVANCED_FACE('',(#845),#21,.F.);
#930=ADVANCED_FACE('',(#846),#22,.T.);
#931=ADVANCED_FACE('',(#847),#894,.F.);
#932=ADVANCED_FACE('',(#848),#23,.T.);
#933=ADVANCED_FACE('',(#849),#895,.F.);
#934=ADVANCED_FACE('',(#850),#24,.T.);
#935=ADVANCED_FACE('',(#851),#896,.T.);
#936=ADVANCED_FACE('',(#852),#25,.T.);
#937=ADVANCED_FACE('',(#853),#897,.T.);
#938=ADVANCED_FACE('',(#854),#26,.T.);
#939=ADVANCED_FACE('',(#855),#898,.T.);
#940=ADVANCED_FACE('',(#856),#27,.T.);
#941=ADVANCED_FACE('',(#857),#899,.T.);
#942=ADVANCED_FACE('',(#858),#28,.T.);
#943=ADVANCED_FACE('',(#859),#900,.T.);
#944=ADVANCED_FACE('',(#860),#29,.T.);
#945=ADVANCED_FACE('',(#861),#901,.F.);
#946=ADVANCED_FACE('',(#862),#30,.T.);
#947=ADVANCED_FACE('',(#863),#902,.T.);
#948=ADVANCED_FACE('',(#864),#31,.T.);
#949=ADVANCED_FACE('',(#865),#903,.F.);
#950=ADVANCED_FACE('',(#866),#904,.F.);
#951=ADVANCED_FACE('',(#867,#868),#905,.T.);
#952=ADVANCED_FACE('',(#869),#906,.F.);
#953=ADVANCED_FACE('',(#870),#32,.F.);
#954=ADVANCED_FACE('',(#871),#907,.T.);
#955=ADVANCED_FACE('',(#872),#908,.F.);
#956=ADVANCED_FACE('',(#873),#909,.F.);
#957=ADVANCED_FACE('',(#874),#33,.F.);
#958=ADVANCED_FACE('',(#875),#910,.F.);
#959=ADVANCED_FACE('',(#876),#911,.T.);
#960=ADVANCED_FACE('',(#877),#912,.T.);
#961=ADVANCED_FACE('',(#878,#879),#913,.F.);
#962=ADVANCED_FACE('',(#880),#914,.T.);
#963=ADVANCED_FACE('',(#881),#915,.F.);
#964=ADVANCED_FACE('',(#882),#916,.F.);
#965=ADVANCED_FACE('',(#883),#12,.F.);
#966=ADVANCED_FACE('',(#884),#917,.T.);
#967=ADVANCED_FACE('',(#885),#918,.T.);
#968=ADVANCED_FACE('',(#886),#919,.F.);
#969=ADVANCED_FACE('',(#887),#13,.F.);
#970=CLOSED_SHELL('',(#920,#921,#922,#923,#924,#925,#926,#927,#928,#929,
#930,#931,#932,#933,#934,#935,#936,#937,#938,#939,#940,#941,#942,#943,#944,
#945,#946,#947,#948,#949,#950,#951,#952,#953,#954,#955,#956,#957,#958,#959,
#960,#961,#962,#963,#964,#965,#966,#967,#968,#969));
#971=STYLED_ITEM('',(#972),#979);
#972=PRESENTATION_STYLE_ASSIGNMENT((#973));
#973=SURFACE_STYLE_USAGE(.BOTH.,#974);
#974=SURFACE_SIDE_STYLE('',(#975));
#975=SURFACE_STYLE_FILL_AREA(#976);
#976=FILL_AREA_STYLE('',(#977));
#977=FILL_AREA_STYLE_COLOUR('',#978);
#978=COLOUR_RGB('',0.647058823529412,0.647058823529412,0.647058823529412);
#979=MANIFOLD_SOLID_BREP('separator-holder-ATX-setup',#970);
#980=SHAPE_DEFINITION_REPRESENTATION(#1642,#981);
#981=SHAPE_REPRESENTATION('separator-holder-ATX-setup',(#982),#1637);
#982=AXIS2_PLACEMENT_3D('',#1339,#1067,#1068);
#983=AXIS2_PLACEMENT_3D('',#1340,#1069,#1070);
#984=AXIS2_PLACEMENT_3D('',#1349,#1075,#1076);
#985=AXIS2_PLACEMENT_3D('',#1353,#1078,#1079);
#986=AXIS2_PLACEMENT_3D('',#1354,#1080,#1081);
#987=AXIS2_PLACEMENT_3D('',#1358,#1083,#1084);
#988=AXIS2_PLACEMENT_3D('',#1359,#1085,#1086);
#989=AXIS2_PLACEMENT_3D('',#1363,#1088,#1089);
#990=AXIS2_PLACEMENT_3D('',#1367,#1091,#1092);
#991=AXIS2_PLACEMENT_3D('',#1368,#1093,#1094);
#992=AXIS2_PLACEMENT_3D('',#1374,#1098,#1099);
#993=AXIS2_PLACEMENT_3D('',#1375,#1100,#1101);
#994=AXIS2_PLACEMENT_3D('',#1379,#1103,#1104);
#995=AXIS2_PLACEMENT_3D('',#1380,#1105,#1106);
#996=AXIS2_PLACEMENT_3D('',#1386,#1110,#1111);
#997=AXIS2_PLACEMENT_3D('',#1387,#1112,#1113);
#998=AXIS2_PLACEMENT_3D('',#1391,#1115,#1116);
#999=AXIS2_PLACEMENT_3D('',#1392,#1117,#1118);
#1000=AXIS2_PLACEMENT_3D('',#1398,#1122,#1123);
#1001=AXIS2_PLACEMENT_3D('',#1399,#1124,#1125);
#1002=AXIS2_PLACEMENT_3D('',#1403,#1127,#1128);
#1003=AXIS2_PLACEMENT_3D('',#1404,#1129,#1130);
#1004=AXIS2_PLACEMENT_3D('',#1408,#1132,#1133);
#1005=AXIS2_PLACEMENT_3D('',#1412,#1135,#1136);
#1006=AXIS2_PLACEMENT_3D('',#1413,#1137,#1138);
#1007=AXIS2_PLACEMENT_3D('',#1428,#1147,#1148);
#1008=AXIS2_PLACEMENT_3D('',#1429,#1149,#1150);
#1009=AXIS2_PLACEMENT_3D('',#1433,#1152,#1153);
#1010=AXIS2_PLACEMENT_3D('',#1434,#1154,#1155);
#1011=AXIS2_PLACEMENT_3D('',#1440,#1159,#1160);
#1012=AXIS2_PLACEMENT_3D('',#1441,#1161,#1162);
#1013=AXIS2_PLACEMENT_3D('',#1445,#1164,#1165);
#1014=AXIS2_PLACEMENT_3D('',#1446,#1166,#1167);
#1015=AXIS2_PLACEMENT_3D('',#1469,#1174,#1175);
#1016=AXIS2_PLACEMENT_3D('',#1470,#1176,#1177);
#1017=AXIS2_PLACEMENT_3D('',#1474,#1179,#1180);
#1018=AXIS2_PLACEMENT_3D('',#1475,#1181,#1182);
#1019=AXIS2_PLACEMENT_3D('',#1481,#1186,#1187);
#1020=AXIS2_PLACEMENT_3D('',#1482,#1188,#1189);
#1021=AXIS2_PLACEMENT_3D('',#1486,#1191,#1192);
#1022=AXIS2_PLACEMENT_3D('',#1487,#1193,#1194);
#1023=AXIS2_PLACEMENT_3D('',#1493,#1198,#1199);
#1024=AXIS2_PLACEMENT_3D('',#1494,#1200,#1201);
#1025=AXIS2_PLACEMENT_3D('',#1498,#1203,#1204);
#1026=AXIS2_PLACEMENT_3D('',#1499,#1205,#1206);
#1027=AXIS2_PLACEMENT_3D('',#1517,#1216,#1217);
#1028=AXIS2_PLACEMENT_3D('',#1518,#1218,#1219);
#1029=AXIS2_PLACEMENT_3D('',#1522,#1221,#1222);
#1030=AXIS2_PLACEMENT_3D('',#1523,#1223,#1224);
#1031=AXIS2_PLACEMENT_3D('',#1529,#1228,#1229);
#1032=AXIS2_PLACEMENT_3D('',#1530,#1230,#1231);
#1033=AXIS2_PLACEMENT_3D('',#1534,#1233,#1234);
#1034=AXIS2_PLACEMENT_3D('',#1535,#1235,#1236);
#1035=AXIS2_PLACEMENT_3D('',#1556,#1243,#1244);
#1036=AXIS2_PLACEMENT_3D('',#1557,#1245,#1246);
#1037=AXIS2_PLACEMENT_3D('',#1561,#1248,#1249);
#1038=AXIS2_PLACEMENT_3D('',#1562,#1250,#1251);
#1039=AXIS2_PLACEMENT_3D('',#1568,#1255,#1256);
#1040=AXIS2_PLACEMENT_3D('',#1569,#1257,#1258);
#1041=AXIS2_PLACEMENT_3D('',#1573,#1260,#1261);
#1042=AXIS2_PLACEMENT_3D('',#1574,#1262,#1263);
#1043=AXIS2_PLACEMENT_3D('',#1577,#1266,#1267);
#1044=AXIS2_PLACEMENT_3D('',#1580,#1270,#1271);
#1045=AXIS2_PLACEMENT_3D('',#1581,#1272,#1273);
#1046=AXIS2_PLACEMENT_3D('',#1587,#1277,#1278);
#1047=AXIS2_PLACEMENT_3D('',#1588,#1279,#1280);
#1048=AXIS2_PLACEMENT_3D('',#1589,#1281,#1282);
#1049=AXIS2_PLACEMENT_3D('',#1593,#1285,#1286);
#1050=AXIS2_PLACEMENT_3D('',#1597,#1289,#1290);
#1051=AXIS2_PLACEMENT_3D('',#1599,#1292,#1293);
#1052=AXIS2_PLACEMENT_3D('',#1600,#1294,#1295);
#1053=AXIS2_PLACEMENT_3D('',#1601,#1296,#1297);
#1054=AXIS2_PLACEMENT_3D('',#1605,#1300,#1301);
#1055=AXIS2_PLACEMENT_3D('',#1609,#1304,#1305);
#1056=AXIS2_PLACEMENT_3D('',#1611,#1307,#1308);
#1057=AXIS2_PLACEMENT_3D('',#1617,#1312,#1313);
#1058=AXIS2_PLACEMENT_3D('',#1623,#1317,#1318);
#1059=AXIS2_PLACEMENT_3D('',#1624,#1319,#1320);
#1060=AXIS2_PLACEMENT_3D('',#1626,#1322,#1323);
#1061=AXIS2_PLACEMENT_3D('',#1628,#1325,#1326);
#1062=AXIS2_PLACEMENT_3D('',#1629,#1327,#1328);
#1063=AXIS2_PLACEMENT_3D('',#1630,#1329,#1330);
#1064=AXIS2_PLACEMENT_3D('',#1632,#1332,#1333);
#1065=AXIS2_PLACEMENT_3D('',#1634,#1335,#1336);
#1066=AXIS2_PLACEMENT_3D('',#1635,#1337,#1338);
#1067=DIRECTION('',(0.,0.,1.));
#1068=DIRECTION('',(1.,0.,0.));
#1069=DIRECTION('',(0.,1.,0.));
#1070=DIRECTION('',(1.,0.,0.));
#1071=DIRECTION('',(1.,0.,0.));
#1072=DIRECTION('',(0.,0.,-1.));
#1073=DIRECTION('',(-1.,0.,0.));
#1074=DIRECTION('',(0.,0.,-1.));
#1075=DIRECTION('',(0.,1.,0.));
#1076=DIRECTION('',(1.,0.,0.));
#1077=DIRECTION('',(-1.,0.,0.));
#1078=DIRECTION('',(0.,1.,0.));
#1079=DIRECTION('',(0.552770798392568,0.,0.833333333333333));
#1080=DIRECTION('',(0.,1.,0.));
#1081=DIRECTION('',(1.,0.,0.));
#1082=DIRECTION('',(-1.,0.,0.));
#1083=DIRECTION('',(0.,1.,0.));
#1084=DIRECTION('',(-0.684336154402355,0.,-0.729166666666679));
#1085=DIRECTION('',(0.,-1.,0.));
#1086=DIRECTION('',(-1.,0.,0.));
#1087=DIRECTION('',(0.,-1.,0.));
#1088=DIRECTION('',(0.,1.,0.));
#1089=DIRECTION('',(1.,0.,-3.00799341647186E-14));
#1090=DIRECTION('',(0.,-1.,0.));
#1091=DIRECTION('',(0.,1.,0.));
#1092=DIRECTION('',(1.,0.,-3.00799341647186E-14));
#1093=DIRECTION('',(1.,0.,0.));
#1094=DIRECTION('',(0.,-1.,0.));
#1095=DIRECTION('',(0.,0.,1.));
#1096=DIRECTION('',(0.,-1.,0.));
#1097=DIRECTION('',(0.,0.,1.));
#1098=DIRECTION('',(0.,-1.,0.));
#1099=DIRECTION('',(-1.,0.,0.));
#1100=DIRECTION('',(0.,1.,0.));
#1101=DIRECTION('',(4.10180920428015E-15,0.,1.));
#1102=DIRECTION('',(0.,-1.,0.));
#1103=DIRECTION('',(0.,1.,0.));
#1104=DIRECTION('',(4.10180920428015E-15,0.,1.));
#1105=DIRECTION('',(0.,0.,-1.));
#1106=DIRECTION('',(0.,1.,0.));
#1107=DIRECTION('',(1.,0.,0.));
#1108=DIRECTION('',(0.,-1.,0.));
#1109=DIRECTION('',(1.,0.,0.));
#1110=DIRECTION('',(0.,-1.,0.));
#1111=DIRECTION('',(-1.,0.,0.));
#1112=DIRECTION('',(0.,1.,0.));
#1113=DIRECTION('',(-1.,0.,4.1018092042801E-15));
#1114=DIRECTION('',(0.,-1.,0.));
#1115=DIRECTION('',(0.,1.,0.));
#1116=DIRECTION('',(-1.,0.,4.1018092042801E-15));
#1117=DIRECTION('',(-1.,0.,0.));
#1118=DIRECTION('',(0.,1.,0.));
#1119=DIRECTION('',(0.,0.,-1.));
#1120=DIRECTION('',(0.,-1.,0.));
#1121=DIRECTION('',(0.,0.,-1.));
#1122=DIRECTION('',(0.,-1.,0.));
#1123=DIRECTION('',(-1.,0.,0.));
#1124=DIRECTION('',(0.,1.,0.));
#1125=DIRECTION('',(0.,0.,-1.));
#1126=DIRECTION('',(0.,-1.,0.));
#1127=DIRECTION('',(0.,1.,0.));
#1128=DIRECTION('',(0.,0.,-1.));
#1129=DIRECTION('',(0.,-1.,0.));
#1130=DIRECTION('',(-1.,0.,0.));
#1131=DIRECTION('',(0.,-1.,0.));
#1132=DIRECTION('',(0.,1.,0.));
#1133=DIRECTION('',(-1.,0.,4.44089209850059E-15));
#1134=DIRECTION('',(0.,-1.,0.));
#1135=DIRECTION('',(0.,1.,0.));
#1136=DIRECTION('',(-1.,0.,4.44089209850059E-15));
#1137=DIRECTION('',(0.,0.,-1.));
#1138=DIRECTION('',(0.,1.,0.));
#1139=DIRECTION('',(1.,0.,0.));
#1140=DIRECTION('',(-0.707106781186548,-0.707106781186547,0.));
#1141=DIRECTION('',(0.,-1.,0.));
#1142=DIRECTION('',(0.,-1.,0.));
#1143=DIRECTION('',(0.707106781186548,-0.707106781186547,0.));
#1144=DIRECTION('',(1.,0.,0.));
#1145=DIRECTION('',(0.,-1.,0.));
#1146=DIRECTION('',(1.,0.,0.));
#1147=DIRECTION('',(0.,-1.,0.));
#1148=DIRECTION('',(-1.,0.,0.));
#1149=DIRECTION('',(0.,1.,0.));
#1150=DIRECTION('',(0.755628877161267,0.,0.655));
#1151=DIRECTION('',(0.,-1.,0.));
#1152=DIRECTION('',(0.,1.,0.));
#1153=DIRECTION('',(0.755628877161267,0.,0.655));
#1154=DIRECTION('',(0.,0.,-1.));
#1155=DIRECTION('',(0.,1.,0.));
#1156=DIRECTION('',(1.,0.,0.));
#1157=DIRECTION('',(0.,-1.,0.));
#1158=DIRECTION('',(1.,0.,0.));
#1159=DIRECTION('',(0.,-1.,0.));
#1160=DIRECTION('',(-1.,0.,0.));
#1161=DIRECTION('',(0.,-1.,0.));
#1162=DIRECTION('',(-0.755628877161267,0.,0.655));
#1163=DIRECTION('',(0.,-1.,0.));
#1164=DIRECTION('',(0.,-1.,0.));
#1165=DIRECTION('',(-0.755628877161267,0.,0.655));
#1166=DIRECTION('',(0.,0.,1.));
#1167=DIRECTION('',(0.,-1.,0.));
#1168=DIRECTION('',(0.,-1.,0.));
#1169=DIRECTION('',(-1.,0.,0.));
#1170=DIRECTION('',(0.,-1.,0.));
#1171=DIRECTION('',(-1.,0.,0.));
#1172=DIRECTION('',(-1.,0.,0.));
#1173=DIRECTION('',(0.,-1.,0.));
#1174=DIRECTION('',(0.,-1.,0.));
#1175=DIRECTION('',(-1.,0.,0.));
#1176=DIRECTION('',(0.,-1.,0.));
#1177=DIRECTION('',(1.,0.,4.44089209850059E-15));
#1178=DIRECTION('',(0.,-1.,0.));
#1179=DIRECTION('',(0.,-1.,0.));
#1180=DIRECTION('',(1.,0.,4.44089209850059E-15));
#1181=DIRECTION('',(1.,0.,0.));
#1182=DIRECTION('',(0.,-1.,0.));
#1183=DIRECTION('',(0.,0.,1.));
#1184=DIRECTION('',(0.,-1.,0.));
#1185=DIRECTION('',(0.,0.,1.));
#1186=DIRECTION('',(0.,-1.,0.));
#1187=DIRECTION('',(-1.,0.,0.));
#1188=DIRECTION('',(0.,1.,0.));
#1189=DIRECTION('',(1.,0.,1.38777878078145E-15));
#1190=DIRECTION('',(0.,-1.,0.));
#1191=DIRECTION('',(0.,1.,0.));
#1192=DIRECTION('',(1.,0.,1.38777878078145E-15));
#1193=DIRECTION('',(0.,0.,-1.));
#1194=DIRECTION('',(0.,1.,0.));
#1195=DIRECTION('',(1.,0.,0.));
#1196=DIRECTION('',(0.,-1.,0.));
#1197=DIRECTION('',(1.,0.,0.));
#1198=DIRECTION('',(0.,-1.,0.));
#1199=DIRECTION('',(-1.,0.,0.));
#1200=DIRECTION('',(0.,-1.,0.));
#1201=DIRECTION('',(0.755628877161268,0.,-0.655));
#1202=DIRECTION('',(0.,-1.,0.));
#1203=DIRECTION('',(0.,-1.,0.));
#1204=DIRECTION('',(0.755628877161268,0.,-0.655));
#1205=DIRECTION('',(0.,0.,-1.));
#1206=DIRECTION('',(0.,1.,0.));
#1207=DIRECTION('',(1.,0.,0.));
#1208=DIRECTION('',(0.,-1.,0.));
#1209=DIRECTION('',(0.707106781186548,0.707106781186547,0.));
#1210=DIRECTION('',(1.,0.,0.));
#1211=DIRECTION('',(0.,-1.,0.));
#1212=DIRECTION('',(1.,0.,0.));
#1213=DIRECTION('',(1.,0.,0.));
#1214=DIRECTION('',(-0.707106781186548,0.707106781186547,0.));
#1215=DIRECTION('',(0.,-1.,0.));
#1216=DIRECTION('',(0.,-1.,0.));
#1217=DIRECTION('',(-1.,0.,0.));
#1218=DIRECTION('',(0.,-1.,0.));
#1219=DIRECTION('',(-1.,0.,0.));
#1220=DIRECTION('',(0.,-1.,0.));
#1221=DIRECTION('',(0.,-1.,0.));
#1222=DIRECTION('',(-1.,0.,0.));
#1223=DIRECTION('',(0.,0.,-1.));
#1224=DIRECTION('',(0.,1.,0.));
#1225=DIRECTION('',(1.,0.,0.));
#1226=DIRECTION('',(0.,-1.,0.));
#1227=DIRECTION('',(1.,0.,0.));
#1228=DIRECTION('',(0.,-1.,0.));
#1229=DIRECTION('',(-1.,0.,0.));
#1230=DIRECTION('',(0.,1.,0.));
#1231=DIRECTION('',(1.,0.,0.));
#1232=DIRECTION('',(0.,-1.,0.));
#1233=DIRECTION('',(0.,1.,0.));
#1234=DIRECTION('',(1.,0.,0.));
#1235=DIRECTION('',(0.,0.,1.));
#1236=DIRECTION('',(0.,-1.,0.));
#1237=DIRECTION('',(1.,0.,0.));
#1238=DIRECTION('',(0.,-1.,0.));
#1239=DIRECTION('',(0.,-1.,0.));
#1240=DIRECTION('',(-1.,0.,0.));
#1241=DIRECTION('',(0.,-1.,0.));
#1242=DIRECTION('',(-1.,0.,0.));
#1243=DIRECTION('',(0.,-1.,0.));
#1244=DIRECTION('',(-1.,0.,0.));
#1245=DIRECTION('',(0.,1.,0.));
#1246=DIRECTION('',(-0.755628877161268,0.,-0.655));
#1247=DIRECTION('',(0.,-1.,0.));
#1248=DIRECTION('',(0.,1.,0.));
#1249=DIRECTION('',(-0.755628877161268,0.,-0.655));
#1250=DIRECTION('',(0.,0.,-1.));
#1251=DIRECTION('',(0.,1.,0.));
#1252=DIRECTION('',(1.,0.,0.));
#1253=DIRECTION('',(0.,-1.,0.));
#1254=DIRECTION('',(1.,0.,0.));
#1255=DIRECTION('',(0.,-1.,0.));
#1256=DIRECTION('',(-1.,0.,0.));
#1257=DIRECTION('',(0.,1.,0.));
#1258=DIRECTION('',(-1.85037170770859E-15,0.,-1.));
#1259=DIRECTION('',(0.,-1.,0.));
#1260=DIRECTION('',(0.,1.,0.));
#1261=DIRECTION('',(-1.85037170770859E-15,0.,-1.));
#1262=DIRECTION('',(1.,0.,2.17477575832548E-16));
#1263=DIRECTION('',(2.17477575832548E-16,0.,-1.));
#1264=DIRECTION('',(-2.17477575832548E-16,0.,1.));
#1265=DIRECTION('',(-2.17477575832548E-16,0.,1.));
#1266=DIRECTION('',(0.,0.,-1.));
#1267=DIRECTION('',(0.,1.,0.));
#1268=DIRECTION('',(1.,0.,0.));
#1269=DIRECTION('',(1.,0.,0.));
#1270=DIRECTION('',(0.,1.,0.));
#1271=DIRECTION('',(1.,0.,0.));
#1272=DIRECTION('',(0.,1.,0.));
#1273=DIRECTION('',(1.,0.,0.));
#1274=DIRECTION('',(0.,0.,-1.));
#1275=DIRECTION('',(-1.,0.,0.));
#1276=DIRECTION('',(0.,0.,-1.));
#1277=DIRECTION('',(0.,-1.,0.));
#1278=DIRECTION('',(-1.,0.,0.));
#1279=DIRECTION('',(0.,1.,0.));
#1280=DIRECTION('',(1.,0.,0.));
#1281=DIRECTION('',(-1.,0.,0.));
#1282=DIRECTION('',(0.,1.,0.));
#1283=DIRECTION('',(0.,0.,1.));
#1284=DIRECTION('',(0.,-1.,0.));
#1285=DIRECTION('',(0.,0.,1.));
#1286=DIRECTION('',(0.,-1.,0.));
#1287=DIRECTION('',(-1.,0.,0.));
#1288=DIRECTION('',(0.,-1.,0.));
#1289=DIRECTION('',(-1.,0.,0.));
#1290=DIRECTION('',(0.,1.,0.));
#1291=DIRECTION('',(0.,0.,-1.));
#1292=DIRECTION('',(0.,-1.,0.));
#1293=DIRECTION('',(-1.,0.,0.));
#1294=DIRECTION('',(0.,1.,0.));
#1295=DIRECTION('',(1.,0.,0.));
#1296=DIRECTION('',(-1.,0.,0.));
#1297=DIRECTION('',(0.,1.,0.));
#1298=DIRECTION('',(0.,0.,-1.));
#1299=DIRECTION('',(0.,-1.,0.));
#1300=DIRECTION('',(0.,0.,1.));
#1301=DIRECTION('',(0.,-1.,0.));
#1302=DIRECTION('',(1.,0.,0.));
#1303=DIRECTION('',(0.,-1.,0.));
#1304=DIRECTION('',(-1.,0.,0.));
#1305=DIRECTION('',(0.,1.,0.));
#1306=DIRECTION('',(0.,0.,1.));
#1307=DIRECTION('',(0.,1.,0.));
#1308=DIRECTION('',(1.,0.,0.));
#1309=DIRECTION('',(0.,0.,1.));
#1310=DIRECTION('',(1.,0.,0.));
#1311=DIRECTION('',(0.,0.,-1.));
#1312=DIRECTION('',(0.,1.,0.));
#1313=DIRECTION('',(1.,0.,0.));
#1314=DIRECTION('',(0.,0.,-1.));
#1315=DIRECTION('',(-1.,0.,0.));
#1316=DIRECTION('',(0.,0.,1.));
#1317=DIRECTION('',(0.,1.,0.));
#1318=DIRECTION('',(1.,0.,0.));
#1319=DIRECTION('',(-0.707106781186547,-0.707106781186548,0.));
#1320=DIRECTION('',(0.,0.,1.));
#1321=DIRECTION('',(0.577350269189626,-0.577350269189625,0.577350269189626));
#1322=DIRECTION('',(0.,0.707106781186548,0.707106781186547));
#1323=DIRECTION('',(-1.,0.,0.));
#1324=DIRECTION('',(0.577350269189626,0.577350269189625,-0.577350269189626));
#1325=DIRECTION('',(-0.707106781186547,0.707106781186548,0.));
#1326=DIRECTION('',(0.,0.,-1.));
#1327=DIRECTION('',(0.,-1.,0.));
#1328=DIRECTION('',(-1.,0.,0.));
#1329=DIRECTION('',(-0.707106781186547,-0.707106781186548,0.));
#1330=DIRECTION('',(0.,0.,1.));
#1331=DIRECTION('',(0.577350269189626,-0.577350269189625,-0.577350269189626));
#1332=DIRECTION('',(0.,-0.707106781186548,0.707106781186547));
#1333=DIRECTION('',(1.,0.,0.));
#1334=DIRECTION('',(0.577350269189626,0.577350269189625,0.577350269189626));
#1335=DIRECTION('',(-0.707106781186547,0.707106781186548,0.));
#1336=DIRECTION('',(0.,0.,-1.));
#1337=DIRECTION('',(0.,-1.,0.));
#1338=DIRECTION('',(-1.,0.,0.));
#1339=CARTESIAN_POINT('',(0.,0.,0.));
#1340=CARTESIAN_POINT('',(0.,0.0065,-2.77555756156289E-17));
#1341=CARTESIAN_POINT('',(-0.129569639035484,0.0065,0.159));
#1342=CARTESIAN_POINT('',(-0.148015,0.0065,0.159));
#1343=CARTESIAN_POINT('',(-0.136015,0.0065,0.159));
#1344=CARTESIAN_POINT('',(-0.148015,0.0065,0.1541875));
#1345=CARTESIAN_POINT('',(-0.148015,0.0065,0.149375));
#1346=CARTESIAN_POINT('',(-0.142015,0.0065,0.149375));
#1347=CARTESIAN_POINT('',(-0.136015,0.0065,0.149375));
#1348=CARTESIAN_POINT('',(-0.136015,0.0065,0.1541875));
#1349=CARTESIAN_POINT('',(0.,0.0065,-2.77555756156289E-17));
#1350=CARTESIAN_POINT('',(0.131118615689704,0.0065,0.159));
#1351=CARTESIAN_POINT('',(0.144917046691561,0.0065,0.159));
#1352=CARTESIAN_POINT('',(0.139112953308439,0.0065,0.159));
#1353=CARTESIAN_POINT('',(0.142015,0.0065,0.154625));
#1354=CARTESIAN_POINT('',(0.,0.0065,-2.77555756156289E-17));
#1355=CARTESIAN_POINT('',(-0.0949980569014969,0.0065,-0.159));
#1356=CARTESIAN_POINT('',(-0.0793858580211341,0.0065,-0.159));
#1357=CARTESIAN_POINT('',(-0.0875978918739623,0.0065,-0.159));
#1358=CARTESIAN_POINT('',(-0.0834918749475482,0.0065,-0.154625));
#1359=CARTESIAN_POINT('',(0.0828,0.0096,-0.0633));
#1360=CARTESIAN_POINT('',(0.0828,0.0096,-0.07345));
#1361=CARTESIAN_POINT('',(0.0828,0.0096,-0.07345));
#1362=CARTESIAN_POINT('',(0.0828,0.,-0.07345));
#1363=CARTESIAN_POINT('',(0.0828,0.,-0.0633));
#1364=CARTESIAN_POINT('',(0.09295,0.,-0.0633));
#1365=CARTESIAN_POINT('',(0.09295,0.0096,-0.0633));
#1366=CARTESIAN_POINT('',(0.09295,0.0096,-0.0633));
#1367=CARTESIAN_POINT('',(0.0828,0.0096,-0.0633));
#1368=CARTESIAN_POINT('',(0.09295,0.0096,-1.2490009027033E-16));
#1369=CARTESIAN_POINT('',(0.09295,0.,-1.2490009027033E-16));
#1370=CARTESIAN_POINT('',(0.09295,0.,0.0633));
#1371=CARTESIAN_POINT('',(0.09295,0.0096,0.0633));
#1372=CARTESIAN_POINT('',(0.09295,0.0096,0.0633));
#1373=CARTESIAN_POINT('',(0.09295,0.0096,-1.2490009027033E-16));
#1374=CARTESIAN_POINT('',(0.0828,0.0096,0.0633));
#1375=CARTESIAN_POINT('',(0.0828,0.,0.0633));
#1376=CARTESIAN_POINT('',(0.0828,0.,0.07345));
#1377=CARTESIAN_POINT('',(0.0828,0.0096,0.07345));
#1378=CARTESIAN_POINT('',(0.0828,0.0096,0.07345));
#1379=CARTESIAN_POINT('',(0.0828,0.0096,0.0633));
#1380=CARTESIAN_POINT('',(4.44089209850063E-16,0.0096,0.07345));
#1381=CARTESIAN_POINT('',(4.44089209850063E-16,0.,0.07345));
#1382=CARTESIAN_POINT('',(-0.0828,0.,0.07345));
#1383=CARTESIAN_POINT('',(-0.0828,0.0096,0.07345));
#1384=CARTESIAN_POINT('',(-0.0828,0.0096,0.07345));
#1385=CARTESIAN_POINT('',(4.44089209850063E-16,0.0096,0.07345));
#1386=CARTESIAN_POINT('',(-0.0828,0.0096,0.0633));
#1387=CARTESIAN_POINT('',(-0.0828,0.,0.0633));
#1388=CARTESIAN_POINT('',(-0.09295,0.,0.0633));
#1389=CARTESIAN_POINT('',(-0.09295,0.0096,0.0633));
#1390=CARTESIAN_POINT('',(-0.09295,0.0096,0.0633));
#1391=CARTESIAN_POINT('',(-0.0828,0.0096,0.0633));
#1392=CARTESIAN_POINT('',(-0.09295,0.0096,-4.02455846426619E-16));
#1393=CARTESIAN_POINT('',(-0.09295,0.,-4.02455846426619E-16));
#1394=CARTESIAN_POINT('',(-0.09295,0.,-0.0633));
#1395=CARTESIAN_POINT('',(-0.09295,0.0096,-0.0633));
#1396=CARTESIAN_POINT('',(-0.09295,0.0096,-0.0633));
#1397=CARTESIAN_POINT('',(-0.09295,0.0096,-4.02455846426619E-16));
#1398=CARTESIAN_POINT('',(-0.0828,0.0096,-0.0633));
#1399=CARTESIAN_POINT('',(-0.0828,0.,-0.0633));
#1400=CARTESIAN_POINT('',(-0.0828,0.,-0.07345));
#1401=CARTESIAN_POINT('',(-0.0828,0.0096,-0.07345));
#1402=CARTESIAN_POINT('',(-0.0828,0.0096,-0.07345));
#1403=CARTESIAN_POINT('',(-0.0828,0.0096,-0.0633));
#1404=CARTESIAN_POINT('',(-0.142015,0.0096,0.142625));
#1405=CARTESIAN_POINT('',(-0.167015,0.0096,0.142625));
#1406=CARTESIAN_POINT('',(-0.167015,0.0096,0.142625));
#1407=CARTESIAN_POINT('',(-0.167015,0.,0.142625));
#1408=CARTESIAN_POINT('',(-0.142015,0.,0.142625));
#1409=CARTESIAN_POINT('',(-0.160905721929031,0.,0.159));
#1410=CARTESIAN_POINT('',(-0.160905721929031,0.0096,0.159));
#1411=CARTESIAN_POINT('',(-0.160905721929031,0.0096,0.159));
#1412=CARTESIAN_POINT('',(-0.142015,0.0096,0.142625));
#1413=CARTESIAN_POINT('',(-0.129569639035484,0.0096,0.159));
#1414=CARTESIAN_POINT('',(-0.154460360964516,0.,0.159));
#1415=CARTESIAN_POINT('',(-0.151015,0.,0.159));
#1416=CARTESIAN_POINT('',(-0.148015,0.003,0.159));
#1417=CARTESIAN_POINT('',(-0.148015,0.003,0.159));
#1418=CARTESIAN_POINT('',(-0.148015,0.0065,0.159));
#1419=CARTESIAN_POINT('',(-0.136015,0.0065,0.159));
#1420=CARTESIAN_POINT('',(-0.136015,0.003,0.159));
#1421=CARTESIAN_POINT('',(-0.133015,0.,0.159));
#1422=CARTESIAN_POINT('',(-0.133015,0.,0.159));
#1423=CARTESIAN_POINT('',(-0.129569639035484,0.,0.159));
#1424=CARTESIAN_POINT('',(-0.123124278070968,0.,0.159));
#1425=CARTESIAN_POINT('',(-0.123124278070968,0.0096,0.159));
#1426=CARTESIAN_POINT('',(-0.123124278070968,0.0096,0.159));
#1427=CARTESIAN_POINT('',(-0.129569639035484,0.0096,0.159));
#1428=CARTESIAN_POINT('',(-0.142015,0.0096,0.142625));
#1429=CARTESIAN_POINT('',(-0.142015,0.,0.142625));
#1430=CARTESIAN_POINT('',(-0.117015,0.,0.142625));
#1431=CARTESIAN_POINT('',(-0.117015,0.0096,0.142625));
#1432=CARTESIAN_POINT('',(-0.117015,0.0096,0.142625));
#1433=CARTESIAN_POINT('',(-0.142015,0.0096,0.142625));
#1434=CARTESIAN_POINT('',(-9.61168923258038E-6,0.0096,0.142625));
#1435=CARTESIAN_POINT('',(-9.61168923258038E-6,0.,0.142625));
#1436=CARTESIAN_POINT('',(0.117015,0.,0.142625));
#1437=CARTESIAN_POINT('',(0.117015,0.0096,0.142625));
#1438=CARTESIAN_POINT('',(0.117015,0.0096,0.142625));
#1439=CARTESIAN_POINT('',(-9.61168923258038E-6,0.0096,0.142625));
#1440=CARTESIAN_POINT('',(0.142015,0.0096,0.142625));
#1441=CARTESIAN_POINT('',(0.142015,0.,0.142625));
#1442=CARTESIAN_POINT('',(0.123124278070968,0.,0.159));
#1443=CARTESIAN_POINT('',(0.123124278070968,0.0096,0.159));
#1444=CARTESIAN_POINT('',(0.123124278070968,0.0096,0.159));
#1445=CARTESIAN_POINT('',(0.142015,0.0096,0.142625));
#1446=CARTESIAN_POINT('',(0.131118615689704,0.0096,0.159));
#1447=CARTESIAN_POINT('',(0.144917046691561,0.0065,0.159));
#1448=CARTESIAN_POINT('',(0.144917046691561,0.003,0.159));
#1449=CARTESIAN_POINT('',(0.144917046691561,0.003,0.159));
#1450=CARTESIAN_POINT('',(0.145663262332774,0.00258751378423381,0.159));
#1451=CARTESIAN_POINT('',(0.147050573986,0.00161914518830806,0.159));
#1452=CARTESIAN_POINT('',(0.148362735363356,0.000548262329394644,0.159));
#1453=CARTESIAN_POINT('',(0.149009417416769,-5.39731915194942E-18,0.159));
#1454=CARTESIAN_POINT('',(0.149009417416769,0.,0.159));
#1455=CARTESIAN_POINT('',(0.152911384310297,0.,0.159));
#1456=CARTESIAN_POINT('',(0.160905721929032,0.,0.159));
#1457=CARTESIAN_POINT('',(0.160905721929032,0.0096,0.159));
#1458=CARTESIAN_POINT('',(0.160905721929032,0.0096,0.159));
#1459=CARTESIAN_POINT('',(0.131118615689704,0.0096,0.159));
#1460=CARTESIAN_POINT('',(0.131118615689704,0.,0.159));
#1461=CARTESIAN_POINT('',(0.135020582583231,0.,0.159));
#1462=CARTESIAN_POINT('',(0.135020582583231,0.,0.159));
#1463=CARTESIAN_POINT('',(0.135667264636644,0.000548262329394646,0.159));
#1464=CARTESIAN_POINT('',(0.136979426014,0.00161914518830806,0.159));
#1465=CARTESIAN_POINT('',(0.138366737667226,0.00258751378423381,0.159));
#1466=CARTESIAN_POINT('',(0.139112953308439,0.003,0.159));
#1467=CARTESIAN_POINT('',(0.139112953308439,0.003,0.159));
#1468=CARTESIAN_POINT('',(0.139112953308439,0.0065,0.159));
#1469=CARTESIAN_POINT('',(0.142015,0.0096,0.142625));
#1470=CARTESIAN_POINT('',(0.142015,0.,0.142625));
#1471=CARTESIAN_POINT('',(0.167015,0.,0.142625));
#1472=CARTESIAN_POINT('',(0.167015,0.0096,0.142625));
#1473=CARTESIAN_POINT('',(0.167015,0.0096,0.142625));
#1474=CARTESIAN_POINT('',(0.142015,0.0096,0.142625));
#1475=CARTESIAN_POINT('',(0.167015,0.0096,0.142125));
#1476=CARTESIAN_POINT('',(0.167015,0.,0.142125));
#1477=CARTESIAN_POINT('',(0.167015,0.,-0.112625));
#1478=CARTESIAN_POINT('',(0.167015,0.0096,-0.112625));
#1479=CARTESIAN_POINT('',(0.167015,0.0096,-0.112625));
#1480=CARTESIAN_POINT('',(0.167015,0.0096,0.142125));
#1481=CARTESIAN_POINT('',(0.137015,0.0096,-0.112625));
#1482=CARTESIAN_POINT('',(0.137015,0.,-0.112625));
#1483=CARTESIAN_POINT('',(0.137015,0.,-0.142625));
#1484=CARTESIAN_POINT('',(0.137015,0.0096,-0.142625));
#1485=CARTESIAN_POINT('',(0.137015,0.0096,-0.142625));
#1486=CARTESIAN_POINT('',(0.137015,0.0096,-0.112625));
#1487=CARTESIAN_POINT('',(0.12276125,0.0096,-0.142625));
#1488=CARTESIAN_POINT('',(0.12276125,0.,-0.142625));
#1489=CARTESIAN_POINT('',(0.1085075,0.,-0.142625));
#1490=CARTESIAN_POINT('',(0.1085075,0.0096,-0.142625));
#1491=CARTESIAN_POINT('',(0.1085075,0.0096,-0.142625));
#1492=CARTESIAN_POINT('',(0.12276125,0.0096,-0.142625));
#1493=CARTESIAN_POINT('',(0.0835075,0.0096,-0.142625));
#1494=CARTESIAN_POINT('',(0.0835075,0.,-0.142625));
#1495=CARTESIAN_POINT('',(0.102398221929032,0.,-0.159));
#1496=CARTESIAN_POINT('',(0.102398221929032,0.0096,-0.159));
#1497=CARTESIAN_POINT('',(0.102398221929032,0.0096,-0.159));
#1498=CARTESIAN_POINT('',(0.0835075,0.0096,-0.142625));
#1499=CARTESIAN_POINT('',(0.09557004843829,0.0096,-0.159));
#1500=CARTESIAN_POINT('',(0.09557004843829,0.0065,-0.159));
#1501=CARTESIAN_POINT('',(0.0782418749475481,0.0065,-0.159));
#1502=CARTESIAN_POINT('',(0.0887418749475481,0.0065,-0.159));
#1503=CARTESIAN_POINT('',(0.0782418749475481,0.0065,-0.159));
#1504=CARTESIAN_POINT('',(0.0782418749475481,0.003,-0.159));
#1505=CARTESIAN_POINT('',(0.0765856007284032,0.00134372578085509,-0.159));
#1506=CARTESIAN_POINT('',(0.0752418749475481,0.,-0.159));
#1507=CARTESIAN_POINT('',(0.0714293265092583,0.,-0.159));
#1508=CARTESIAN_POINT('',(0.0646167780709684,0.,-0.159));
#1509=CARTESIAN_POINT('',(0.0646167780709684,0.0096,-0.159));
#1510=CARTESIAN_POINT('',(0.0646167780709684,0.0096,-0.159));
#1511=CARTESIAN_POINT('',(0.09557004843829,0.0096,-0.159));
#1512=CARTESIAN_POINT('',(0.09557004843829,0.,-0.159));
#1513=CARTESIAN_POINT('',(0.0917418749475481,0.,-0.159));
#1514=CARTESIAN_POINT('',(0.090405961692919,0.00133591325462904,-0.159));
#1515=CARTESIAN_POINT('',(0.0887418749475481,0.003,-0.159));
#1516=CARTESIAN_POINT('',(0.0887418749475481,0.0065,-0.159));
#1517=CARTESIAN_POINT('',(0.0835075,0.0096,-0.142625));
#1518=CARTESIAN_POINT('',(0.0835075,0.,-0.142625));
#1519=CARTESIAN_POINT('',(0.0585075,0.,-0.142625));
#1520=CARTESIAN_POINT('',(0.0585075,0.0096,-0.142625));
#1521=CARTESIAN_POINT('',(0.0585075,0.0096,-0.142625));
#1522=CARTESIAN_POINT('',(0.0835075,0.0096,-0.142625));
#1523=CARTESIAN_POINT('',(0.,0.0096,-0.142625));
#1524=CARTESIAN_POINT('',(0.,0.,-0.142625));
#1525=CARTESIAN_POINT('',(-0.0585075,0.,-0.142625));
#1526=CARTESIAN_POINT('',(-0.0585075,0.0096,-0.142625));
#1527=CARTESIAN_POINT('',(-0.0585075,0.0096,-0.142625));
#1528=CARTESIAN_POINT('',(0.,0.0096,-0.142625));
#1529=CARTESIAN_POINT('',(-0.0835075,0.0096,-0.142625));
#1530=CARTESIAN_POINT('',(-0.0835075,0.,-0.142625));
#1531=CARTESIAN_POINT('',(-0.0646167780709683,0.,-0.159));
#1532=CARTESIAN_POINT('',(-0.0646167780709683,0.0096,-0.159));
#1533=CARTESIAN_POINT('',(-0.0646167780709683,0.0096,-0.159));
#1534=CARTESIAN_POINT('',(-0.0835075,0.0096,-0.142625));
#1535=CARTESIAN_POINT('',(-0.0949980569014969,0.0096,-0.159));
#1536=CARTESIAN_POINT('',(-0.0720013180460511,0.,-0.159));
#1537=CARTESIAN_POINT('',(-0.0756268018391785,0.,-0.159));
#1538=CARTESIAN_POINT('',(-0.0756268018391785,0.,-0.159));
#1539=CARTESIAN_POINT('',(-0.0768351505684915,0.00105597234405024,-0.159));
#1540=CARTESIAN_POINT('',(-0.0780592781801045,0.0020921734530822,-0.159));
#1541=CARTESIAN_POINT('',(-0.079385858021134,0.003,-0.159));
#1542=CARTESIAN_POINT('',(-0.0793858580211341,0.003,-0.159));
#1543=CARTESIAN_POINT('',(-0.0793858580211341,0.0065,-0.159));
#1544=CARTESIAN_POINT('',(-0.0875978918739623,0.0065,-0.159));
#1545=CARTESIAN_POINT('',(-0.0875978918739623,0.003,-0.159));
#1546=CARTESIAN_POINT('',(-0.0875978918739623,0.003,-0.159));
#1547=CARTESIAN_POINT('',(-0.0889244717149918,0.00209217345308221,-0.159));
#1548=CARTESIAN_POINT('',(-0.0901485993266049,0.00105597234405024,-0.159));
#1549=CARTESIAN_POINT('',(-0.0913569480559179,-4.90715154998076E-18,-0.159));
#1550=CARTESIAN_POINT('',(-0.0913569480559179,0.,-0.159));
#1551=CARTESIAN_POINT('',(-0.0949980569014969,0.,-0.159));
#1552=CARTESIAN_POINT('',(-0.102398221929032,0.,-0.159));
#1553=CARTESIAN_POINT('',(-0.102398221929032,0.0096,-0.159));
#1554=CARTESIAN_POINT('',(-0.102398221929032,0.0096,-0.159));
#1555=CARTESIAN_POINT('',(-0.0949980569014969,0.0096,-0.159));
#1556=CARTESIAN_POINT('',(-0.0835075,0.0096,-0.142625));
#1557=CARTESIAN_POINT('',(-0.0835075,0.,-0.142625));
#1558=CARTESIAN_POINT('',(-0.1085075,0.,-0.142625));
#1559=CARTESIAN_POINT('',(-0.1085075,0.0096,-0.142625));
#1560=CARTESIAN_POINT('',(-0.1085075,0.0096,-0.142625));
#1561=CARTESIAN_POINT('',(-0.0835075,0.0096,-0.142625));
#1562=CARTESIAN_POINT('',(-0.12276125,0.0096,-0.142625));
#1563=CARTESIAN_POINT('',(-0.12276125,0.,-0.142625));
#1564=CARTESIAN_POINT('',(-0.137015,0.,-0.142625));
#1565=CARTESIAN_POINT('',(-0.137015,0.0096,-0.142625));
#1566=CARTESIAN_POINT('',(-0.137015,0.0096,-0.142625));
#1567=CARTESIAN_POINT('',(-0.12276125,0.0096,-0.142625));
#1568=CARTESIAN_POINT('',(-0.137015,0.0096,-0.112625));
#1569=CARTESIAN_POINT('',(-0.137015,0.,-0.112625));
#1570=CARTESIAN_POINT('',(-0.167015,0.,-0.112625));
#1571=CARTESIAN_POINT('',(-0.167015,0.0096,-0.112625));
#1572=CARTESIAN_POINT('',(-0.167015,0.0096,-0.112625));
#1573=CARTESIAN_POINT('',(-0.137015,0.0096,-0.112625));
#1574=CARTESIAN_POINT('',(-0.167015,0.0096,0.015));
#1575=CARTESIAN_POINT('',(-0.167015,0.,0.015));
#1576=CARTESIAN_POINT('',(-0.167015,0.0096,0.015));
#1577=CARTESIAN_POINT('',(4.44089209850063E-16,0.0096,-0.07345));
#1578=CARTESIAN_POINT('',(4.44089209850063E-16,0.,-0.07345));
#1579=CARTESIAN_POINT('',(4.44089209850063E-16,0.0096,-0.07345));
#1580=CARTESIAN_POINT('',(0.,0.0096,-2.77555756156289E-17));
#1581=CARTESIAN_POINT('',(0.,0.0065,-2.77555756156289E-17));
#1582=CARTESIAN_POINT('',(0.0887418749475481,0.0065,-0.1538125));
#1583=CARTESIAN_POINT('',(0.0887418749475481,0.0065,-0.148625));
#1584=CARTESIAN_POINT('',(0.0861168749475481,0.0065,-0.148625));
#1585=CARTESIAN_POINT('',(0.0782418749475481,0.0065,-0.148625));
#1586=CARTESIAN_POINT('',(0.0782418749475481,0.0065,-0.1538125));
#1587=CARTESIAN_POINT('',(0.142015,0.0065,0.154625));
#1588=CARTESIAN_POINT('',(0.142015,0.003,0.154625));
#1589=CARTESIAN_POINT('',(0.0887418749475481,0.0065,-0.1538125));
#1590=CARTESIAN_POINT('',(0.0887418749475481,0.003,-0.148625));
#1591=CARTESIAN_POINT('',(0.0887418749475481,0.003,-0.148625));
#1592=CARTESIAN_POINT('',(0.0887418749475481,0.0065,-0.148625));
#1593=CARTESIAN_POINT('',(0.0861168749475481,0.0065,-0.148625));
#1594=CARTESIAN_POINT('',(0.0861168749475481,0.003,-0.148625));
#1595=CARTESIAN_POINT('',(0.0782418749475481,0.003,-0.148625));
#1596=CARTESIAN_POINT('',(0.0782418749475481,0.0065,-0.148625));
#1597=CARTESIAN_POINT('',(0.0782418749475481,0.0065,-0.1538125));
#1598=CARTESIAN_POINT('',(0.0782418749475481,0.003,-0.1538125));
#1599=CARTESIAN_POINT('',(-0.0834918749475482,0.0065,-0.154625));
#1600=CARTESIAN_POINT('',(-0.0834918749475482,0.003,-0.154625));
#1601=CARTESIAN_POINT('',(-0.148015,0.0065,0.1541875));
#1602=CARTESIAN_POINT('',(-0.148015,0.003,0.1541875));
#1603=CARTESIAN_POINT('',(-0.148015,0.003,0.149375));
#1604=CARTESIAN_POINT('',(-0.148015,0.0065,0.149375));
#1605=CARTESIAN_POINT('',(-0.142015,0.0065,0.149375));
#1606=CARTESIAN_POINT('',(-0.136015,0.003,0.149375));
#1607=CARTESIAN_POINT('',(-0.136015,0.003,0.149375));
#1608=CARTESIAN_POINT('',(-0.136015,0.0065,0.149375));
#1609=CARTESIAN_POINT('',(-0.136015,0.0065,0.1541875));
#1610=CARTESIAN_POINT('',(-0.136015,0.003,0.159));
#1611=CARTESIAN_POINT('',(0.,0.,-2.77555756156289E-17));
#1612=CARTESIAN_POINT('',(0.0752418749475481,0.,-2.77555756156289E-17));
#1613=CARTESIAN_POINT('',(0.0752418749475481,0.,-0.145625));
#1614=CARTESIAN_POINT('',(0.,0.,-0.145625));
#1615=CARTESIAN_POINT('',(0.0917418749475481,0.,-0.145625));
#1616=CARTESIAN_POINT('',(0.0917418749475481,0.,-0.159));
#1617=CARTESIAN_POINT('',(0.142015,0.,0.154625));
#1618=CARTESIAN_POINT('',(-0.133015,0.,0.149375));
#1619=CARTESIAN_POINT('',(-0.133015,0.,0.146375));
#1620=CARTESIAN_POINT('',(-0.148015,0.,0.146375));
#1621=CARTESIAN_POINT('',(-0.151015,0.,0.146375));
#1622=CARTESIAN_POINT('',(-0.151015,0.,-2.77555756156289E-17));
#1623=CARTESIAN_POINT('',(-0.0834918749475482,0.,-0.154625));
#1624=CARTESIAN_POINT('',(0.0917418749475481,0.,-2.77555756156289E-17));
#1625=CARTESIAN_POINT('',(0.0878668749475481,0.003875,-0.1495));
#1626=CARTESIAN_POINT('',(0.0861168749475481,0.003,-0.148625));
#1627=CARTESIAN_POINT('',(0.0799710416142148,0.00472916666666668,-0.150354166666667));
#1628=CARTESIAN_POINT('',(0.0782418749475481,0.003,-0.1538125));
#1629=CARTESIAN_POINT('',(-0.0834918749475482,0.,-0.154625));
#1630=CARTESIAN_POINT('',(-0.133015,0.,-2.77555756156289E-17));
#1631=CARTESIAN_POINT('',(-0.0886766666666666,-0.0443383333333333,0.102036666666667));
#1632=CARTESIAN_POINT('',(0.,0.,0.146375));
#1633=CARTESIAN_POINT('',(-0.146410833333333,0.00460416666666664,0.150979166666667));
#1634=CARTESIAN_POINT('',(-0.148015,0.003,0.1541875));
#1635=CARTESIAN_POINT('',(0.142015,0.,0.154625));
#1636=MECHANICAL_DESIGN_GEOMETRIC_PRESENTATION_REPRESENTATION('',(#971),
#1637);
#1637=(
GEOMETRIC_REPRESENTATION_CONTEXT(3)
GLOBAL_UNCERTAINTY_ASSIGNED_CONTEXT((#1638))
GLOBAL_UNIT_ASSIGNED_CONTEXT((#1641,#1640,#1639))
REPRESENTATION_CONTEXT('separator-holder-ATX-setup',
'TOP_LEVEL_ASSEMBLY_PART')
);
#1638=UNCERTAINTY_MEASURE_WITH_UNIT(LENGTH_MEASURE(2.E-5),#1641,
'DISTANCE_ACCURACY_VALUE','Maximum Tolerance applied to model');
#1639=(
NAMED_UNIT(*)
SI_UNIT($,.STERADIAN.)
SOLID_ANGLE_UNIT()
);
#1640=(
NAMED_UNIT(*)
PLANE_ANGLE_UNIT()
SI_UNIT($,.RADIAN.)
);
#1641=(
LENGTH_UNIT()
NAMED_UNIT(*)
SI_UNIT($,.METRE.)
);
#1642=PRODUCT_DEFINITION_SHAPE('','',#1643);
#1643=PRODUCT_DEFINITION('','',#1645,#1644);
#1644=PRODUCT_DEFINITION_CONTEXT('',#1651,'design');
#1645=PRODUCT_DEFINITION_FORMATION_WITH_SPECIFIED_SOURCE('','',#1647,
 .NOT_KNOWN.);
#1646=PRODUCT_RELATED_PRODUCT_CATEGORY('','',(#1647));
#1647=PRODUCT('separator-holder-ATX-setup','separator-holder-ATX-setup',
'separator-holder-ATX-setup',(#1649));
#1648=PRODUCT_CATEGORY('','');
#1649=PRODUCT_CONTEXT('',#1651,'mechanical');
#1650=APPLICATION_PROTOCOL_DEFINITION('international standard',
'ap242_managed_model_based_3d_engineering',2020,#1651);
#1651=APPLICATION_CONTEXT('managed model based 3d engineering');
ENDSEC;
END-ISO-10303-21;
