ISO-10303-21;
HEADER;
FILE_DESCRIPTION(('STEP AP214'),'1');
FILE_NAME('10_01_05_00406.stp','2023-05-30T05:19:25',('TraceParts'),('TraceParts S.A.'),'Spatial InterOp 3D',' ',' ');
FILE_SCHEMA(('AUTOMOTIVE_DESIGN { 1 0 10303 214 1 1 1 1 }'));
ENDSEC;
DATA;
#1=MECHANICAL_DESIGN_GEOMETRIC_PRESENTATION_REPRESENTATION(' ',(#10,#11,#12,#13,#14,#15,#16,#17,#18,#19,#20,#21,#22,#23,#24,#25,#26,#27,#28,#29,#30,#31,#32,#33,#34,#35,#36,#37,#38,#39,#40,#41,#42,#43,#44,#45,#46,#47,#48,#49,#50,#51,#52,#53,#54,#55),#6);
#2=PRODUCT_DEFINITION_CONTEXT('',#56,'design');
#3=APPLICATION_PROTOCOL_DEFINITION('INTERNATIONAL STANDARD','automotive_design',1994,#56);
#4=PRODUCT_CATEGORY_RELATIONSHIP('NONE','NONE',#57,#58);
#5=SHAPE_DEFINITION_REPRESENTATION(#59,#60);
#6= (GEOMETRIC_REPRESENTATION_CONTEXT(3)GLOBAL_UNCERTAINTY_ASSIGNED_CONTEXT((#63))GLOBAL_UNIT_ASSIGNED_CONTEXT((#65,#66,#67))REPRESENTATION_CONTEXT('NONE','WORKSPACE'));
#10=STYLED_ITEM('',(#69),#70);
#11=STYLED_ITEM('',(#71),#72);
#12=STYLED_ITEM('',(#73),#74);
#13=STYLED_ITEM('',(#75),#76);
#14=STYLED_ITEM('',(#77),#78);
#15=STYLED_ITEM('',(#79),#80);
#16=STYLED_ITEM('',(#81),#82);
#17=STYLED_ITEM('',(#83),#84);
#18=STYLED_ITEM('',(#85),#86);
#19=STYLED_ITEM('',(#87),#88);
#20=STYLED_ITEM('',(#89),#90);
#21=STYLED_ITEM('',(#91),#92);
#22=STYLED_ITEM('',(#93),#94);
#23=STYLED_ITEM('',(#95),#96);
#24=STYLED_ITEM('',(#97),#98);
#25=STYLED_ITEM('',(#99),#100);
#26=STYLED_ITEM('',(#101),#102);
#27=STYLED_ITEM('',(#103),#104);
#28=STYLED_ITEM('',(#105),#106);
#29=STYLED_ITEM('',(#107),#108);
#30=STYLED_ITEM('',(#109),#110);
#31=STYLED_ITEM('',(#111),#112);
#32=STYLED_ITEM('',(#113),#114);
#33=STYLED_ITEM('',(#115),#116);
#34=STYLED_ITEM('',(#117),#118);
#35=STYLED_ITEM('',(#119),#120);
#36=STYLED_ITEM('',(#121),#122);
#37=STYLED_ITEM('',(#123),#124);
#38=STYLED_ITEM('',(#125),#126);
#39=STYLED_ITEM('',(#127),#128);
#40=STYLED_ITEM('',(#129),#130);
#41=STYLED_ITEM('',(#131),#132);
#42=STYLED_ITEM('',(#133),#134);
#43=STYLED_ITEM('',(#135),#136);
#44=STYLED_ITEM('',(#137),#138);
#45=STYLED_ITEM('',(#139),#140);
#46=STYLED_ITEM('',(#141),#142);
#47=STYLED_ITEM('',(#143),#144);
#48=STYLED_ITEM('',(#145),#146);
#49=STYLED_ITEM('',(#147),#148);
#50=STYLED_ITEM('',(#149),#150);
#51=STYLED_ITEM('',(#151),#152);
#52=STYLED_ITEM('',(#153),#154);
#53=STYLED_ITEM('',(#155),#156);
#54=STYLED_ITEM('',(#157),#158);
#55=STYLED_ITEM('',(#159),#160);
#56=APPLICATION_CONTEXT(' ');
#57=PRODUCT_CATEGORY('part','NONE');
#58=PRODUCT_RELATED_PRODUCT_CATEGORY('detail',' ',(#161));
#59=PRODUCT_DEFINITION_SHAPE('NONE','NONE',#162);
#60=ADVANCED_BREP_SHAPE_REPRESENTATION('10_01_05_00406',(#160,#163),#6);
#63=UNCERTAINTY_MEASURE_WITH_UNIT(LENGTH_MEASURE(1.0E-06),#65,'','');
#65= (CONVERSION_BASED_UNIT('MILLIMETRE',#166)LENGTH_UNIT()NAMED_UNIT(#169));
#66= (NAMED_UNIT(#171)PLANE_ANGLE_UNIT()SI_UNIT($,.RADIAN.));
#67= (NAMED_UNIT(#171)SOLID_ANGLE_UNIT()SI_UNIT($,.STERADIAN.));
#69=PRESENTATION_STYLE_ASSIGNMENT((#177));
#70=ADVANCED_FACE('NONE',(#178),#179,.F.);
#71=PRESENTATION_STYLE_ASSIGNMENT((#180));
#72=ADVANCED_FACE('NONE',(#181),#182,.F.);
#73=PRESENTATION_STYLE_ASSIGNMENT((#183));
#74=ADVANCED_FACE('NONE',(#184),#185,.F.);
#75=PRESENTATION_STYLE_ASSIGNMENT((#186));
#76=ADVANCED_FACE('NONE',(#187),#188,.F.);
#77=PRESENTATION_STYLE_ASSIGNMENT((#189));
#78=ADVANCED_FACE('NONE',(#190),#191,.F.);
#79=PRESENTATION_STYLE_ASSIGNMENT((#192));
#80=ADVANCED_FACE('NONE',(#193),#194,.F.);
#81=PRESENTATION_STYLE_ASSIGNMENT((#195));
#82=ADVANCED_FACE('NONE',(#196,#197),#198,.T.);
#83=PRESENTATION_STYLE_ASSIGNMENT((#199));
#84=ADVANCED_FACE('NONE',(#200),#201,.F.);
#85=PRESENTATION_STYLE_ASSIGNMENT((#202));
#86=ADVANCED_FACE('NONE',(#203),#204,.T.);
#87=PRESENTATION_STYLE_ASSIGNMENT((#205));
#88=ADVANCED_FACE('NONE',(#206),#207,.F.);
#89=PRESENTATION_STYLE_ASSIGNMENT((#208));
#90=ADVANCED_FACE('NONE',(#209,#210),#211,.T.);
#91=PRESENTATION_STYLE_ASSIGNMENT((#212));
#92=ADVANCED_FACE('NONE',(#213),#214,.T.);
#93=PRESENTATION_STYLE_ASSIGNMENT((#215));
#94=ADVANCED_FACE('NONE',(#216,#217),#218,.T.);
#95=PRESENTATION_STYLE_ASSIGNMENT((#219));
#96=ADVANCED_FACE('NONE',(#220),#221,.T.);
#97=PRESENTATION_STYLE_ASSIGNMENT((#222));
#98=ADVANCED_FACE('NONE',(#223),#224,.T.);
#99=PRESENTATION_STYLE_ASSIGNMENT((#225));
#100=ADVANCED_FACE('NONE',(#226),#227,.T.);
#101=PRESENTATION_STYLE_ASSIGNMENT((#228));
#102=ADVANCED_FACE('NONE',(#229),#230,.T.);
#103=PRESENTATION_STYLE_ASSIGNMENT((#231));
#104=ADVANCED_FACE('NONE',(#232),#233,.T.);
#105=PRESENTATION_STYLE_ASSIGNMENT((#234));
#106=ADVANCED_FACE('NONE',(#235),#236,.T.);
#107=PRESENTATION_STYLE_ASSIGNMENT((#237));
#108=ADVANCED_FACE('NONE',(#238),#239,.F.);
#109=PRESENTATION_STYLE_ASSIGNMENT((#240));
#110=ADVANCED_FACE('NONE',(#241),#242,.F.);
#111=PRESENTATION_STYLE_ASSIGNMENT((#243));
#112=ADVANCED_FACE('NONE',(#244),#245,.F.);
#113=PRESENTATION_STYLE_ASSIGNMENT((#246));
#114=ADVANCED_FACE('NONE',(#247),#248,.T.);
#115=PRESENTATION_STYLE_ASSIGNMENT((#249));
#116=ADVANCED_FACE('NONE',(#250),#251,.T.);
#117=PRESENTATION_STYLE_ASSIGNMENT((#252));
#118=ADVANCED_FACE('NONE',(#253),#254,.F.);
#119=PRESENTATION_STYLE_ASSIGNMENT((#255));
#120=ADVANCED_FACE('NONE',(#256),#257,.F.);
#121=PRESENTATION_STYLE_ASSIGNMENT((#258));
#122=ADVANCED_FACE('NONE',(#259),#260,.F.);
#123=PRESENTATION_STYLE_ASSIGNMENT((#261));
#124=ADVANCED_FACE('NONE',(#262),#263,.T.);
#125=PRESENTATION_STYLE_ASSIGNMENT((#264));
#126=ADVANCED_FACE('NONE',(#265),#266,.T.);
#127=PRESENTATION_STYLE_ASSIGNMENT((#267));
#128=ADVANCED_FACE('NONE',(#268),#269,.T.);
#129=PRESENTATION_STYLE_ASSIGNMENT((#270));
#130=ADVANCED_FACE('NONE',(#271),#272,.T.);
#131=PRESENTATION_STYLE_ASSIGNMENT((#273));
#132=ADVANCED_FACE('NONE',(#274),#275,.F.);
#133=PRESENTATION_STYLE_ASSIGNMENT((#276));
#134=ADVANCED_FACE('NONE',(#277),#278,.T.);
#135=PRESENTATION_STYLE_ASSIGNMENT((#279));
#136=ADVANCED_FACE('NONE',(#280),#281,.T.);
#137=PRESENTATION_STYLE_ASSIGNMENT((#282));
#138=ADVANCED_FACE('NONE',(#283),#284,.T.);
#139=PRESENTATION_STYLE_ASSIGNMENT((#285));
#140=ADVANCED_FACE('NONE',(#286),#287,.T.);
#141=PRESENTATION_STYLE_ASSIGNMENT((#288));
#142=ADVANCED_FACE('NONE',(#289),#290,.F.);
#143=PRESENTATION_STYLE_ASSIGNMENT((#291));
#144=ADVANCED_FACE('NONE',(#292,#293),#294,.F.);
#145=PRESENTATION_STYLE_ASSIGNMENT((#295));
#146=ADVANCED_FACE('NONE',(#296),#297,.T.);
#147=PRESENTATION_STYLE_ASSIGNMENT((#298));
#148=ADVANCED_FACE('NONE',(#299),#300,.T.);
#149=PRESENTATION_STYLE_ASSIGNMENT((#301));
#150=ADVANCED_FACE('NONE',(#302),#303,.T.);
#151=PRESENTATION_STYLE_ASSIGNMENT((#304));
#152=ADVANCED_FACE('NONE',(#305),#306,.F.);
#153=PRESENTATION_STYLE_ASSIGNMENT((#307));
#154=ADVANCED_FACE('NONE',(#308),#309,.F.);
#155=PRESENTATION_STYLE_ASSIGNMENT((#310));
#156=ADVANCED_FACE('NONE',(#311),#312,.T.);
#157=PRESENTATION_STYLE_ASSIGNMENT((#313));
#158=ADVANCED_FACE('NONE',(#314,#315),#316,.T.);
#159=PRESENTATION_STYLE_ASSIGNMENT((#317));
#160=MANIFOLD_SOLID_BREP('10_01_05_00406',#318);
#161=PRODUCT('10_01_05_00406','','PART--DESC',(#319));
#162=PRODUCT_DEFINITION('','NONE',#320,#2);
#163=AXIS2_PLACEMENT_3D('',#321,#322,#323);
#166=LENGTH_MEASURE_WITH_UNIT(LENGTH_MEASURE(1.0),#324);
#169=DIMENSIONAL_EXPONENTS(1.0,0.0,0.0,0.0,0.0,0.0,0.0);
#171=DIMENSIONAL_EXPONENTS(0.0,0.0,0.0,0.0,0.0,0.0,0.0);
#177=SURFACE_STYLE_USAGE(.BOTH.,#325);
#178=FACE_OUTER_BOUND('',#326,.T.);
#179=PLANE('',#327);
#180=SURFACE_STYLE_USAGE(.BOTH.,#328);
#181=FACE_OUTER_BOUND('',#329,.T.);
#182=PLANE('',#330);
#183=SURFACE_STYLE_USAGE(.BOTH.,#331);
#184=FACE_OUTER_BOUND('',#332,.T.);
#185=PLANE('',#333);
#186=SURFACE_STYLE_USAGE(.BOTH.,#334);
#187=FACE_OUTER_BOUND('',#335,.T.);
#188=PLANE('',#336);
#189=SURFACE_STYLE_USAGE(.BOTH.,#337);
#190=FACE_OUTER_BOUND('',#338,.T.);
#191=PLANE('',#339);
#192=SURFACE_STYLE_USAGE(.BOTH.,#340);
#193=FACE_OUTER_BOUND('',#341,.T.);
#194=PLANE('',#342);
#195=SURFACE_STYLE_USAGE(.BOTH.,#343);
#196=FACE_OUTER_BOUND('',#344,.T.);
#197=FACE_BOUND('',#345,.T.);
#198=PLANE('',#346);
#199=SURFACE_STYLE_USAGE(.BOTH.,#347);
#200=FACE_OUTER_BOUND('',#348,.T.);
#201=CYLINDRICAL_SURFACE('',#349,0.9);
#202=SURFACE_STYLE_USAGE(.BOTH.,#350);
#203=FACE_OUTER_BOUND('',#351,.T.);
#204=CYLINDRICAL_SURFACE('',#352,2.5);
#205=SURFACE_STYLE_USAGE(.BOTH.,#353);
#206=FACE_OUTER_BOUND('',#354,.T.);
#207=CYLINDRICAL_SURFACE('',#355,0.9);
#208=SURFACE_STYLE_USAGE(.BOTH.,#356);
#209=FACE_OUTER_BOUND('',#357,.T.);
#210=FACE_BOUND('',#358,.T.);
#211=PLANE('',#359);
#212=SURFACE_STYLE_USAGE(.BOTH.,#360);
#213=FACE_OUTER_BOUND('',#361,.T.);
#214=CYLINDRICAL_SURFACE('',#362,2.5);
#215=SURFACE_STYLE_USAGE(.BOTH.,#363);
#216=FACE_OUTER_BOUND('',#364,.T.);
#217=FACE_BOUND('',#365,.T.);
#218=PLANE('',#366);
#219=SURFACE_STYLE_USAGE(.BOTH.,#367);
#220=FACE_OUTER_BOUND('',#368,.T.);
#221=PLANE('',#369);
#222=SURFACE_STYLE_USAGE(.BOTH.,#370);
#223=FACE_OUTER_BOUND('',#371,.T.);
#224=PLANE('',#372);
#225=SURFACE_STYLE_USAGE(.BOTH.,#373);
#226=FACE_OUTER_BOUND('',#374,.T.);
#227=PLANE('',#375);
#228=SURFACE_STYLE_USAGE(.BOTH.,#376);
#229=FACE_OUTER_BOUND('',#377,.T.);
#230=PLANE('',#378);
#231=SURFACE_STYLE_USAGE(.BOTH.,#379);
#232=FACE_OUTER_BOUND('',#380,.T.);
#233=PLANE('',#381);
#234=SURFACE_STYLE_USAGE(.BOTH.,#382);
#235=FACE_OUTER_BOUND('',#383,.T.);
#236=PLANE('',#384);
#237=SURFACE_STYLE_USAGE(.BOTH.,#385);
#238=FACE_OUTER_BOUND('',#386,.T.);
#239=CYLINDRICAL_SURFACE('',#387,2.1);
#240=SURFACE_STYLE_USAGE(.BOTH.,#388);
#241=FACE_OUTER_BOUND('',#389,.T.);
#242=CONICAL_SURFACE('',#390,2.1,0.78539816339745);
#243=SURFACE_STYLE_USAGE(.BOTH.,#391);
#244=FACE_OUTER_BOUND('',#392,.T.);
#245=CYLINDRICAL_SURFACE('',#393,2.1);
#246=SURFACE_STYLE_USAGE(.BOTH.,#394);
#247=FACE_OUTER_BOUND('',#395,.T.);
#248=CYLINDRICAL_SURFACE('',#396,4.0);
#249=SURFACE_STYLE_USAGE(.BOTH.,#397);
#250=FACE_OUTER_BOUND('',#398,.T.);
#251=CONICAL_SURFACE('',#399,4.0,0.78539816339745);
#252=SURFACE_STYLE_USAGE(.BOTH.,#400);
#253=FACE_OUTER_BOUND('',#401,.T.);
#254=CYLINDRICAL_SURFACE('',#402,0.75);
#255=SURFACE_STYLE_USAGE(.BOTH.,#403);
#256=FACE_OUTER_BOUND('',#404,.T.);
#257=PLANE('',#405);
#258=SURFACE_STYLE_USAGE(.BOTH.,#406);
#259=FACE_OUTER_BOUND('',#407,.T.);
#260=PLANE('',#408);
#261=SURFACE_STYLE_USAGE(.BOTH.,#409);
#262=FACE_OUTER_BOUND('',#410,.T.);
#263=CYLINDRICAL_SURFACE('',#411,1.75);
#264=SURFACE_STYLE_USAGE(.BOTH.,#412);
#265=FACE_OUTER_BOUND('',#413,.T.);
#266=PLANE('',#414);
#267=SURFACE_STYLE_USAGE(.BOTH.,#415);
#268=FACE_OUTER_BOUND('',#416,.T.);
#269=CYLINDRICAL_SURFACE('',#417,1.75);
#270=SURFACE_STYLE_USAGE(.BOTH.,#418);
#271=FACE_OUTER_BOUND('',#419,.T.);
#272=PLANE('',#420);
#273=SURFACE_STYLE_USAGE(.BOTH.,#421);
#274=FACE_OUTER_BOUND('',#422,.T.);
#275=CYLINDRICAL_SURFACE('',#423,0.75);
#276=SURFACE_STYLE_USAGE(.BOTH.,#424);
#277=FACE_OUTER_BOUND('',#425,.T.);
#278=PLANE('',#426);
#279=SURFACE_STYLE_USAGE(.BOTH.,#427);
#280=FACE_OUTER_BOUND('',#428,.T.);
#281=PLANE('',#429);
#282=SURFACE_STYLE_USAGE(.BOTH.,#430);
#283=FACE_OUTER_BOUND('',#431,.T.);
#284=CONICAL_SURFACE('',#432,4.0,0.78539816339745);
#285=SURFACE_STYLE_USAGE(.BOTH.,#433);
#286=FACE_OUTER_BOUND('',#434,.T.);
#287=CYLINDRICAL_SURFACE('',#435,4.0);
#288=SURFACE_STYLE_USAGE(.BOTH.,#436);
#289=FACE_OUTER_BOUND('',#437,.T.);
#290=CONICAL_SURFACE('',#438,2.1,0.78539816339745);
#291=SURFACE_STYLE_USAGE(.BOTH.,#439);
#292=FACE_OUTER_BOUND('',#440,.T.);
#293=FACE_BOUND('',#441,.T.);
#294=PLANE('',#442);
#295=SURFACE_STYLE_USAGE(.BOTH.,#443);
#296=FACE_OUTER_BOUND('',#444,.T.);
#297=CONICAL_SURFACE('',#445,2.05213956538806,0.607135874840022);
#298=SURFACE_STYLE_USAGE(.BOTH.,#446);
#299=FACE_OUTER_BOUND('',#447,.T.);
#300=CONICAL_SURFACE('',#448,2.05213956538806,0.607135874840022);
#301=SURFACE_STYLE_USAGE(.BOTH.,#449);
#302=FACE_OUTER_BOUND('',#450,.T.);
#303=PLANE('',#451);
#304=SURFACE_STYLE_USAGE(.BOTH.,#452);
#305=FACE_OUTER_BOUND('',#453,.T.);
#306=CONICAL_SURFACE('',#454,2.0,0.84382904253675);
#307=SURFACE_STYLE_USAGE(.BOTH.,#455);
#308=FACE_OUTER_BOUND('',#456,.T.);
#309=CONICAL_SURFACE('',#457,2.0,0.84382904253675);
#310=SURFACE_STYLE_USAGE(.BOTH.,#458);
#311=FACE_OUTER_BOUND('',#459,.T.);
#312=PLANE('',#460);
#313=SURFACE_STYLE_USAGE(.BOTH.,#461);
#314=FACE_OUTER_BOUND('',#462,.T.);
#315=FACE_BOUND('',#463,.T.);
#316=PLANE('',#464);
#317=SURFACE_STYLE_USAGE(.BOTH.,#465);
#318=CLOSED_SHELL('',(#70,#72,#74,#76,#78,#80,#82,#84,#86,#88,#90,#92,#94,#96,#98,#100,#102,#104,#106,#108,#110,#112,#114,#116,#118,#120,#122,#124,#126,#128,#130,#132,#134,#136,#138,#140,#142,#144,#146,#148,#150,#152,#154,#156,#158));
#319=PRODUCT_CONTEXT('',#56,'mechanical');
#320=PRODUCT_DEFINITION_FORMATION_WITH_SPECIFIED_SOURCE(' ','NONE',#161,.NOT_KNOWN.);
#321=CARTESIAN_POINT('',(0.0,0.0,0.0));
#322=DIRECTION('',(0.0,0.0,1.0));
#323=DIRECTION('',(1.0,0.0,0.0));
#324= (NAMED_UNIT(#169)LENGTH_UNIT()SI_UNIT(.MILLI.,.METRE.));
#325=SURFACE_SIDE_STYLE('',(#467));
#326=EDGE_LOOP('',(#468,#469,#470));
#327=AXIS2_PLACEMENT_3D('',#471,#472,#473);
#328=SURFACE_SIDE_STYLE('',(#474));
#329=EDGE_LOOP('',(#475,#476,#477));
#330=AXIS2_PLACEMENT_3D('',#478,#479,#480);
#331=SURFACE_SIDE_STYLE('',(#481));
#332=EDGE_LOOP('',(#482,#483,#484));
#333=AXIS2_PLACEMENT_3D('',#485,#486,#487);
#334=SURFACE_SIDE_STYLE('',(#488));
#335=EDGE_LOOP('',(#489,#490,#491));
#336=AXIS2_PLACEMENT_3D('',#492,#493,#494);
#337=SURFACE_SIDE_STYLE('',(#495));
#338=EDGE_LOOP('',(#496,#497,#498));
#339=AXIS2_PLACEMENT_3D('',#499,#500,#501);
#340=SURFACE_SIDE_STYLE('',(#502));
#341=EDGE_LOOP('',(#503,#504,#505));
#342=AXIS2_PLACEMENT_3D('',#506,#507,#508);
#343=SURFACE_SIDE_STYLE('',(#509));
#344=EDGE_LOOP('',(#510,#511));
#345=EDGE_LOOP('',(#512,#513));
#346=AXIS2_PLACEMENT_3D('',#514,#515,#516);
#347=SURFACE_SIDE_STYLE('',(#517));
#348=EDGE_LOOP('',(#518,#519,#520,#521));
#349=AXIS2_PLACEMENT_3D('',#522,#523,#524);
#350=SURFACE_SIDE_STYLE('',(#525));
#351=EDGE_LOOP('',(#526,#527,#528,#529));
#352=AXIS2_PLACEMENT_3D('',#530,#531,#532);
#353=SURFACE_SIDE_STYLE('',(#533));
#354=EDGE_LOOP('',(#534,#535,#536,#537));
#355=AXIS2_PLACEMENT_3D('',#538,#539,#540);
#356=SURFACE_SIDE_STYLE('',(#541));
#357=EDGE_LOOP('',(#542,#543));
#358=EDGE_LOOP('',(#544,#545));
#359=AXIS2_PLACEMENT_3D('',#546,#547,#548);
#360=SURFACE_SIDE_STYLE('',(#549));
#361=EDGE_LOOP('',(#550,#551,#552,#553));
#362=AXIS2_PLACEMENT_3D('',#554,#555,#556);
#363=SURFACE_SIDE_STYLE('',(#557));
#364=EDGE_LOOP('',(#558,#559,#560,#561,#562,#563));
#365=EDGE_LOOP('',(#564,#565));
#366=AXIS2_PLACEMENT_3D('',#566,#567,#568);
#367=SURFACE_SIDE_STYLE('',(#569));
#368=EDGE_LOOP('',(#570,#571,#572,#573,#574));
#369=AXIS2_PLACEMENT_3D('',#575,#576,#577);
#370=SURFACE_SIDE_STYLE('',(#578));
#371=EDGE_LOOP('',(#579,#580,#581,#582,#583));
#372=AXIS2_PLACEMENT_3D('',#584,#585,#586);
#373=SURFACE_SIDE_STYLE('',(#587));
#374=EDGE_LOOP('',(#588,#589,#590,#591,#592));
#375=AXIS2_PLACEMENT_3D('',#593,#594,#595);
#376=SURFACE_SIDE_STYLE('',(#596));
#377=EDGE_LOOP('',(#597,#598,#599,#600,#601));
#378=AXIS2_PLACEMENT_3D('',#602,#603,#604);
#379=SURFACE_SIDE_STYLE('',(#605));
#380=EDGE_LOOP('',(#606,#607,#608,#609,#610));
#381=AXIS2_PLACEMENT_3D('',#611,#612,#613);
#382=SURFACE_SIDE_STYLE('',(#614));
#383=EDGE_LOOP('',(#615,#616,#617,#618,#619));
#384=AXIS2_PLACEMENT_3D('',#620,#621,#622);
#385=SURFACE_SIDE_STYLE('',(#623));
#386=EDGE_LOOP('',(#624,#625,#626,#627));
#387=AXIS2_PLACEMENT_3D('',#628,#629,#630);
#388=SURFACE_SIDE_STYLE('',(#631));
#389=EDGE_LOOP('',(#632,#633,#634,#635));
#390=AXIS2_PLACEMENT_3D('',#636,#637,#638);
#391=SURFACE_SIDE_STYLE('',(#639));
#392=EDGE_LOOP('',(#640,#641,#642,#643));
#393=AXIS2_PLACEMENT_3D('',#644,#645,#646);
#394=SURFACE_SIDE_STYLE('',(#647));
#395=EDGE_LOOP('',(#648,#649,#650,#651,#652,#653));
#396=AXIS2_PLACEMENT_3D('',#654,#655,#656);
#397=SURFACE_SIDE_STYLE('',(#657));
#398=EDGE_LOOP('',(#658,#659,#660,#661,#662,#663));
#399=AXIS2_PLACEMENT_3D('',#664,#665,#666);
#400=SURFACE_SIDE_STYLE('',(#667));
#401=EDGE_LOOP('',(#668,#669,#670,#671));
#402=AXIS2_PLACEMENT_3D('',#672,#673,#674);
#403=SURFACE_SIDE_STYLE('',(#675));
#404=EDGE_LOOP('',(#676,#677,#678,#679,#680,#681,#682,#683));
#405=AXIS2_PLACEMENT_3D('',#684,#685,#686);
#406=SURFACE_SIDE_STYLE('',(#687));
#407=EDGE_LOOP('',(#688,#689,#690,#691,#692,#693,#694,#695));
#408=AXIS2_PLACEMENT_3D('',#696,#697,#698);
#409=SURFACE_SIDE_STYLE('',(#699));
#410=EDGE_LOOP('',(#700,#701,#702,#703,#704,#705));
#411=AXIS2_PLACEMENT_3D('',#706,#707,#708);
#412=SURFACE_SIDE_STYLE('',(#709));
#413=EDGE_LOOP('',(#710,#711,#712,#713,#714));
#414=AXIS2_PLACEMENT_3D('',#715,#716,#717);
#415=SURFACE_SIDE_STYLE('',(#718));
#416=EDGE_LOOP('',(#719,#720,#721,#722,#723,#724));
#417=AXIS2_PLACEMENT_3D('',#725,#726,#727);
#418=SURFACE_SIDE_STYLE('',(#728));
#419=EDGE_LOOP('',(#729,#730,#731,#732,#733));
#420=AXIS2_PLACEMENT_3D('',#734,#735,#736);
#421=SURFACE_SIDE_STYLE('',(#737));
#422=EDGE_LOOP('',(#738,#739,#740,#741));
#423=AXIS2_PLACEMENT_3D('',#742,#743,#744);
#424=SURFACE_SIDE_STYLE('',(#745));
#425=EDGE_LOOP('',(#746,#747,#748,#749));
#426=AXIS2_PLACEMENT_3D('',#750,#751,#752);
#427=SURFACE_SIDE_STYLE('',(#753));
#428=EDGE_LOOP('',(#754,#755,#756,#757));
#429=AXIS2_PLACEMENT_3D('',#758,#759,#760);
#430=SURFACE_SIDE_STYLE('',(#761));
#431=EDGE_LOOP('',(#762,#763,#764,#765,#766,#767));
#432=AXIS2_PLACEMENT_3D('',#768,#769,#770);
#433=SURFACE_SIDE_STYLE('',(#771));
#434=EDGE_LOOP('',(#772,#773,#774,#775,#776,#777));
#435=AXIS2_PLACEMENT_3D('',#778,#779,#780);
#436=SURFACE_SIDE_STYLE('',(#781));
#437=EDGE_LOOP('',(#782,#783,#784,#785));
#438=AXIS2_PLACEMENT_3D('',#786,#787,#788);
#439=SURFACE_SIDE_STYLE('',(#789));
#440=EDGE_LOOP('',(#790,#791,#792,#793));
#441=EDGE_LOOP('',(#794,#795,#796,#797));
#442=AXIS2_PLACEMENT_3D('',#798,#799,#800);
#443=SURFACE_SIDE_STYLE('',(#801));
#444=EDGE_LOOP('',(#802,#803,#804,#805));
#445=AXIS2_PLACEMENT_3D('',#806,#807,#808);
#446=SURFACE_SIDE_STYLE('',(#809));
#447=EDGE_LOOP('',(#810,#811,#812,#813));
#448=AXIS2_PLACEMENT_3D('',#814,#815,#816);
#449=SURFACE_SIDE_STYLE('',(#817));
#450=EDGE_LOOP('',(#818,#819,#820,#821));
#451=AXIS2_PLACEMENT_3D('',#822,#823,#824);
#452=SURFACE_SIDE_STYLE('',(#825));
#453=EDGE_LOOP('',(#826,#827,#828,#829));
#454=AXIS2_PLACEMENT_3D('',#830,#831,#832);
#455=SURFACE_SIDE_STYLE('',(#833));
#456=EDGE_LOOP('',(#834,#835,#836,#837));
#457=AXIS2_PLACEMENT_3D('',#838,#839,#840);
#458=SURFACE_SIDE_STYLE('',(#841));
#459=EDGE_LOOP('',(#842,#843,#844,#845));
#460=AXIS2_PLACEMENT_3D('',#846,#847,#848);
#461=SURFACE_SIDE_STYLE('',(#849));
#462=EDGE_LOOP('',(#850,#851,#852,#853));
#463=EDGE_LOOP('',(#854,#855));
#464=AXIS2_PLACEMENT_3D('',#856,#857,#858);
#465=SURFACE_SIDE_STYLE('',(#859));
#467=SURFACE_STYLE_FILL_AREA(#860);
#468=ORIENTED_EDGE('',*,*,#861,.T.);
#469=ORIENTED_EDGE('',*,*,#862,.T.);
#470=ORIENTED_EDGE('',*,*,#863,.T.);
#471=CARTESIAN_POINT('',(9.82379161183472E-16,-6.01513881323988E-32,-3.0));
#472=DIRECTION('',(0.0,0.0,1.0));
#473=DIRECTION('',(1.0,0.0,0.0));
#474=SURFACE_STYLE_FILL_AREA(#864);
#475=ORIENTED_EDGE('',*,*,#865,.T.);
#476=ORIENTED_EDGE('',*,*,#866,.T.);
#477=ORIENTED_EDGE('',*,*,#867,.T.);
#478=CARTESIAN_POINT('',(9.82379161183472E-16,-6.01513881323988E-32,-3.0));
#479=DIRECTION('',(0.0,0.0,1.0));
#480=DIRECTION('',(1.0,0.0,0.0));
#481=SURFACE_STYLE_FILL_AREA(#868);
#482=ORIENTED_EDGE('',*,*,#869,.T.);
#483=ORIENTED_EDGE('',*,*,#870,.T.);
#484=ORIENTED_EDGE('',*,*,#871,.T.);
#485=CARTESIAN_POINT('',(9.82379161183472E-16,-6.01513881323988E-32,-3.0));
#486=DIRECTION('',(0.0,0.0,1.0));
#487=DIRECTION('',(1.0,0.0,0.0));
#488=SURFACE_STYLE_FILL_AREA(#872);
#489=ORIENTED_EDGE('',*,*,#873,.T.);
#490=ORIENTED_EDGE('',*,*,#874,.T.);
#491=ORIENTED_EDGE('',*,*,#875,.T.);
#492=CARTESIAN_POINT('',(9.82379161183472E-16,-6.01513881323988E-32,-3.0));
#493=DIRECTION('',(0.0,0.0,1.0));
#494=DIRECTION('',(1.0,0.0,0.0));
#495=SURFACE_STYLE_FILL_AREA(#876);
#496=ORIENTED_EDGE('',*,*,#877,.T.);
#497=ORIENTED_EDGE('',*,*,#878,.T.);
#498=ORIENTED_EDGE('',*,*,#879,.T.);
#499=CARTESIAN_POINT('',(9.82379161183472E-16,-6.01513881323988E-32,-3.0));
#500=DIRECTION('',(0.0,0.0,1.0));
#501=DIRECTION('',(1.0,0.0,0.0));
#502=SURFACE_STYLE_FILL_AREA(#880);
#503=ORIENTED_EDGE('',*,*,#881,.T.);
#504=ORIENTED_EDGE('',*,*,#882,.T.);
#505=ORIENTED_EDGE('',*,*,#883,.T.);
#506=CARTESIAN_POINT('',(9.82379161183472E-16,-6.01513881323988E-32,-3.0));
#507=DIRECTION('',(0.0,0.0,1.0));
#508=DIRECTION('',(1.0,0.0,0.0));
#509=SURFACE_STYLE_FILL_AREA(#884);
#510=ORIENTED_EDGE('',*,*,#885,.F.);
#511=ORIENTED_EDGE('',*,*,#886,.F.);
#512=ORIENTED_EDGE('',*,*,#887,.T.);
#513=ORIENTED_EDGE('',*,*,#888,.T.);
#514=CARTESIAN_POINT('',(1.175,-4.59227382683391E-16,-10.5));
#515=DIRECTION('',(0.0,0.0,-1.0));
#516=DIRECTION('',(0.0,-1.0,0.0));
#517=SURFACE_STYLE_FILL_AREA(#889);
#518=ORIENTED_EDGE('',*,*,#890,.F.);
#519=ORIENTED_EDGE('',*,*,#891,.T.);
#520=ORIENTED_EDGE('',*,*,#887,.F.);
#521=ORIENTED_EDGE('',*,*,#892,.F.);
#522=CARTESIAN_POINT('',(0.0,0.0,-3.0));
#523=DIRECTION('',(-0.0,0.0,-1.0));
#524=DIRECTION('',(-1.0,0.0,0.0));
#525=SURFACE_STYLE_FILL_AREA(#893);
#526=ORIENTED_EDGE('',*,*,#894,.T.);
#527=ORIENTED_EDGE('',*,*,#895,.T.);
#528=ORIENTED_EDGE('',*,*,#896,.F.);
#529=ORIENTED_EDGE('',*,*,#897,.F.);
#530=CARTESIAN_POINT('',(0.0,0.0,2.25));
#531=DIRECTION('',(-0.0,0.0,1.0));
#532=DIRECTION('',(1.0,0.0,0.0));
#533=SURFACE_STYLE_FILL_AREA(#898);
#534=ORIENTED_EDGE('',*,*,#891,.F.);
#535=ORIENTED_EDGE('',*,*,#899,.F.);
#536=ORIENTED_EDGE('',*,*,#892,.T.);
#537=ORIENTED_EDGE('',*,*,#888,.F.);
#538=CARTESIAN_POINT('',(0.0,0.0,-3.0));
#539=DIRECTION('',(-0.0,0.0,-1.0));
#540=DIRECTION('',(-1.0,0.0,0.0));
#541=SURFACE_STYLE_FILL_AREA(#900);
#542=ORIENTED_EDGE('',*,*,#896,.T.);
#543=ORIENTED_EDGE('',*,*,#901,.T.);
#544=ORIENTED_EDGE('',*,*,#899,.T.);
#545=ORIENTED_EDGE('',*,*,#890,.T.);
#546=CARTESIAN_POINT('',(1.25,2.75536429610035E-16,4.5));
#547=DIRECTION('',(0.0,0.0,1.0));
#548=DIRECTION('',(1.0,0.0,0.0));
#549=SURFACE_STYLE_FILL_AREA(#902);
#550=ORIENTED_EDGE('',*,*,#895,.F.);
#551=ORIENTED_EDGE('',*,*,#903,.T.);
#552=ORIENTED_EDGE('',*,*,#897,.T.);
#553=ORIENTED_EDGE('',*,*,#901,.F.);
#554=CARTESIAN_POINT('',(0.0,0.0,2.25));
#555=DIRECTION('',(-0.0,0.0,1.0));
#556=DIRECTION('',(1.0,0.0,0.0));
#557=SURFACE_STYLE_FILL_AREA(#904);
#558=ORIENTED_EDGE('',*,*,#905,.T.);
#559=ORIENTED_EDGE('',*,*,#906,.T.);
#560=ORIENTED_EDGE('',*,*,#907,.T.);
#561=ORIENTED_EDGE('',*,*,#908,.T.);
#562=ORIENTED_EDGE('',*,*,#909,.T.);
#563=ORIENTED_EDGE('',*,*,#910,.T.);
#564=ORIENTED_EDGE('',*,*,#894,.F.);
#565=ORIENTED_EDGE('',*,*,#903,.F.);
#566=CARTESIAN_POINT('',(1.11022302462516E-15,3.33066907387547E-16,0.0));
#567=DIRECTION('',(0.0,0.0,1.0));
#568=DIRECTION('',(1.0,0.0,0.0));
#569=SURFACE_STYLE_FILL_AREA(#911);
#570=ORIENTED_EDGE('',*,*,#912,.T.);
#571=ORIENTED_EDGE('',*,*,#906,.F.);
#572=ORIENTED_EDGE('',*,*,#913,.F.);
#573=ORIENTED_EDGE('',*,*,#870,.F.);
#574=ORIENTED_EDGE('',*,*,#875,.F.);
#575=CARTESIAN_POINT('',(-2.3094010767585,4.0,-3.0));
#576=DIRECTION('',(9.65442351205054E-80,1.0,2.47679771571574E-32));
#577=DIRECTION('',(0.0,2.47679771571574E-32,-1.0));
#578=SURFACE_STYLE_FILL_AREA(#914);
#579=ORIENTED_EDGE('',*,*,#913,.T.);
#580=ORIENTED_EDGE('',*,*,#905,.F.);
#581=ORIENTED_EDGE('',*,*,#915,.T.);
#582=ORIENTED_EDGE('',*,*,#866,.F.);
#583=ORIENTED_EDGE('',*,*,#871,.F.);
#584=CARTESIAN_POINT('',(2.3094010767585,4.0,-3.0));
#585=DIRECTION('',(0.866025403784439,0.5,0.0));
#586=DIRECTION('',(0.0,0.0,-1.0));
#587=SURFACE_STYLE_FILL_AREA(#916);
#588=ORIENTED_EDGE('',*,*,#915,.F.);
#589=ORIENTED_EDGE('',*,*,#910,.F.);
#590=ORIENTED_EDGE('',*,*,#917,.T.);
#591=ORIENTED_EDGE('',*,*,#862,.F.);
#592=ORIENTED_EDGE('',*,*,#867,.F.);
#593=CARTESIAN_POINT('',(4.61880215351701,-2.8281072321227E-16,-3.0));
#594=DIRECTION('',(0.866025403784439,-0.5,0.0));
#595=DIRECTION('',(0.0,0.0,-1.0));
#596=SURFACE_STYLE_FILL_AREA(#918);
#597=ORIENTED_EDGE('',*,*,#919,.T.);
#598=ORIENTED_EDGE('',*,*,#882,.F.);
#599=ORIENTED_EDGE('',*,*,#863,.F.);
#600=ORIENTED_EDGE('',*,*,#917,.F.);
#601=ORIENTED_EDGE('',*,*,#909,.F.);
#602=CARTESIAN_POINT('',(2.3094010767585,-4.0,-3.0));
#603=DIRECTION('',(-2.53526586329475E-16,-1.0,0.0));
#604=DIRECTION('',(-1.0,2.53526586329475E-16,0.0));
#605=SURFACE_STYLE_FILL_AREA(#920);
#606=ORIENTED_EDGE('',*,*,#921,.T.);
#607=ORIENTED_EDGE('',*,*,#878,.F.);
#608=ORIENTED_EDGE('',*,*,#883,.F.);
#609=ORIENTED_EDGE('',*,*,#919,.F.);
#610=ORIENTED_EDGE('',*,*,#908,.F.);
#611=CARTESIAN_POINT('',(-2.3094010767585,-4.0,-3.0));
#612=DIRECTION('',(-0.866025403784439,-0.5,0.0));
#613=DIRECTION('',(-0.5,0.866025403784439,0.0));
#614=SURFACE_STYLE_FILL_AREA(#922);
#615=ORIENTED_EDGE('',*,*,#912,.F.);
#616=ORIENTED_EDGE('',*,*,#874,.F.);
#617=ORIENTED_EDGE('',*,*,#879,.F.);
#618=ORIENTED_EDGE('',*,*,#921,.F.);
#619=ORIENTED_EDGE('',*,*,#907,.F.);
#620=CARTESIAN_POINT('',(-4.618802153517,7.26899933062333E-16,-3.0));
#621=DIRECTION('',(-0.866025403784439,0.5,0.0));
#622=DIRECTION('',(0.0,0.0,1.0));
#623=SURFACE_STYLE_FILL_AREA(#923);
#624=ORIENTED_EDGE('',*,*,#886,.T.);
#625=ORIENTED_EDGE('',*,*,#924,.F.);
#626=ORIENTED_EDGE('',*,*,#925,.F.);
#627=ORIENTED_EDGE('',*,*,#926,.T.);
#628=CARTESIAN_POINT('',(0.0,0.0,-12.3));
#629=DIRECTION('',(-0.0,0.0,1.0));
#630=DIRECTION('',(8.88178419700125E-16,1.0,0.0));
#631=SURFACE_STYLE_FILL_AREA(#927);
#632=ORIENTED_EDGE('',*,*,#928,.F.);
#633=ORIENTED_EDGE('',*,*,#929,.T.);
#634=ORIENTED_EDGE('',*,*,#930,.T.);
#635=ORIENTED_EDGE('',*,*,#931,.F.);
#636=CARTESIAN_POINT('',(0.0,0.0,-12.3));
#637=DIRECTION('',(-0.0,-0.0,1.0));
#638=DIRECTION('',(8.88178419700125E-16,1.0,0.0));
#639=SURFACE_STYLE_FILL_AREA(#932);
#640=ORIENTED_EDGE('',*,*,#885,.T.);
#641=ORIENTED_EDGE('',*,*,#926,.F.);
#642=ORIENTED_EDGE('',*,*,#930,.F.);
#643=ORIENTED_EDGE('',*,*,#924,.T.);
#644=CARTESIAN_POINT('',(0.0,0.0,-12.3));
#645=DIRECTION('',(-0.0,0.0,1.0));
#646=DIRECTION('',(8.88178419700125E-16,1.0,0.0));
#647=SURFACE_STYLE_FILL_AREA(#933);
#648=ORIENTED_EDGE('',*,*,#934,.F.);
#649=ORIENTED_EDGE('',*,*,#935,.T.);
#650=ORIENTED_EDGE('',*,*,#881,.F.);
#651=ORIENTED_EDGE('',*,*,#877,.F.);
#652=ORIENTED_EDGE('',*,*,#873,.F.);
#653=ORIENTED_EDGE('',*,*,#936,.F.);
#654=CARTESIAN_POINT('',(0.0,0.0,-12.0));
#655=DIRECTION('',(-0.0,0.0,1.0));
#656=DIRECTION('',(8.88178419700125E-16,1.0,0.0));
#657=SURFACE_STYLE_FILL_AREA(#937);
#658=ORIENTED_EDGE('',*,*,#938,.F.);
#659=ORIENTED_EDGE('',*,*,#939,.T.);
#660=ORIENTED_EDGE('',*,*,#940,.T.);
#661=ORIENTED_EDGE('',*,*,#941,.F.);
#662=ORIENTED_EDGE('',*,*,#942,.F.);
#663=ORIENTED_EDGE('',*,*,#943,.F.);
#664=CARTESIAN_POINT('',(0.0,0.0,-12.0));
#665=DIRECTION('',(-0.0,0.0,1.0));
#666=DIRECTION('',(-8.88178419700125E-16,-1.0,0.0));
#667=SURFACE_STYLE_FILL_AREA(#944);
#668=ORIENTED_EDGE('',*,*,#928,.T.);
#669=ORIENTED_EDGE('',*,*,#945,.T.);
#670=ORIENTED_EDGE('',*,*,#946,.T.);
#671=ORIENTED_EDGE('',*,*,#947,.F.);
#672=CARTESIAN_POINT('',(0.0,0.0,-3.0));
#673=DIRECTION('',(0.0,-0.0,-1.0));
#674=DIRECTION('',(-8.88178419700125E-16,-1.0,0.0));
#675=SURFACE_STYLE_FILL_AREA(#948);
#676=ORIENTED_EDGE('',*,*,#949,.T.);
#677=ORIENTED_EDGE('',*,*,#950,.F.);
#678=ORIENTED_EDGE('',*,*,#951,.F.);
#679=ORIENTED_EDGE('',*,*,#952,.T.);
#680=ORIENTED_EDGE('',*,*,#953,.T.);
#681=ORIENTED_EDGE('',*,*,#954,.F.);
#682=ORIENTED_EDGE('',*,*,#955,.T.);
#683=ORIENTED_EDGE('',*,*,#956,.T.);
#684=CARTESIAN_POINT('',(4.0,2.05213956538806,-18.0));
#685=DIRECTION('',(-8.18491927961898E-16,-0.821285417836719,-0.570517539124579));
#686=DIRECTION('',(0.0,0.570517539124579,-0.821285417836719));
#687=SURFACE_STYLE_FILL_AREA(#957);
#688=ORIENTED_EDGE('',*,*,#958,.T.);
#689=ORIENTED_EDGE('',*,*,#959,.T.);
#690=ORIENTED_EDGE('',*,*,#960,.T.);
#691=ORIENTED_EDGE('',*,*,#961,.F.);
#692=ORIENTED_EDGE('',*,*,#962,.F.);
#693=ORIENTED_EDGE('',*,*,#963,.T.);
#694=ORIENTED_EDGE('',*,*,#964,.T.);
#695=ORIENTED_EDGE('',*,*,#965,.F.);
#696=CARTESIAN_POINT('',(-4.0,-2.05213956538806,-18.0));
#697=DIRECTION('',(8.6301389967436E-16,0.821285417836719,-0.570517539124579));
#698=DIRECTION('',(-1.0,0.0,-1.51268600961611E-15));
#699=SURFACE_STYLE_FILL_AREA(#966);
#700=ORIENTED_EDGE('',*,*,#967,.T.);
#701=ORIENTED_EDGE('',*,*,#955,.F.);
#702=ORIENTED_EDGE('',*,*,#968,.T.);
#703=ORIENTED_EDGE('',*,*,#960,.F.);
#704=ORIENTED_EDGE('',*,*,#969,.F.);
#705=ORIENTED_EDGE('',*,*,#970,.T.);
#706=CARTESIAN_POINT('',(-0.75,-4.91021611391529E-16,-3.0));
#707=DIRECTION('',(0.0,-0.0,-1.0));
#708=DIRECTION('',(-8.67361737988403E-16,-1.0,0.0));
#709=SURFACE_STYLE_FILL_AREA(#971);
#710=ORIENTED_EDGE('',*,*,#969,.T.);
#711=ORIENTED_EDGE('',*,*,#959,.F.);
#712=ORIENTED_EDGE('',*,*,#972,.F.);
#713=ORIENTED_EDGE('',*,*,#942,.T.);
#714=ORIENTED_EDGE('',*,*,#973,.T.);
#715=CARTESIAN_POINT('',(-0.75,-1.75,-3.0));
#716=DIRECTION('',(9.21716406902344E-16,-1.0,0.0));
#717=DIRECTION('',(0.0,0.0,-1.0));
#718=SURFACE_STYLE_FILL_AREA(#974);
#719=ORIENTED_EDGE('',*,*,#972,.T.);
#720=ORIENTED_EDGE('',*,*,#958,.F.);
#721=ORIENTED_EDGE('',*,*,#975,.T.);
#722=ORIENTED_EDGE('',*,*,#949,.F.);
#723=ORIENTED_EDGE('',*,*,#976,.F.);
#724=ORIENTED_EDGE('',*,*,#943,.T.);
#725=CARTESIAN_POINT('',(0.75,5.82867087928207E-16,-3.0));
#726=DIRECTION('',(0.0,-0.0,-1.0));
#727=DIRECTION('',(-8.67361737988403E-16,-1.0,0.0));
#728=SURFACE_STYLE_FILL_AREA(#977);
#729=ORIENTED_EDGE('',*,*,#976,.T.);
#730=ORIENTED_EDGE('',*,*,#956,.F.);
#731=ORIENTED_EDGE('',*,*,#967,.F.);
#732=ORIENTED_EDGE('',*,*,#978,.T.);
#733=ORIENTED_EDGE('',*,*,#938,.T.);
#734=CARTESIAN_POINT('',(-0.75,1.75,-3.0));
#735=DIRECTION('',(-2.53150604808832E-46,1.0,4.00177481062612E-31));
#736=DIRECTION('',(0.0,4.00177481062612E-31,-1.0));
#737=SURFACE_STYLE_FILL_AREA(#979);
#738=ORIENTED_EDGE('',*,*,#945,.F.);
#739=ORIENTED_EDGE('',*,*,#980,.T.);
#740=ORIENTED_EDGE('',*,*,#947,.T.);
#741=ORIENTED_EDGE('',*,*,#981,.T.);
#742=CARTESIAN_POINT('',(0.0,0.0,-3.0));
#743=DIRECTION('',(0.0,-0.0,-1.0));
#744=DIRECTION('',(-8.88178419700125E-16,-1.0,0.0));
#745=SURFACE_STYLE_FILL_AREA(#982);
#746=ORIENTED_EDGE('',*,*,#954,.T.);
#747=ORIENTED_EDGE('',*,*,#983,.F.);
#748=ORIENTED_EDGE('',*,*,#961,.T.);
#749=ORIENTED_EDGE('',*,*,#968,.F.);
#750=CARTESIAN_POINT('',(-4.0,-2.61878192742149E-15,-16.0));
#751=DIRECTION('',(-0.0,0.0,1.0));
#752=DIRECTION('',(1.0,-0.0,0.0));
#753=SURFACE_STYLE_FILL_AREA(#984);
#754=ORIENTED_EDGE('',*,*,#950,.T.);
#755=ORIENTED_EDGE('',*,*,#975,.F.);
#756=ORIENTED_EDGE('',*,*,#965,.T.);
#757=ORIENTED_EDGE('',*,*,#985,.T.);
#758=CARTESIAN_POINT('',(-4.0,-2.61878192742149E-15,-16.0));
#759=DIRECTION('',(-0.0,0.0,1.0));
#760=DIRECTION('',(1.0,-0.0,0.0));
#761=SURFACE_STYLE_FILL_AREA(#986);
#762=ORIENTED_EDGE('',*,*,#939,.F.);
#763=ORIENTED_EDGE('',*,*,#978,.F.);
#764=ORIENTED_EDGE('',*,*,#970,.F.);
#765=ORIENTED_EDGE('',*,*,#973,.F.);
#766=ORIENTED_EDGE('',*,*,#941,.T.);
#767=ORIENTED_EDGE('',*,*,#934,.T.);
#768=CARTESIAN_POINT('',(0.0,0.0,-12.0));
#769=DIRECTION('',(-0.0,0.0,1.0));
#770=DIRECTION('',(-8.88178419700125E-16,-1.0,0.0));
#771=SURFACE_STYLE_FILL_AREA(#987);
#772=ORIENTED_EDGE('',*,*,#935,.F.);
#773=ORIENTED_EDGE('',*,*,#940,.F.);
#774=ORIENTED_EDGE('',*,*,#936,.T.);
#775=ORIENTED_EDGE('',*,*,#869,.F.);
#776=ORIENTED_EDGE('',*,*,#865,.F.);
#777=ORIENTED_EDGE('',*,*,#861,.F.);
#778=CARTESIAN_POINT('',(0.0,0.0,-12.0));
#779=DIRECTION('',(-0.0,0.0,1.0));
#780=DIRECTION('',(8.88178419700125E-16,1.0,0.0));
#781=SURFACE_STYLE_FILL_AREA(#988);
#782=ORIENTED_EDGE('',*,*,#929,.F.);
#783=ORIENTED_EDGE('',*,*,#980,.F.);
#784=ORIENTED_EDGE('',*,*,#931,.T.);
#785=ORIENTED_EDGE('',*,*,#925,.T.);
#786=CARTESIAN_POINT('',(0.0,0.0,-12.3));
#787=DIRECTION('',(-0.0,-0.0,1.0));
#788=DIRECTION('',(8.88178419700125E-16,1.0,0.0));
#789=SURFACE_STYLE_FILL_AREA(#989);
#790=ORIENTED_EDGE('',*,*,#990,.T.);
#791=ORIENTED_EDGE('',*,*,#952,.F.);
#792=ORIENTED_EDGE('',*,*,#991,.F.);
#793=ORIENTED_EDGE('',*,*,#963,.F.);
#794=ORIENTED_EDGE('',*,*,#992,.F.);
#795=ORIENTED_EDGE('',*,*,#993,.F.);
#796=ORIENTED_EDGE('',*,*,#994,.F.);
#797=ORIENTED_EDGE('',*,*,#995,.F.);
#798=CARTESIAN_POINT('',(-4.0,-2.0,-18.0));
#799=DIRECTION('',(-0.0,0.0,1.0));
#800=DIRECTION('',(1.0,-0.0,0.0));
#801=SURFACE_STYLE_FILL_AREA(#996);
#802=ORIENTED_EDGE('',*,*,#964,.F.);
#803=ORIENTED_EDGE('',*,*,#991,.T.);
#804=ORIENTED_EDGE('',*,*,#951,.T.);
#805=ORIENTED_EDGE('',*,*,#985,.F.);
#806=CARTESIAN_POINT('',(4.0,2.67494359995624E-15,-18.0));
#807=DIRECTION('',(-0.0,-0.0,-1.0));
#808=DIRECTION('',(-8.45324316744885E-16,-1.0,0.0));
#809=SURFACE_STYLE_FILL_AREA(#997);
#810=ORIENTED_EDGE('',*,*,#983,.T.);
#811=ORIENTED_EDGE('',*,*,#953,.F.);
#812=ORIENTED_EDGE('',*,*,#990,.F.);
#813=ORIENTED_EDGE('',*,*,#962,.T.);
#814=CARTESIAN_POINT('',(-4.0,-2.61878192742149E-15,-18.0));
#815=DIRECTION('',(-0.0,-0.0,-1.0));
#816=DIRECTION('',(-8.45324316744885E-16,-1.0,0.0));
#817=SURFACE_STYLE_FILL_AREA(#998);
#818=ORIENTED_EDGE('',*,*,#999,.F.);
#819=ORIENTED_EDGE('',*,*,#1000,.F.);
#820=ORIENTED_EDGE('',*,*,#993,.T.);
#821=ORIENTED_EDGE('',*,*,#1001,.T.);
#822=CARTESIAN_POINT('',(-4.0,-2.0,-18.0));
#823=DIRECTION('',(6.98374500790384E-16,0.664606669608176,-0.747193398466775));
#824=DIRECTION('',(-1.0,0.0,-9.34663638923247E-16));
#825=SURFACE_STYLE_FILL_AREA(#1002);
#826=ORIENTED_EDGE('',*,*,#1003,.T.);
#827=ORIENTED_EDGE('',*,*,#1004,.T.);
#828=ORIENTED_EDGE('',*,*,#1001,.F.);
#829=ORIENTED_EDGE('',*,*,#992,.T.);
#830=CARTESIAN_POINT('',(-4.0,-2.61878192742149E-15,-18.0));
#831=DIRECTION('',(-0.0,-0.0,-1.0));
#832=DIRECTION('',(-8.67361737988403E-16,-1.0,0.0));
#833=SURFACE_STYLE_FILL_AREA(#1005);
#834=ORIENTED_EDGE('',*,*,#1006,.F.);
#835=ORIENTED_EDGE('',*,*,#1007,.F.);
#836=ORIENTED_EDGE('',*,*,#994,.T.);
#837=ORIENTED_EDGE('',*,*,#1000,.T.);
#838=CARTESIAN_POINT('',(4.0,2.67494359995624E-15,-18.0));
#839=DIRECTION('',(-0.0,-0.0,-1.0));
#840=DIRECTION('',(-8.67361737988403E-16,-1.0,0.0));
#841=SURFACE_STYLE_FILL_AREA(#1008);
#842=ORIENTED_EDGE('',*,*,#1009,.F.);
#843=ORIENTED_EDGE('',*,*,#1003,.F.);
#844=ORIENTED_EDGE('',*,*,#995,.T.);
#845=ORIENTED_EDGE('',*,*,#1007,.T.);
#846=CARTESIAN_POINT('',(4.0,2.0,-18.0));
#847=DIRECTION('',(-6.62346101038507E-16,-0.664606669608176,-0.747193398466775));
#848=DIRECTION('',(0.0,-0.747193398466775,0.664606669608176));
#849=SURFACE_STYLE_FILL_AREA(#1010);
#850=ORIENTED_EDGE('',*,*,#1006,.T.);
#851=ORIENTED_EDGE('',*,*,#999,.T.);
#852=ORIENTED_EDGE('',*,*,#1004,.F.);
#853=ORIENTED_EDGE('',*,*,#1009,.T.);
#854=ORIENTED_EDGE('',*,*,#981,.F.);
#855=ORIENTED_EDGE('',*,*,#946,.F.);
#856=CARTESIAN_POINT('',(-4.0,-2.61878192742149E-15,-17.5));
#857=DIRECTION('',(0.0,0.0,-1.0));
#858=DIRECTION('',(0.0,-1.0,0.0));
#859=SURFACE_STYLE_FILL_AREA(#1011);
#860=FILL_AREA_STYLE('',(#1012));
#861=EDGE_CURVE('NONE',#1013,#1014,#1015,.T.);
#862=EDGE_CURVE('NONE',#1014,#1016,#1017,.T.);
#863=EDGE_CURVE('NONE',#1016,#1013,#1018,.T.);
#864=FILL_AREA_STYLE('',(#1019));
#865=EDGE_CURVE('NONE',#1014,#1020,#1021,.T.);
#866=EDGE_CURVE('NONE',#1020,#1022,#1023,.T.);
#867=EDGE_CURVE('NONE',#1022,#1014,#1024,.T.);
#868=FILL_AREA_STYLE('',(#1025));
#869=EDGE_CURVE('NONE',#1020,#1026,#1027,.T.);
#870=EDGE_CURVE('NONE',#1026,#1028,#1029,.T.);
#871=EDGE_CURVE('NONE',#1028,#1020,#1030,.T.);
#872=FILL_AREA_STYLE('',(#1031));
#873=EDGE_CURVE('NONE',#1026,#1032,#1033,.T.);
#874=EDGE_CURVE('NONE',#1032,#1034,#1035,.T.);
#875=EDGE_CURVE('NONE',#1034,#1026,#1036,.T.);
#876=FILL_AREA_STYLE('',(#1037));
#877=EDGE_CURVE('NONE',#1032,#1038,#1039,.T.);
#878=EDGE_CURVE('NONE',#1038,#1040,#1041,.T.);
#879=EDGE_CURVE('NONE',#1040,#1032,#1042,.T.);
#880=FILL_AREA_STYLE('',(#1043));
#881=EDGE_CURVE('NONE',#1038,#1013,#1044,.T.);
#882=EDGE_CURVE('NONE',#1013,#1045,#1046,.T.);
#883=EDGE_CURVE('NONE',#1045,#1038,#1047,.T.);
#884=FILL_AREA_STYLE('',(#1048));
#885=EDGE_CURVE('',#1049,#1050,#1051,.T.);
#886=EDGE_CURVE('',#1050,#1049,#1052,.T.);
#887=EDGE_CURVE('NONE',#1053,#1054,#1055,.T.);
#888=EDGE_CURVE('NONE',#1054,#1053,#1056,.T.);
#889=FILL_AREA_STYLE('',(#1057));
#890=EDGE_CURVE('NONE',#1058,#1059,#1060,.T.);
#891=EDGE_CURVE('NONE',#1058,#1054,#1061,.T.);
#892=EDGE_CURVE('NONE',#1059,#1053,#1062,.T.);
#893=FILL_AREA_STYLE('',(#1063));
#894=EDGE_CURVE('NONE',#1064,#1065,#1066,.T.);
#895=EDGE_CURVE('NONE',#1065,#1067,#1068,.T.);
#896=EDGE_CURVE('NONE',#1069,#1067,#1070,.T.);
#897=EDGE_CURVE('NONE',#1064,#1069,#1071,.T.);
#898=FILL_AREA_STYLE('',(#1072));
#899=EDGE_CURVE('NONE',#1059,#1058,#1073,.T.);
#900=FILL_AREA_STYLE('',(#1074));
#901=EDGE_CURVE('NONE',#1067,#1069,#1075,.T.);
#902=FILL_AREA_STYLE('',(#1076));
#903=EDGE_CURVE('NONE',#1065,#1064,#1077,.T.);
#904=FILL_AREA_STYLE('',(#1078));
#905=EDGE_CURVE('NONE',#1079,#1080,#1081,.T.);
#906=EDGE_CURVE('NONE',#1080,#1082,#1083,.T.);
#907=EDGE_CURVE('NONE',#1082,#1084,#1085,.T.);
#908=EDGE_CURVE('NONE',#1084,#1086,#1087,.T.);
#909=EDGE_CURVE('NONE',#1086,#1088,#1089,.T.);
#910=EDGE_CURVE('NONE',#1088,#1079,#1090,.T.);
#911=FILL_AREA_STYLE('',(#1091));
#912=EDGE_CURVE('NONE',#1034,#1082,#1092,.T.);
#913=EDGE_CURVE('NONE',#1028,#1080,#1093,.T.);
#914=FILL_AREA_STYLE('',(#1094));
#915=EDGE_CURVE('NONE',#1079,#1022,#1095,.T.);
#916=FILL_AREA_STYLE('',(#1096));
#917=EDGE_CURVE('NONE',#1088,#1016,#1097,.T.);
#918=FILL_AREA_STYLE('',(#1098));
#919=EDGE_CURVE('NONE',#1086,#1045,#1099,.T.);
#920=FILL_AREA_STYLE('',(#1100));
#921=EDGE_CURVE('NONE',#1084,#1040,#1101,.T.);
#922=FILL_AREA_STYLE('',(#1102));
#923=FILL_AREA_STYLE('',(#1103));
#924=EDGE_CURVE('NONE',#1104,#1049,#1105,.T.);
#925=EDGE_CURVE('NONE',#1106,#1104,#1107,.T.);
#926=EDGE_CURVE('NONE',#1106,#1050,#1108,.T.);
#927=FILL_AREA_STYLE('',(#1109));
#928=EDGE_CURVE('NONE',#1110,#1111,#1112,.T.);
#929=EDGE_CURVE('NONE',#1110,#1104,#1113,.T.);
#930=EDGE_CURVE('NONE',#1104,#1106,#1114,.T.);
#931=EDGE_CURVE('NONE',#1111,#1106,#1115,.T.);
#932=FILL_AREA_STYLE('',(#1116));
#933=FILL_AREA_STYLE('',(#1117));
#934=EDGE_CURVE('NONE',#1118,#1119,#1120,.T.);
#935=EDGE_CURVE('NONE',#1118,#1013,#1121,.T.);
#936=EDGE_CURVE('NONE',#1119,#1026,#1122,.T.);
#937=FILL_AREA_STYLE('',(#1123));
#938=EDGE_CURVE('NONE',#1124,#1125,#1126,.T.);
#939=EDGE_CURVE('NONE',#1124,#1119,#1127,.T.);
#940=EDGE_CURVE('NONE',#1119,#1118,#1128,.T.);
#941=EDGE_CURVE('NONE',#1129,#1118,#1130,.T.);
#942=EDGE_CURVE('NONE',#1131,#1129,#1132,.T.);
#943=EDGE_CURVE('NONE',#1125,#1131,#1133,.T.);
#944=FILL_AREA_STYLE('',(#1134));
#945=EDGE_CURVE('NONE',#1111,#1135,#1136,.T.);
#946=EDGE_CURVE('NONE',#1135,#1137,#1138,.T.);
#947=EDGE_CURVE('NONE',#1110,#1137,#1139,.T.);
#948=FILL_AREA_STYLE('',(#1140));
#949=EDGE_CURVE('NONE',#1141,#1142,#1143,.T.);
#950=EDGE_CURVE('NONE',#1144,#1142,#1145,.T.);
#951=EDGE_CURVE('NONE',#1146,#1144,#1147,.T.);
#952=EDGE_CURVE('NONE',#1146,#1148,#1149,.T.);
#953=EDGE_CURVE('NONE',#1148,#1150,#1151,.T.);
#954=EDGE_CURVE('NONE',#1152,#1150,#1153,.T.);
#955=EDGE_CURVE('NONE',#1152,#1154,#1155,.T.);
#956=EDGE_CURVE('NONE',#1154,#1141,#1156,.T.);
#957=FILL_AREA_STYLE('',(#1157));
#958=EDGE_CURVE('NONE',#1158,#1159,#1160,.T.);
#959=EDGE_CURVE('NONE',#1159,#1161,#1162,.T.);
#960=EDGE_CURVE('NONE',#1161,#1163,#1164,.T.);
#961=EDGE_CURVE('NONE',#1165,#1163,#1166,.T.);
#962=EDGE_CURVE('NONE',#1167,#1165,#1168,.T.);
#963=EDGE_CURVE('NONE',#1167,#1169,#1170,.T.);
#964=EDGE_CURVE('NONE',#1169,#1171,#1172,.T.);
#965=EDGE_CURVE('NONE',#1158,#1171,#1173,.T.);
#966=FILL_AREA_STYLE('',(#1174));
#967=EDGE_CURVE('NONE',#1175,#1154,#1176,.T.);
#968=EDGE_CURVE('NONE',#1152,#1163,#1177,.T.);
#969=EDGE_CURVE('NONE',#1178,#1161,#1179,.T.);
#970=EDGE_CURVE('NONE',#1178,#1175,#1180,.T.);
#971=FILL_AREA_STYLE('',(#1181));
#972=EDGE_CURVE('NONE',#1131,#1159,#1182,.T.);
#973=EDGE_CURVE('NONE',#1129,#1178,#1183,.T.);
#974=FILL_AREA_STYLE('',(#1184));
#975=EDGE_CURVE('NONE',#1158,#1142,#1185,.T.);
#976=EDGE_CURVE('NONE',#1125,#1141,#1186,.T.);
#977=FILL_AREA_STYLE('',(#1187));
#978=EDGE_CURVE('NONE',#1175,#1124,#1188,.T.);
#979=FILL_AREA_STYLE('',(#1189));
#980=EDGE_CURVE('NONE',#1111,#1110,#1190,.T.);
#981=EDGE_CURVE('NONE',#1137,#1135,#1191,.T.);
#982=FILL_AREA_STYLE('',(#1192));
#983=EDGE_CURVE('NONE',#1165,#1150,#1193,.T.);
#984=FILL_AREA_STYLE('',(#1194));
#985=EDGE_CURVE('NONE',#1171,#1144,#1195,.T.);
#986=FILL_AREA_STYLE('',(#1196));
#987=FILL_AREA_STYLE('',(#1197));
#988=FILL_AREA_STYLE('',(#1198));
#989=FILL_AREA_STYLE('',(#1199));
#990=EDGE_CURVE('NONE',#1167,#1148,#1200,.T.);
#991=EDGE_CURVE('NONE',#1169,#1146,#1201,.T.);
#992=EDGE_CURVE('NONE',#1202,#1203,#1204,.T.);
#993=EDGE_CURVE('NONE',#1205,#1202,#1206,.T.);
#994=EDGE_CURVE('NONE',#1207,#1205,#1208,.T.);
#995=EDGE_CURVE('NONE',#1203,#1207,#1209,.T.);
#996=FILL_AREA_STYLE('',(#1210));
#997=FILL_AREA_STYLE('',(#1211));
#998=FILL_AREA_STYLE('',(#1212));
#999=EDGE_CURVE('NONE',#1213,#1214,#1215,.T.);
#1000=EDGE_CURVE('NONE',#1205,#1213,#1216,.T.);
#1001=EDGE_CURVE('NONE',#1202,#1214,#1217,.T.);
#1002=FILL_AREA_STYLE('',(#1218));
#1003=EDGE_CURVE('NONE',#1203,#1219,#1220,.T.);
#1004=EDGE_CURVE('NONE',#1219,#1214,#1221,.T.);
#1005=FILL_AREA_STYLE('',(#1222));
#1006=EDGE_CURVE('NONE',#1223,#1213,#1224,.T.);
#1007=EDGE_CURVE('NONE',#1207,#1223,#1225,.T.);
#1008=FILL_AREA_STYLE('',(#1226));
#1009=EDGE_CURVE('NONE',#1219,#1223,#1227,.T.);
#1010=FILL_AREA_STYLE('',(#1228));
#1011=FILL_AREA_STYLE('',(#1229));
#1012=FILL_AREA_STYLE_COLOUR('',#1230);
#1013=VERTEX_POINT('NONE',#1231);
#1014=VERTEX_POINT('',#1232);
#1015=CIRCLE('',#1233,4.0);
#1016=VERTEX_POINT('NONE',#1234);
#1017=LINE('',#1235,#1236);
#1018=LINE('',#1237,#1238);
#1019=FILL_AREA_STYLE_COLOUR('',#1239);
#1020=VERTEX_POINT('',#1240);
#1021=CIRCLE('',#1241,4.0);
#1022=VERTEX_POINT('NONE',#1242);
#1023=LINE('',#1243,#1244);
#1024=LINE('',#1245,#1246);
#1025=FILL_AREA_STYLE_COLOUR('',#1247);
#1026=VERTEX_POINT('NONE',#1248);
#1027=CIRCLE('',#1249,4.0);
#1028=VERTEX_POINT('NONE',#1250);
#1029=LINE('',#1251,#1252);
#1030=LINE('',#1253,#1254);
#1031=FILL_AREA_STYLE_COLOUR('',#1255);
#1032=VERTEX_POINT('',#1256);
#1033=CIRCLE('',#1257,4.0);
#1034=VERTEX_POINT('NONE',#1258);
#1035=LINE('',#1259,#1260);
#1036=LINE('',#1261,#1262);
#1037=FILL_AREA_STYLE_COLOUR('',#1263);
#1038=VERTEX_POINT('',#1264);
#1039=CIRCLE('',#1265,4.0);
#1040=VERTEX_POINT('NONE',#1266);
#1041=LINE('',#1267,#1268);
#1042=LINE('',#1269,#1270);
#1043=FILL_AREA_STYLE_COLOUR('',#1271);
#1044=CIRCLE('',#1272,4.0);
#1045=VERTEX_POINT('NONE',#1273);
#1046=LINE('',#1274,#1275);
#1047=LINE('',#1276,#1277);
#1048=FILL_AREA_STYLE_COLOUR('',#1278);
#1049=VERTEX_POINT('',#1279);
#1050=VERTEX_POINT('',#1280);
#1051=CIRCLE('',#1281,2.1);
#1052=CIRCLE('',#1282,2.1);
#1053=VERTEX_POINT('NONE',#1283);
#1054=VERTEX_POINT('NONE',#1284);
#1055=CIRCLE('',#1285,0.9);
#1056=CIRCLE('',#1286,0.9);
#1057=FILL_AREA_STYLE_COLOUR('',#1287);
#1058=VERTEX_POINT('NONE',#1288);
#1059=VERTEX_POINT('NONE',#1289);
#1060=CIRCLE('',#1290,0.9);
#1061=LINE('',#1291,#1292);
#1062=LINE('',#1293,#1294);
#1063=FILL_AREA_STYLE_COLOUR('',#1295);
#1064=VERTEX_POINT('NONE',#1296);
#1065=VERTEX_POINT('NONE',#1297);
#1066=CIRCLE('',#1298,2.5);
#1067=VERTEX_POINT('NONE',#1299);
#1068=LINE('',#1300,#1301);
#1069=VERTEX_POINT('NONE',#1302);
#1070=CIRCLE('',#1303,2.49999999999772);
#1071=LINE('',#1304,#1305);
#1072=FILL_AREA_STYLE_COLOUR('',#1306);
#1073=CIRCLE('',#1307,0.9);
#1074=FILL_AREA_STYLE_COLOUR('',#1308);
#1075=CIRCLE('',#1309,2.49999999999772);
#1076=FILL_AREA_STYLE_COLOUR('',#1310);
#1077=CIRCLE('',#1311,2.5);
#1078=FILL_AREA_STYLE_COLOUR('',#1312);
#1079=VERTEX_POINT('NONE',#1313);
#1080=VERTEX_POINT('NONE',#1314);
#1081=LINE('',#1315,#1316);
#1082=VERTEX_POINT('NONE',#1317);
#1083=LINE('',#1318,#1319);
#1084=VERTEX_POINT('NONE',#1320);
#1085=LINE('',#1321,#1322);
#1086=VERTEX_POINT('NONE',#1323);
#1087=LINE('',#1324,#1325);
#1088=VERTEX_POINT('NONE',#1326);
#1089=LINE('',#1327,#1328);
#1090=LINE('',#1329,#1330);
#1091=FILL_AREA_STYLE_COLOUR('',#1331);
#1092=LINE('',#1332,#1333);
#1093=LINE('',#1334,#1335);
#1094=FILL_AREA_STYLE_COLOUR('',#1336);
#1095=LINE('',#1337,#1338);
#1096=FILL_AREA_STYLE_COLOUR('',#1339);
#1097=LINE('',#1340,#1341);
#1098=FILL_AREA_STYLE_COLOUR('',#1342);
#1099=LINE('',#1343,#1344);
#1100=FILL_AREA_STYLE_COLOUR('',#1345);
#1101=LINE('',#1346,#1347);
#1102=FILL_AREA_STYLE_COLOUR('',#1348);
#1103=FILL_AREA_STYLE_COLOUR('',#1349);
#1104=VERTEX_POINT('NONE',#1350);
#1105=LINE('',#1351,#1352);
#1106=VERTEX_POINT('NONE',#1353);
#1107=CIRCLE('',#1354,2.1);
#1108=LINE('',#1355,#1356);
#1109=FILL_AREA_STYLE_COLOUR('',#1357);
#1110=VERTEX_POINT('NONE',#1358);
#1111=VERTEX_POINT('NONE',#1359);
#1112=CIRCLE('',#1360,0.75);
#1113=LINE('',#1361,#1362);
#1114=CIRCLE('',#1363,2.1);
#1115=LINE('',#1364,#1365);
#1116=FILL_AREA_STYLE_COLOUR('',#1366);
#1117=FILL_AREA_STYLE_COLOUR('',#1367);
#1118=VERTEX_POINT('NONE',#1368);
#1119=VERTEX_POINT('NONE',#1369);
#1120=CIRCLE('',#1370,4.0);
#1121=LINE('',#1371,#1372);
#1122=LINE('',#1373,#1374);
#1123=FILL_AREA_STYLE_COLOUR('',#1375);
#1124=VERTEX_POINT('NONE',#1376);
#1125=VERTEX_POINT('NONE',#1377);
#1126=B_SPLINE_CURVE_WITH_KNOTS('',3,(#1378,#1379,#1380,#1381),.UNSPECIFIED.,.F.,.F.,(4,4),(0.00226452607147928,0.00302772259154737),.UNSPECIFIED.);
#1127=LINE('',#1382,#1383);
#1128=CIRCLE('',#1384,4.0);
#1129=VERTEX_POINT('NONE',#1385);
#1130=LINE('',#1386,#1387);
#1131=VERTEX_POINT('NONE',#1388);
#1132=B_SPLINE_CURVE_WITH_KNOTS('',3,(#1389,#1390,#1391,#1392),.UNSPECIFIED.,.F.,.F.,(4,4),(0.00437041373483014,0.00513165642684375),.UNSPECIFIED.);
#1133=B_SPLINE_CURVE_WITH_KNOTS('',3,(#1393,#1394,#1395,#1396,#1397,#1398,#1399,#1400,#1401,#1402,#1403,#1404,#1405,#1406,#1407,#1408,#1409,#1410,#1411,#1412,#1413,#1414,#1415,#1416,#1417,#1418,#1419,#1420),.UNSPECIFIED.,.F.,.F.,(4,2,2,2,2,2,2,2,2,2,2,2,2,4),(2.12765919231159E-07,0.000353177140150031,0.00070614151438083,0.00105910588861163,0.00141207026284243,0.00176503463707323,0.00211799901130403,0.00282392775976562,0.00317689213399642,0.00352985650822722,0.00423578525668882,0.00458874963091962,0.00494171400515042,0.00564764275361202),.UNSPECIFIED.);
#1134=FILL_AREA_STYLE_COLOUR('',#1421);
#1135=VERTEX_POINT('NONE',#1422);
#1136=LINE('',#1423,#1424);
#1137=VERTEX_POINT('NONE',#1425);
#1138=CIRCLE('',#1426,0.75);
#1139=LINE('',#1427,#1428);
#1140=FILL_AREA_STYLE_COLOUR('',#1429);
#1141=VERTEX_POINT('NONE',#1430);
#1142=VERTEX_POINT('NONE',#1431);
#1143=(B_SPLINE_CURVE(3,(#1433,#1434,#1435,#1436),.UNSPECIFIED.,.F.,.F.)B_SPLINE_CURVE_WITH_KNOTS((4,4),(3.14159265358979,4.32394444642328),.UNSPECIFIED.)RATIONAL_B_SPLINE_CURVE((1.0,0.886857254555631,0.886857254555631,1.0))BOUNDED_CURVE()REPRESENTATION_ITEM('')GEOMETRIC_REPRESENTATION_ITEM()CURVE());
#1144=VERTEX_POINT('NONE',#1443);
#1145=LINE('',#1444,#1445);
#1146=VERTEX_POINT('NONE',#1446);
#1147=LINE('',#1447,#1448);
#1148=VERTEX_POINT('NONE',#1449);
#1149=LINE('',#1450,#1451);
#1150=VERTEX_POINT('NONE',#1452);
#1151=LINE('',#1453,#1454);
#1152=VERTEX_POINT('NONE',#1455);
#1153=LINE('',#1456,#1457);
#1154=VERTEX_POINT('NONE',#1458);
#1155=(B_SPLINE_CURVE(3,(#1460,#1461,#1462,#1463),.UNSPECIFIED.,.F.,.F.)B_SPLINE_CURVE_WITH_KNOTS((4,4),(1.9592408607563,3.14159265358979),.UNSPECIFIED.)RATIONAL_B_SPLINE_CURVE((1.0,0.886857254555631,0.886857254555631,1.0))BOUNDED_CURVE()REPRESENTATION_ITEM('')GEOMETRIC_REPRESENTATION_ITEM()CURVE());
#1156=LINE('',#1470,#1471);
#1157=FILL_AREA_STYLE_COLOUR('',#1472);
#1158=VERTEX_POINT('NONE',#1473);
#1159=VERTEX_POINT('NONE',#1474);
#1160=(B_SPLINE_CURVE(3,(#1476,#1477,#1478,#1479),.UNSPECIFIED.,.F.,.F.)B_SPLINE_CURVE_WITH_KNOTS((4,4),(1.9592408607563,3.14159265358979),.UNSPECIFIED.)RATIONAL_B_SPLINE_CURVE((1.0,0.886857254555631,0.886857254555631,1.0))BOUNDED_CURVE()REPRESENTATION_ITEM('')GEOMETRIC_REPRESENTATION_ITEM()CURVE());
#1161=VERTEX_POINT('NONE',#1486);
#1162=LINE('',#1487,#1488);
#1163=VERTEX_POINT('NONE',#1489);
#1164=(B_SPLINE_CURVE(3,(#1491,#1492,#1493,#1494),.UNSPECIFIED.,.F.,.F.)B_SPLINE_CURVE_WITH_KNOTS((4,4),(3.14159265358979,4.32394444642328),.UNSPECIFIED.)RATIONAL_B_SPLINE_CURVE((1.0,0.886857254555631,0.886857254555631,1.0))BOUNDED_CURVE()REPRESENTATION_ITEM('')GEOMETRIC_REPRESENTATION_ITEM()CURVE());
#1165=VERTEX_POINT('NONE',#1501);
#1166=LINE('',#1502,#1503);
#1167=VERTEX_POINT('NONE',#1504);
#1168=LINE('',#1505,#1506);
#1169=VERTEX_POINT('NONE',#1507);
#1170=LINE('',#1508,#1509);
#1171=VERTEX_POINT('NONE',#1510);
#1172=LINE('',#1511,#1512);
#1173=LINE('',#1513,#1514);
#1174=FILL_AREA_STYLE_COLOUR('',#1515);
#1175=VERTEX_POINT('NONE',#1516);
#1176=LINE('',#1517,#1518);
#1177=CIRCLE('',#1519,1.75);
#1178=VERTEX_POINT('NONE',#1520);
#1179=LINE('',#1521,#1522);
#1180=B_SPLINE_CURVE_WITH_KNOTS('',3,(#1523,#1524,#1525,#1526,#1527,#1528,#1529,#1530,#1531,#1532,#1533,#1534,#1535,#1536,#1537,#1538,#1539,#1540,#1541,#1542,#1543,#1544,#1545,#1546,#1547,#1548,#1549,#1550),.UNSPECIFIED.,.F.,.F.,(4,2,2,2,2,2,2,2,2,2,2,2,2,4),(2.12765919231159E-07,0.000353177140150031,0.000706141514380831,0.00105910588861163,0.00141207026284243,0.00176503463707323,0.00211799901130403,0.00282392775976562,0.00317689213399642,0.00352985650822722,0.00423578525668882,0.00458874963091962,0.00494171400515042,0.00564764275361201),.UNSPECIFIED.);
#1181=FILL_AREA_STYLE_COLOUR('',#1551);
#1182=LINE('',#1552,#1553);
#1183=B_SPLINE_CURVE_WITH_KNOTS('',3,(#1554,#1555,#1556,#1557,#1558,#1559),.UNSPECIFIED.,.F.,.F.,(4,2,4),(0.00513165642684375,0.00551111884274809,0.00589058125865243),.UNSPECIFIED.);
#1184=FILL_AREA_STYLE_COLOUR('',#1560);
#1185=CIRCLE('',#1561,1.75);
#1186=LINE('',#1562,#1563);
#1187=FILL_AREA_STYLE_COLOUR('',#1564);
#1188=B_SPLINE_CURVE_WITH_KNOTS('',3,(#1565,#1566,#1567,#1568,#1569,#1570),.UNSPECIFIED.,.F.,.F.,(4,2,4),(0.00150365336070482,0.00188408971609205,0.00226452607147928),.UNSPECIFIED.);
#1189=FILL_AREA_STYLE_COLOUR('',#1571);
#1190=CIRCLE('',#1572,0.75);
#1191=CIRCLE('',#1573,0.75);
#1192=FILL_AREA_STYLE_COLOUR('',#1574);
#1193=CIRCLE('',#1575,0.662811259456773);
#1194=FILL_AREA_STYLE_COLOUR('',#1576);
#1195=CIRCLE('',#1577,0.662811259456773);
#1196=FILL_AREA_STYLE_COLOUR('',#1578);
#1197=FILL_AREA_STYLE_COLOUR('',#1579);
#1198=FILL_AREA_STYLE_COLOUR('',#1580);
#1199=FILL_AREA_STYLE_COLOUR('',#1581);
#1200=CIRCLE('',#1582,2.05213956538806);
#1201=CIRCLE('',#1583,2.05213956538806);
#1202=VERTEX_POINT('NONE',#1584);
#1203=VERTEX_POINT('NONE',#1585);
#1204=CIRCLE('',#1586,2.0);
#1205=VERTEX_POINT('NONE',#1587);
#1206=LINE('',#1588,#1589);
#1207=VERTEX_POINT('NONE',#1590);
#1208=CIRCLE('',#1591,2.0);
#1209=LINE('',#1592,#1593);
#1210=FILL_AREA_STYLE_COLOUR('',#1594);
#1211=FILL_AREA_STYLE_COLOUR('',#1595);
#1212=FILL_AREA_STYLE_COLOUR('',#1596);
#1213=VERTEX_POINT('NONE',#1597);
#1214=VERTEX_POINT('NONE',#1598);
#1215=LINE('',#1599,#1600);
#1216=LINE('',#1601,#1602);
#1217=LINE('',#1603,#1604);
#1218=FILL_AREA_STYLE_COLOUR('',#1605);
#1219=VERTEX_POINT('NONE',#1606);
#1220=LINE('',#1607,#1608);
#1221=CIRCLE('',#1609,1.43786796564403);
#1222=FILL_AREA_STYLE_COLOUR('',#1610);
#1223=VERTEX_POINT('NONE',#1611);
#1224=CIRCLE('',#1612,1.43786796564403);
#1225=LINE('',#1613,#1614);
#1226=FILL_AREA_STYLE_COLOUR('',#1615);
#1227=LINE('',#1616,#1617);
#1228=FILL_AREA_STYLE_COLOUR('',#1618);
#1229=FILL_AREA_STYLE_COLOUR('',#1619);
#1230=COLOUR_RGB('',0.509803950786591,0.509803950786591,0.588235318660736);
#1231=CARTESIAN_POINT('',(-4.04257239845944E-15,-4.0,-3.0));
#1232=CARTESIAN_POINT('',(3.46410163229155,-2.00000000990375,-3.0));
#1233=AXIS2_PLACEMENT_3D('',#1620,#1621,#1622);
#1234=CARTESIAN_POINT('',(2.30940108819437,-4.0000000198075,-3.0));
#1235=CARTESIAN_POINT('',(2.30940108819437,-4.0000000198075,-3.0));
#1236=VECTOR('',#1623,1000.0);
#1237=CARTESIAN_POINT('',(-2.30940108819437,-4.0000000198075,-3.0));
#1238=VECTOR('',#1624,1000.0);
#1239=COLOUR_RGB('',0.509803950786591,0.509803950786591,0.588235318660736);
#1240=CARTESIAN_POINT('',(3.46410163229156,2.00000000990375,-3.0));
#1241=AXIS2_PLACEMENT_3D('',#1625,#1626,#1627);
#1242=CARTESIAN_POINT('',(4.61880217638874,1.7347234759768E-15,-3.0));
#1243=CARTESIAN_POINT('',(4.61880217638874,1.7347234759768E-15,-3.0));
#1244=VECTOR('',#1628,1000.0);
#1245=CARTESIAN_POINT('',(2.30940108819437,-4.0000000198075,-3.0));
#1246=VECTOR('',#1629,1000.0);
#1247=COLOUR_RGB('',0.509803950786591,0.509803950786591,0.588235318660736);
#1248=CARTESIAN_POINT('',(3.5527136788005E-15,4.0,-3.0));
#1249=AXIS2_PLACEMENT_3D('',#1630,#1631,#1632);
#1250=CARTESIAN_POINT('',(2.30940108819437,4.0000000198075,-3.0));
#1251=CARTESIAN_POINT('',(2.30940108819437,4.0000000198075,-3.0));
#1252=VECTOR('',#1633,1000.0);
#1253=CARTESIAN_POINT('',(4.61880217638874,1.7347234759768E-15,-3.0));
#1254=VECTOR('',#1634,1000.0);
#1255=COLOUR_RGB('',0.509803950786591,0.509803950786591,0.588235318660736);
#1256=CARTESIAN_POINT('',(-3.46410163229155,2.00000000990375,-3.0));
#1257=AXIS2_PLACEMENT_3D('',#1635,#1636,#1637);
#1258=CARTESIAN_POINT('',(-2.30940108819437,4.0000000198075,-3.0));
#1259=CARTESIAN_POINT('',(-2.30940108819437,4.0000000198075,-3.0));
#1260=VECTOR('',#1638,1000.0);
#1261=CARTESIAN_POINT('',(2.30940108819437,4.0000000198075,-3.0));
#1262=VECTOR('',#1639,1000.0);
#1263=COLOUR_RGB('',0.509803950786591,0.509803950786591,0.588235318660736);
#1264=CARTESIAN_POINT('',(-3.46410163229156,-2.00000000990375,-3.0));
#1265=AXIS2_PLACEMENT_3D('',#1640,#1641,#1642);
#1266=CARTESIAN_POINT('',(-4.61880217638874,-8.67361737988404E-16,-3.0));
#1267=CARTESIAN_POINT('',(-4.61880217638874,-8.67361737988404E-16,-3.0));
#1268=VECTOR('',#1643,1000.0);
#1269=CARTESIAN_POINT('',(-2.30940108819437,4.0000000198075,-3.0));
#1270=VECTOR('',#1644,1000.0);
#1271=COLOUR_RGB('',0.509803950786591,0.509803950786591,0.588235318660736);
#1272=AXIS2_PLACEMENT_3D('',#1645,#1646,#1647);
#1273=CARTESIAN_POINT('',(-2.30940108819437,-4.0000000198075,-3.0));
#1274=CARTESIAN_POINT('',(-2.30940108819437,-4.0000000198075,-3.0));
#1275=VECTOR('',#1648,1000.0);
#1276=CARTESIAN_POINT('',(-4.61880217638874,-8.67361737988404E-16,-3.0));
#1277=VECTOR('',#1649,1000.0);
#1278=COLOUR_RGB('',0.509803950786591,0.509803950786591,0.588235318660736);
#1279=CARTESIAN_POINT('',(-2.12235050919121E-15,-2.1,-10.5));
#1280=CARTESIAN_POINT('',(1.86517468137026E-15,2.1,-10.5));
#1281=AXIS2_PLACEMENT_3D('',#1650,#1651,#1652);
#1282=AXIS2_PLACEMENT_3D('',#1653,#1654,#1655);
#1283=CARTESIAN_POINT('',(-0.9,0.0,-10.5));
#1284=CARTESIAN_POINT('',(0.9,1.10218211923262E-16,-10.5));
#1285=AXIS2_PLACEMENT_3D('',#1656,#1657,#1658);
#1286=AXIS2_PLACEMENT_3D('',#1659,#1660,#1661);
#1287=COLOUR_RGB('',0.509803950786591,0.509803950786591,0.588235318660736);
#1288=CARTESIAN_POINT('',(0.9,1.10218211923262E-16,4.5));
#1289=CARTESIAN_POINT('',(-0.9,0.0,4.5));
#1290=AXIS2_PLACEMENT_3D('',#1662,#1663,#1664);
#1291=CARTESIAN_POINT('',(0.9,1.10218211923262E-16,-3.0));
#1292=VECTOR('',#1665,1000.0);
#1293=CARTESIAN_POINT('',(-0.9,0.0,-3.0));
#1294=VECTOR('',#1666,1000.0);
#1295=COLOUR_RGB('',0.509803950786591,0.509803950786591,0.588235318660736);
#1296=CARTESIAN_POINT('',(2.5,0.0,0.0));
#1297=CARTESIAN_POINT('',(-2.5,3.06161699786838E-16,0.0));
#1298=AXIS2_PLACEMENT_3D('',#1667,#1668,#1669);
#1299=CARTESIAN_POINT('',(-2.49999999999772,3.06161699786699E-16,4.5));
#1300=CARTESIAN_POINT('',(-2.5,3.06161699786838E-16,2.25));
#1301=VECTOR('',#1670,1000.0);
#1302=CARTESIAN_POINT('',(2.49999999999772,0.0,4.5));
#1303=AXIS2_PLACEMENT_3D('',#1671,#1672,#1673);
#1304=CARTESIAN_POINT('',(2.5,0.0,2.25));
#1305=VECTOR('',#1674,1000.0);
#1306=COLOUR_RGB('',0.509803950786591,0.509803950786591,0.588235318660736);
#1307=AXIS2_PLACEMENT_3D('',#1675,#1676,#1677);
#1308=COLOUR_RGB('',0.509803950786591,0.509803950786591,0.588235318660736);
#1309=AXIS2_PLACEMENT_3D('',#1678,#1679,#1680);
#1310=COLOUR_RGB('',0.509803950786591,0.509803950786591,0.588235318660736);
#1311=AXIS2_PLACEMENT_3D('',#1681,#1682,#1683);
#1312=COLOUR_RGB('',0.509803950786591,0.509803950786591,0.588235318660736);
#1313=CARTESIAN_POINT('',(4.61880217638874,1.7347234759768E-15,0.0));
#1314=CARTESIAN_POINT('',(2.30940108819437,4.0000000198075,0.0));
#1315=CARTESIAN_POINT('',(4.61880217638874,1.7347234759768E-15,0.0));
#1316=VECTOR('',#1684,1000.0);
#1317=CARTESIAN_POINT('',(-2.30940108819437,4.0000000198075,0.0));
#1318=CARTESIAN_POINT('',(2.30940108819437,4.0000000198075,0.0));
#1319=VECTOR('',#1685,1000.0);
#1320=CARTESIAN_POINT('',(-4.61880217638874,-8.67361737988404E-16,0.0));
#1321=CARTESIAN_POINT('',(-2.30940108819437,4.0000000198075,0.0));
#1322=VECTOR('',#1686,1000.0);
#1323=CARTESIAN_POINT('',(-2.30940108819437,-4.0000000198075,0.0));
#1324=CARTESIAN_POINT('',(-4.61880217638874,-8.67361737988404E-16,0.0));
#1325=VECTOR('',#1687,1000.0);
#1326=CARTESIAN_POINT('',(2.30940108819437,-4.0000000198075,0.0));
#1327=CARTESIAN_POINT('',(-2.30940108819437,-4.0000000198075,0.0));
#1328=VECTOR('',#1688,1000.0);
#1329=CARTESIAN_POINT('',(2.30940108819437,-4.0000000198075,0.0));
#1330=VECTOR('',#1689,1000.0);
#1331=COLOUR_RGB('',0.509803950786591,0.509803950786591,0.588235318660736);
#1332=CARTESIAN_POINT('',(-2.3094010767585,4.0,-3.0));
#1333=VECTOR('',#1690,1000.0);
#1334=CARTESIAN_POINT('',(2.3094010767585,4.0,-3.0));
#1335=VECTOR('',#1691,1000.0);
#1336=COLOUR_RGB('',0.509803950786591,0.509803950786591,0.588235318660736);
#1337=CARTESIAN_POINT('',(4.61880215351701,0.0,-3.0));
#1338=VECTOR('',#1692,1000.0);
#1339=COLOUR_RGB('',0.509803950786591,0.509803950786591,0.588235318660736);
#1340=CARTESIAN_POINT('',(2.3094010767585,-4.0,-3.0));
#1341=VECTOR('',#1693,1000.0);
#1342=COLOUR_RGB('',0.509803950786591,0.509803950786591,0.588235318660736);
#1343=CARTESIAN_POINT('',(-2.3094010767585,-4.0,-3.0));
#1344=VECTOR('',#1694,1000.0);
#1345=COLOUR_RGB('',0.509803950786591,0.509803950786591,0.588235318660736);
#1346=CARTESIAN_POINT('',(-4.61880215351701,0.0,-3.0));
#1347=VECTOR('',#1695,1000.0);
#1348=COLOUR_RGB('',0.509803950786591,0.509803950786591,0.588235318660736);
#1349=COLOUR_RGB('',0.509803950786591,0.509803950786591,0.588235318660736);
#1350=CARTESIAN_POINT('',(-2.12235050919121E-15,-2.1,-12.3));
#1351=CARTESIAN_POINT('',(-2.12235050919121E-15,-2.1,-12.3));
#1352=VECTOR('',#1696,1000.0);
#1353=CARTESIAN_POINT('',(1.86517468137026E-15,2.1,-12.3));
#1354=AXIS2_PLACEMENT_3D('',#1697,#1698,#1699);
#1355=CARTESIAN_POINT('',(1.86517468137026E-15,2.1,-12.3));
#1356=VECTOR('',#1700,1000.0);
#1357=COLOUR_RGB('',0.509803950786591,0.509803950786591,0.588235318660736);
#1358=CARTESIAN_POINT('',(-6.66133814775094E-16,-0.75,-13.65));
#1359=CARTESIAN_POINT('',(5.74285304839042E-16,0.75,-13.65));
#1360=AXIS2_PLACEMENT_3D('',#1701,#1702,#1703);
#1361=CARTESIAN_POINT('',(-2.12235050919121E-15,-2.1,-12.3));
#1362=VECTOR('',#1704,1000.0);
#1363=AXIS2_PLACEMENT_3D('',#1705,#1706,#1707);
#1364=CARTESIAN_POINT('',(1.86517468137026E-15,2.1,-12.3));
#1365=VECTOR('',#1708,1000.0);
#1366=COLOUR_RGB('',0.509803950786591,0.509803950786591,0.588235318660736);
#1367=COLOUR_RGB('',0.509803950786591,0.509803950786591,0.588235318660736);
#1368=CARTESIAN_POINT('',(-3.5527136788005E-15,-4.0,-12.0));
#1369=CARTESIAN_POINT('',(4.04257239845944E-15,4.0,-12.0));
#1370=AXIS2_PLACEMENT_3D('',#1709,#1710,#1711);
#1371=CARTESIAN_POINT('',(-4.04257239845944E-15,-4.0,-12.0));
#1372=VECTOR('',#1712,1000.0);
#1373=CARTESIAN_POINT('',(3.5527136788005E-15,4.0,-12.0));
#1374=VECTOR('',#1713,1000.0);
#1375=COLOUR_RGB('',0.509803950786591,0.509803950786591,0.588235318660736);
#1376=CARTESIAN_POINT('',(1.44023438245783E-15,1.75,-14.25));
#1377=CARTESIAN_POINT('',(0.75,1.75,-14.096056723534));
#1378=CARTESIAN_POINT('',(1.44023438245783E-15,1.75,-14.25));
#1379=CARTESIAN_POINT('',(0.258005668906058,1.75,-14.25));
#1380=CARTESIAN_POINT('',(0.514254323680839,1.75,-14.1889214949927));
#1381=CARTESIAN_POINT('',(0.75,1.75,-14.096056723534));
#1382=CARTESIAN_POINT('',(4.04257239845944E-15,4.0,-12.0));
#1383=VECTOR('',#1714,1000.0);
#1384=AXIS2_PLACEMENT_3D('',#1715,#1716,#1717);
#1385=CARTESIAN_POINT('',(-1.88270326997858E-15,-1.75,-14.25));
#1386=CARTESIAN_POINT('',(-3.5527136788005E-15,-4.0,-12.0));
#1387=VECTOR('',#1718,1000.0);
#1388=CARTESIAN_POINT('',(0.75,-1.75,-14.096056723534));
#1389=CARTESIAN_POINT('',(0.75,-1.75,-14.096056723534));
#1390=CARTESIAN_POINT('',(0.514254323680838,-1.75,-14.1889214949927));
#1391=CARTESIAN_POINT('',(0.258005668906057,-1.75,-14.25));
#1392=CARTESIAN_POINT('',(-1.88270326997858E-15,-1.75,-14.25));
#1393=CARTESIAN_POINT('',(0.75,1.75,-14.096056723534));
#1394=CARTESIAN_POINT('',(0.860594977858098,1.75,-14.0524912274298));
#1395=CARTESIAN_POINT('',(0.97029299368856,1.73960283547927,-14.0107657077885));
#1396=CARTESIAN_POINT('',(1.18767933833667,1.69799405919719,-13.9304269555576));
#1397=CARTESIAN_POINT('',(1.2963637903383,1.66628664769716,-13.8914778519283));
#1398=CARTESIAN_POINT('',(1.50416463122199,1.58311727067216,-13.818815250779));
#1399=CARTESIAN_POINT('',(1.60376603434414,1.53179168287919,-13.7849026693372));
#1400=CARTESIAN_POINT('',(1.79391012554061,1.40909682099257,-13.7214319582018));
#1401=CARTESIAN_POINT('',(1.88502085490418,1.33690748566453,-13.6917043564315));
#1402=CARTESIAN_POINT('',(2.04944730424892,1.17772266250315,-13.6388840663503));
#1403=CARTESIAN_POINT('',(2.12380031665103,1.09026957573604,-13.6154402955109));
#1404=CARTESIAN_POINT('',(2.25594719497221,0.898965018096598,-13.5742330487545));
#1405=CARTESIAN_POINT('',(2.31309203051205,0.79548519110647,-13.5566757385854));
#1406=CARTESIAN_POINT('',(2.45049043040232,0.474389962572922,-13.5147400039029));
#1407=CARTESIAN_POINT('',(2.49964500229018,0.237573127042604,-13.5001064993381));
#1408=CARTESIAN_POINT('',(2.50017453555724,-0.114842288683045,-13.4999476393203));
#1409=CARTESIAN_POINT('',(2.48823080153372,-0.23424675163459,-13.5035232411759));
#1410=CARTESIAN_POINT('',(2.44128775484353,-0.464611224970146,-13.5176660906894));
#1411=CARTESIAN_POINT('',(2.40655997193837,-0.576307895055712,-13.5281511237472));
#1412=CARTESIAN_POINT('',(2.26860341147072,-0.900905433881633,-13.5702484172851));
#1413=CARTESIAN_POINT('',(2.1340812255104,-1.09543101545301,-13.6117064824945));
#1414=CARTESIAN_POINT('',(1.88589132337921,-1.33624039325968,-13.6914196988317));
#1415=CARTESIAN_POINT('',(1.79675354768625,-1.40700714601996,-13.7204959062736));
#1416=CARTESIAN_POINT('',(1.60639445210132,-1.53034330820083,-13.7840125745081));
#1417=CARTESIAN_POINT('',(1.50448412045717,-1.58296112456201,-13.8187057903352));
#1418=CARTESIAN_POINT('',(1.19296608893513,-1.7077265248394,-13.9276288635652));
#1419=CARTESIAN_POINT('',(0.971259130358199,-1.75,-14.0088984820991));
#1420=CARTESIAN_POINT('',(0.75,-1.75,-14.096056723534));
#1421=COLOUR_RGB('',0.509803950786591,0.509803950786591,0.588235318660736);
#1422=CARTESIAN_POINT('',(5.74285304839042E-16,0.75,-17.5));
#1423=CARTESIAN_POINT('',(5.74285304839042E-16,0.75,-3.0));
#1424=VECTOR('',#1719,1000.0);
#1425=CARTESIAN_POINT('',(-6.66133814775094E-16,-0.75,-17.5));
#1426=AXIS2_PLACEMENT_3D('',#1720,#1721,#1722);
#1427=CARTESIAN_POINT('',(-6.66133814775094E-16,-0.75,-3.0));
#1428=VECTOR('',#1723,1000.0);
#1429=COLOUR_RGB('',0.509803950786591,0.509803950786591,0.588235318660736);
#1430=CARTESIAN_POINT('',(0.75,1.75,-17.5650566333412));
#1431=CARTESIAN_POINT('',(2.36962379407606,0.662811259456775,-16.0));
#1433=CARTESIAN_POINT('',(0.75,1.75,-17.5650566333412));
#1434=CARTESIAN_POINT('',(1.48318153276605,1.75,-17.5650566332399));
#1435=CARTESIAN_POINT('',(2.0919318082427,1.34137026283411,-16.9768159194771));
#1436=CARTESIAN_POINT('',(2.36962379407606,0.662811259456775,-16.0));
#1443=CARTESIAN_POINT('',(4.0,0.662811259456776,-16.0));
#1444=CARTESIAN_POINT('',(4.0,0.662811259456776,-16.0));
#1445=VECTOR('',#1724,1000.0);
#1446=CARTESIAN_POINT('',(4.0,2.05213956538806,-18.0));
#1447=CARTESIAN_POINT('',(4.0,2.05213956538806,-18.0));
#1448=VECTOR('',#1725,1000.0);
#1449=CARTESIAN_POINT('',(-4.0,2.05213956538806,-18.0));
#1450=CARTESIAN_POINT('',(4.0,2.05213956538806,-18.0));
#1451=VECTOR('',#1726,1000.0);
#1452=CARTESIAN_POINT('',(-4.0,0.662811259456771,-16.0));
#1453=CARTESIAN_POINT('',(-4.0,2.05213956538806,-18.0));
#1454=VECTOR('',#1727,1000.0);
#1455=CARTESIAN_POINT('',(-2.36962379407606,0.662811259456771,-16.0));
#1456=CARTESIAN_POINT('',(4.0,0.662811259456776,-16.0));
#1457=VECTOR('',#1728,1000.0);
#1458=CARTESIAN_POINT('',(-0.75,1.75,-17.5650566332399));
#1460=CARTESIAN_POINT('',(-2.36962379407606,0.662811259456771,-16.0));
#1461=CARTESIAN_POINT('',(-2.0919318082427,1.34137026283411,-16.9768159194771));
#1462=CARTESIAN_POINT('',(-1.48318153276605,1.75,-17.5650566332399));
#1463=CARTESIAN_POINT('',(-0.75,1.75,-17.5650566332399));
#1470=CARTESIAN_POINT('',(-0.749999999921961,1.75,-17.565056633287));
#1471=VECTOR('',#1729,1000.0);
#1472=COLOUR_RGB('',0.509803950786591,0.509803950786591,0.588235318660736);
#1473=CARTESIAN_POINT('',(2.36962379407606,-0.662811259456771,-16.0));
#1474=CARTESIAN_POINT('',(0.75,-1.75,-17.5650566333412));
#1476=CARTESIAN_POINT('',(2.36962379407606,-0.662811259456771,-16.0));
#1477=CARTESIAN_POINT('',(2.0919318082427,-1.34137026283411,-16.9768159194771));
#1478=CARTESIAN_POINT('',(1.48318153276605,-1.75,-17.5650566332399));
#1479=CARTESIAN_POINT('',(0.75,-1.75,-17.5650566333412));
#1486=CARTESIAN_POINT('',(-0.75,-1.75,-17.5650566331733));
#1487=CARTESIAN_POINT('',(0.749999999778891,-1.75,-17.565056633287));
#1488=VECTOR('',#1730,1000.0);
#1489=CARTESIAN_POINT('',(-2.36962379407606,-0.662811259456774,-16.0));
#1491=CARTESIAN_POINT('',(-0.75,-1.75,-17.5650566331733));
#1492=CARTESIAN_POINT('',(-1.48318153276605,-1.75,-17.5650566332399));
#1493=CARTESIAN_POINT('',(-2.0919318082427,-1.34137026283411,-16.9768159194771));
#1494=CARTESIAN_POINT('',(-2.36962379407606,-0.662811259456774,-16.0));
#1501=CARTESIAN_POINT('',(-4.0,-0.662811259456775,-16.0));
#1502=CARTESIAN_POINT('',(-4.0,-0.662811259456775,-16.0));
#1503=VECTOR('',#1731,1000.0);
#1504=CARTESIAN_POINT('',(-4.0,-2.05213956538806,-18.0));
#1505=CARTESIAN_POINT('',(-4.0,-2.05213956538806,-18.0));
#1506=VECTOR('',#1732,1000.0);
#1507=CARTESIAN_POINT('',(4.0,-2.05213956538806,-18.0));
#1508=CARTESIAN_POINT('',(-4.0,-2.05213956538806,-18.0));
#1509=VECTOR('',#1733,1000.0);
#1510=CARTESIAN_POINT('',(4.0,-0.66281125945677,-16.0));
#1511=CARTESIAN_POINT('',(4.0,-2.05213956538806,-18.0));
#1512=VECTOR('',#1734,1000.0);
#1513=CARTESIAN_POINT('',(-4.0,-0.662811259456775,-16.0));
#1514=VECTOR('',#1735,1000.0);
#1515=COLOUR_RGB('',0.509803950786591,0.509803950786591,0.588235318660736);
#1516=CARTESIAN_POINT('',(-0.75,1.75,-14.096056723534));
#1517=CARTESIAN_POINT('',(-0.75,1.75,-3.0));
#1518=VECTOR('',#1736,1000.0);
#1519=AXIS2_PLACEMENT_3D('',#1737,#1738,#1739);
#1520=CARTESIAN_POINT('',(-0.75,-1.75,-14.096056723534));
#1521=CARTESIAN_POINT('',(-0.75,-1.75,-3.0));
#1522=VECTOR('',#1740,1000.0);
#1523=CARTESIAN_POINT('',(-0.75,-1.75,-14.096056723534));
#1524=CARTESIAN_POINT('',(-0.860594977858099,-1.75,-14.0524912274298));
#1525=CARTESIAN_POINT('',(-0.97029299368856,-1.73960283547927,-14.0107657077885));
#1526=CARTESIAN_POINT('',(-1.18767933833667,-1.69799405919719,-13.9304269555576));
#1527=CARTESIAN_POINT('',(-1.2963637903383,-1.66628664769716,-13.8914778519283));
#1528=CARTESIAN_POINT('',(-1.50416463122199,-1.58311727067216,-13.818815250779));
#1529=CARTESIAN_POINT('',(-1.60376603434414,-1.53179168287919,-13.7849026693372));
#1530=CARTESIAN_POINT('',(-1.79391012554061,-1.40909682099257,-13.7214319582018));
#1531=CARTESIAN_POINT('',(-1.88502085490418,-1.33690748566454,-13.6917043564315));
#1532=CARTESIAN_POINT('',(-2.04944730424892,-1.17772266250315,-13.6388840663503));
#1533=CARTESIAN_POINT('',(-2.12380031665103,-1.09026957573604,-13.6154402955109));
#1534=CARTESIAN_POINT('',(-2.25594719497222,-0.898965018096598,-13.5742330487545));
#1535=CARTESIAN_POINT('',(-2.31309203051205,-0.79548519110647,-13.5566757385854));
#1536=CARTESIAN_POINT('',(-2.45049043040232,-0.474389962572923,-13.5147400039029));
#1537=CARTESIAN_POINT('',(-2.49964500229018,-0.237573127042604,-13.5001064993381));
#1538=CARTESIAN_POINT('',(-2.50017453555724,0.114842288683045,-13.4999476393203));
#1539=CARTESIAN_POINT('',(-2.48823080153372,0.23424675163459,-13.5035232411759));
#1540=CARTESIAN_POINT('',(-2.44128775484353,0.464611224970146,-13.5176660906894));
#1541=CARTESIAN_POINT('',(-2.40655997193837,0.576307895055712,-13.5281511237472));
#1542=CARTESIAN_POINT('',(-2.26860341147072,0.900905433881634,-13.5702484172852));
#1543=CARTESIAN_POINT('',(-2.1340812255104,1.09543101545301,-13.6117064824945));
#1544=CARTESIAN_POINT('',(-1.88589132337921,1.33624039325968,-13.6914196988317));
#1545=CARTESIAN_POINT('',(-1.79675354768625,1.40700714601996,-13.7204959062736));
#1546=CARTESIAN_POINT('',(-1.60639445210132,1.53034330820083,-13.7840125745081));
#1547=CARTESIAN_POINT('',(-1.50448412045717,1.58296112456201,-13.8187057903352));
#1548=CARTESIAN_POINT('',(-1.19296608893513,1.7077265248394,-13.9276288635652));
#1549=CARTESIAN_POINT('',(-0.971259130358199,1.75,-14.0088984820991));
#1550=CARTESIAN_POINT('',(-0.75,1.75,-14.096056723534));
#1551=COLOUR_RGB('',0.509803950786591,0.509803950786591,0.588235318660736);
#1552=CARTESIAN_POINT('',(0.75,-1.75,-3.0));
#1553=VECTOR('',#1741,1000.0);
#1554=CARTESIAN_POINT('',(-1.88270326997858E-15,-1.75,-14.25));
#1555=CARTESIAN_POINT('',(-0.128610041800388,-1.75,-14.25));
#1556=CARTESIAN_POINT('',(-0.25749579429796,-1.75,-14.2353737567767));
#1557=CARTESIAN_POINT('',(-0.507374226538039,-1.75,-14.1820257702744));
#1558=CARTESIAN_POINT('',(-0.630420688779694,-1.75,-14.1431613219345));
#1559=CARTESIAN_POINT('',(-0.75,-1.75,-14.096056723534));
#1560=COLOUR_RGB('',0.509803950786591,0.509803950786591,0.588235318660736);
#1561=AXIS2_PLACEMENT_3D('',#1742,#1743,#1744);
#1562=CARTESIAN_POINT('',(0.75,1.75,-3.0));
#1563=VECTOR('',#1745,1000.0);
#1564=COLOUR_RGB('',0.509803950786591,0.509803950786591,0.588235318660736);
#1565=CARTESIAN_POINT('',(-0.75,1.75,-14.096056723534));
#1566=CARTESIAN_POINT('',(-0.630420688779694,1.75,-14.1431613219345));
#1567=CARTESIAN_POINT('',(-0.507374226538039,1.75,-14.1820257702744));
#1568=CARTESIAN_POINT('',(-0.257495794297958,1.75,-14.2353737567767));
#1569=CARTESIAN_POINT('',(-0.128610041800385,1.75,-14.25));
#1570=CARTESIAN_POINT('',(1.44023438245783E-15,1.75,-14.25));
#1571=COLOUR_RGB('',0.509803950786591,0.509803950786591,0.588235318660736);
#1572=AXIS2_PLACEMENT_3D('',#1746,#1747,#1748);
#1573=AXIS2_PLACEMENT_3D('',#1749,#1750,#1751);
#1574=COLOUR_RGB('',0.509803950786591,0.509803950786591,0.588235318660736);
#1575=AXIS2_PLACEMENT_3D('',#1752,#1753,#1754);
#1576=COLOUR_RGB('',0.509803950786591,0.509803950786591,0.588235318660736);
#1577=AXIS2_PLACEMENT_3D('',#1755,#1756,#1757);
#1578=COLOUR_RGB('',0.509803950786591,0.509803950786591,0.588235318660736);
#1579=COLOUR_RGB('',0.509803950786591,0.509803950786591,0.588235318660736);
#1580=COLOUR_RGB('',0.509803950786591,0.509803950786591,0.588235318660736);
#1581=COLOUR_RGB('',0.509803950786591,0.509803950786591,0.588235318660736);
#1582=AXIS2_PLACEMENT_3D('',#1758,#1759,#1760);
#1583=AXIS2_PLACEMENT_3D('',#1761,#1762,#1763);
#1584=CARTESIAN_POINT('',(-4.0,-2.0,-18.0));
#1585=CARTESIAN_POINT('',(-4.0,2.0,-18.0));
#1586=AXIS2_PLACEMENT_3D('',#1764,#1765,#1766);
#1587=CARTESIAN_POINT('',(4.0,-2.0,-18.0));
#1588=CARTESIAN_POINT('',(-4.0,-2.0,-18.0));
#1589=VECTOR('',#1767,1000.0);
#1590=CARTESIAN_POINT('',(4.0,2.0,-18.0));
#1591=AXIS2_PLACEMENT_3D('',#1768,#1769,#1770);
#1592=CARTESIAN_POINT('',(-4.0,2.0,-18.0));
#1593=VECTOR('',#1771,1000.0);
#1594=COLOUR_RGB('',0.509803950786591,0.509803950786591,0.588235318660736);
#1595=COLOUR_RGB('',0.509803950786591,0.509803950786591,0.588235318660736);
#1596=COLOUR_RGB('',0.509803950786591,0.509803950786591,0.588235318660736);
#1597=CARTESIAN_POINT('',(4.0,-1.43786796564404,-17.5));
#1598=CARTESIAN_POINT('',(-4.0,-1.43786796564404,-17.5));
#1599=CARTESIAN_POINT('',(-4.0,-1.43786796564404,-17.5));
#1600=VECTOR('',#1772,1000.0);
#1601=CARTESIAN_POINT('',(4.0,-2.0,-18.0));
#1602=VECTOR('',#1773,1000.0);
#1603=CARTESIAN_POINT('',(-4.0,-2.0,-18.0));
#1604=VECTOR('',#1774,1000.0);
#1605=COLOUR_RGB('',0.509803950786591,0.509803950786591,0.588235318660736);
#1606=CARTESIAN_POINT('',(-4.0,1.43786796564404,-17.5));
#1607=CARTESIAN_POINT('',(-4.0,2.0,-18.0));
#1608=VECTOR('',#1775,1000.0);
#1609=AXIS2_PLACEMENT_3D('',#1776,#1777,#1778);
#1610=COLOUR_RGB('',0.509803950786591,0.509803950786591,0.588235318660736);
#1611=CARTESIAN_POINT('',(4.0,1.43786796564404,-17.5));
#1612=AXIS2_PLACEMENT_3D('',#1779,#1780,#1781);
#1613=CARTESIAN_POINT('',(4.0,2.0,-18.0));
#1614=VECTOR('',#1782,1000.0);
#1615=COLOUR_RGB('',0.509803950786591,0.509803950786591,0.588235318660736);
#1616=CARTESIAN_POINT('',(4.0,1.43786796564404,-17.5));
#1617=VECTOR('',#1783,1000.0);
#1618=COLOUR_RGB('',0.509803950786591,0.509803950786591,0.588235318660736);
#1619=COLOUR_RGB('',0.752941191196442,0.752941191196442,0.752941191196442);
#1620=CARTESIAN_POINT('',(0.0,0.0,-3.0));
#1621=DIRECTION('',(0.0,-0.0,1.0));
#1622=DIRECTION('',(8.88178419700125E-16,1.0,0.0));
#1623=DIRECTION('',(-0.5,-0.866025403784439,0.0));
#1624=DIRECTION('',(-1.0,1.87789323912236E-16,0.0));
#1625=CARTESIAN_POINT('',(0.0,0.0,-3.0));
#1626=DIRECTION('',(0.0,-0.0,1.0));
#1627=DIRECTION('',(8.88178419700125E-16,1.0,0.0));
#1628=DIRECTION('',(0.5,-0.866025403784439,0.0));
#1629=DIRECTION('',(-0.5,-0.866025403784439,0.0));
#1630=CARTESIAN_POINT('',(0.0,0.0,-3.0));
#1631=DIRECTION('',(0.0,-0.0,1.0));
#1632=DIRECTION('',(8.88178419700125E-16,1.0,0.0));
#1633=DIRECTION('',(1.0,0.0,0.0));
#1634=DIRECTION('',(0.5,-0.866025403784439,0.0));
#1635=CARTESIAN_POINT('',(0.0,0.0,-3.0));
#1636=DIRECTION('',(0.0,-0.0,1.0));
#1637=DIRECTION('',(8.88178419700125E-16,1.0,0.0));
#1638=DIRECTION('',(0.5,0.866025403784439,0.0));
#1639=DIRECTION('',(1.0,0.0,0.0));
#1640=CARTESIAN_POINT('',(0.0,0.0,-3.0));
#1641=DIRECTION('',(0.0,-0.0,1.0));
#1642=DIRECTION('',(8.88178419700125E-16,1.0,0.0));
#1643=DIRECTION('',(-0.5,0.866025403784439,0.0));
#1644=DIRECTION('',(0.5,0.866025403784439,0.0));
#1645=CARTESIAN_POINT('',(0.0,0.0,-3.0));
#1646=DIRECTION('',(0.0,-0.0,1.0));
#1647=DIRECTION('',(8.88178419700125E-16,1.0,0.0));
#1648=DIRECTION('',(-1.0,1.87789323912236E-16,0.0));
#1649=DIRECTION('',(-0.5,0.866025403784439,0.0));
#1650=CARTESIAN_POINT('',(0.0,0.0,-10.5));
#1651=DIRECTION('',(0.0,-0.0,1.0));
#1652=DIRECTION('',(8.88178419700125E-16,1.0,0.0));
#1653=CARTESIAN_POINT('',(0.0,0.0,-10.5));
#1654=DIRECTION('',(0.0,-0.0,1.0));
#1655=DIRECTION('',(8.88178419700125E-16,1.0,0.0));
#1656=CARTESIAN_POINT('',(0.0,0.0,-10.5));
#1657=DIRECTION('',(0.0,0.0,1.0));
#1658=DIRECTION('',(-1.0,0.0,0.0));
#1659=CARTESIAN_POINT('',(0.0,0.0,-10.5));
#1660=DIRECTION('',(0.0,0.0,1.0));
#1661=DIRECTION('',(-1.0,0.0,0.0));
#1662=CARTESIAN_POINT('',(0.0,0.0,4.5));
#1663=DIRECTION('',(0.0,0.0,-1.0));
#1664=DIRECTION('',(-1.0,0.0,0.0));
#1665=DIRECTION('',(0.0,0.0,-1.0));
#1666=DIRECTION('',(0.0,0.0,-1.0));
#1667=CARTESIAN_POINT('',(0.0,0.0,0.0));
#1668=DIRECTION('',(0.0,0.0,1.0));
#1669=DIRECTION('',(1.0,0.0,0.0));
#1670=DIRECTION('',(0.0,0.0,1.0));
#1671=CARTESIAN_POINT('',(0.0,0.0,4.5));
#1672=DIRECTION('',(0.0,0.0,1.0));
#1673=DIRECTION('',(1.0,0.0,0.0));
#1674=DIRECTION('',(0.0,0.0,1.0));
#1675=CARTESIAN_POINT('',(0.0,0.0,4.5));
#1676=DIRECTION('',(0.0,0.0,-1.0));
#1677=DIRECTION('',(-1.0,0.0,0.0));
#1678=CARTESIAN_POINT('',(0.0,0.0,4.5));
#1679=DIRECTION('',(0.0,0.0,1.0));
#1680=DIRECTION('',(1.0,0.0,0.0));
#1681=CARTESIAN_POINT('',(0.0,0.0,0.0));
#1682=DIRECTION('',(0.0,0.0,1.0));
#1683=DIRECTION('',(1.0,0.0,0.0));
#1684=DIRECTION('',(-0.5,0.866025403784439,0.0));
#1685=DIRECTION('',(-1.0,0.0,0.0));
#1686=DIRECTION('',(-0.5,-0.866025403784439,0.0));
#1687=DIRECTION('',(0.5,-0.866025403784439,0.0));
#1688=DIRECTION('',(1.0,-1.87789323912236E-16,0.0));
#1689=DIRECTION('',(0.5,0.866025403784439,0.0));
#1690=DIRECTION('',(0.0,-2.47679771571574E-32,1.0));
#1691=DIRECTION('',(0.0,0.0,1.0));
#1692=DIRECTION('',(-0.0,-0.0,-1.0));
#1693=DIRECTION('',(-0.0,-0.0,-1.0));
#1694=DIRECTION('',(-0.0,-0.0,-1.0));
#1695=DIRECTION('',(-0.0,-0.0,-1.0));
#1696=DIRECTION('',(0.0,0.0,1.0));
#1697=CARTESIAN_POINT('',(0.0,0.0,-12.3));
#1698=DIRECTION('',(0.0,-0.0,1.0));
#1699=DIRECTION('',(8.88178419700125E-16,1.0,0.0));
#1700=DIRECTION('',(0.0,0.0,1.0));
#1701=CARTESIAN_POINT('',(0.0,0.0,-13.65));
#1702=DIRECTION('',(0.0,-0.0,1.0));
#1703=DIRECTION('',(8.88178419700125E-16,1.0,0.0));
#1704=DIRECTION('',(-7.14632589097061E-16,-0.707106781186549,0.707106781186546));
#1705=CARTESIAN_POINT('',(0.0,0.0,-12.3));
#1706=DIRECTION('',(0.0,-0.0,1.0));
#1707=DIRECTION('',(8.88178419700125E-16,1.0,0.0));
#1708=DIRECTION('',(6.28036983473511E-16,0.707106781186549,0.707106781186546));
#1709=CARTESIAN_POINT('',(0.0,0.0,-12.0));
#1710=DIRECTION('',(-0.0,0.0,-1.0));
#1711=DIRECTION('',(-8.88178419700125E-16,-1.0,0.0));
#1712=DIRECTION('',(0.0,0.0,1.0));
#1713=DIRECTION('',(0.0,0.0,1.0));
#1714=DIRECTION('',(7.14632589097061E-16,0.707106781186549,0.707106781186546));
#1715=CARTESIAN_POINT('',(0.0,0.0,-12.0));
#1716=DIRECTION('',(-0.0,0.0,-1.0));
#1717=DIRECTION('',(-8.88178419700125E-16,-1.0,0.0));
#1718=DIRECTION('',(-6.28036983473511E-16,-0.707106781186549,0.707106781186546));
#1719=DIRECTION('',(0.0,0.0,-1.0));
#1720=CARTESIAN_POINT('',(0.0,0.0,-17.5));
#1721=DIRECTION('',(0.0,0.0,-1.0));
#1722=DIRECTION('',(-1.0,0.0,0.0));
#1723=DIRECTION('',(0.0,0.0,-1.0));
#1724=DIRECTION('',(-1.0,-6.68735899989059E-16,0.0));
#1725=DIRECTION('',(-7.38204079610543E-16,-0.570517539124579,0.821285417836719));
#1726=DIRECTION('',(-1.0,-6.68735899989059E-16,0.0));
#1727=DIRECTION('',(-7.38204079610543E-16,-0.570517539124579,0.821285417836719));
#1728=DIRECTION('',(-1.0,-6.68735899989059E-16,0.0));
#1729=DIRECTION('',(1.0,7.7715611723761E-16,-1.56075733555108E-16));
#1730=DIRECTION('',(-1.0,-9.21716406902344E-16,-4.42214578406138E-16));
#1731=DIRECTION('',(1.0,6.14525791364784E-16,0.0));
#1732=DIRECTION('',(6.68335831795909E-16,0.570517539124579,0.821285417836719));
#1733=DIRECTION('',(1.0,6.14525791364784E-16,0.0));
#1734=DIRECTION('',(6.68335831795909E-16,0.570517539124579,0.821285417836719));
#1735=DIRECTION('',(1.0,6.14525791364784E-16,0.0));
#1736=DIRECTION('',(0.0,0.0,-1.0));
#1737=CARTESIAN_POINT('',(-0.75,-4.91021611391529E-16,-16.0));
#1738=DIRECTION('',(0.0,-0.0,1.0));
#1739=DIRECTION('',(8.67361737988403E-16,1.0,0.0));
#1740=DIRECTION('',(0.0,0.0,-1.0));
#1741=DIRECTION('',(0.0,0.0,-1.0));
#1742=CARTESIAN_POINT('',(0.75,5.82867087928207E-16,-16.0));
#1743=DIRECTION('',(0.0,-0.0,1.0));
#1744=DIRECTION('',(8.67361737988403E-16,1.0,0.0));
#1745=DIRECTION('',(0.0,0.0,-1.0));
#1746=CARTESIAN_POINT('',(0.0,0.0,-13.65));
#1747=DIRECTION('',(0.0,-0.0,1.0));
#1748=DIRECTION('',(8.88178419700125E-16,1.0,0.0));
#1749=CARTESIAN_POINT('',(0.0,0.0,-17.5));
#1750=DIRECTION('',(0.0,0.0,-1.0));
#1751=DIRECTION('',(-1.0,0.0,0.0));
#1752=CARTESIAN_POINT('',(-4.0,-2.61878192742149E-15,-16.0));
#1753=DIRECTION('',(-0.0,0.0,-1.0));
#1754=DIRECTION('',(-1.30861044620648E-15,-1.0,0.0));
#1755=CARTESIAN_POINT('',(4.0,2.67494359995624E-15,-16.0));
#1756=DIRECTION('',(0.0,-0.0,1.0));
#1757=DIRECTION('',(1.30861044620648E-15,1.0,0.0));
#1758=CARTESIAN_POINT('',(-4.0,-2.61878192742149E-15,-18.0));
#1759=DIRECTION('',(-0.0,0.0,-1.0));
#1760=DIRECTION('',(-8.45324316744885E-16,-1.0,0.0));
#1761=CARTESIAN_POINT('',(4.0,2.67494359995624E-15,-18.0));
#1762=DIRECTION('',(0.0,-0.0,1.0));
#1763=DIRECTION('',(8.45324316744885E-16,1.0,0.0));
#1764=CARTESIAN_POINT('',(-4.0,-2.61878192742149E-15,-18.0));
#1765=DIRECTION('',(0.0,0.0,-1.0));
#1766=DIRECTION('',(8.67361737988403E-16,1.0,0.0));
#1767=DIRECTION('',(-1.0,-6.14525791364784E-16,0.0));
#1768=CARTESIAN_POINT('',(4.0,2.67494359995624E-15,-18.0));
#1769=DIRECTION('',(-0.0,0.0,-1.0));
#1770=DIRECTION('',(-8.67361737988403E-16,-1.0,0.0));
#1771=DIRECTION('',(1.0,6.14525791364784E-16,0.0));
#1772=DIRECTION('',(-1.0,1.05080874557295E-15,0.0));
#1773=DIRECTION('',(8.75303715014551E-16,0.747193398466775,0.664606669608176));
#1774=DIRECTION('',(8.75303715014551E-16,0.747193398466775,0.664606669608176));
#1775=DIRECTION('',(-9.66808515392188E-16,-0.747193398466775,0.664606669608176));
#1776=CARTESIAN_POINT('',(-4.0,-2.61878192742149E-15,-17.5));
#1777=DIRECTION('',(0.0,0.0,1.0));
#1778=DIRECTION('',(-1.0,0.0,0.0));
#1779=CARTESIAN_POINT('',(4.0,2.67494359995624E-15,-17.5));
#1780=DIRECTION('',(0.0,0.0,-1.0));
#1781=DIRECTION('',(-1.0,0.0,0.0));
#1782=DIRECTION('',(-9.66808515392188E-16,-0.747193398466775,0.664606669608176));
#1783=DIRECTION('',(1.0,-9.96598636948676E-16,0.0));
#1784=PRESENTATION_LAYER_ASSIGNMENT('1','NONE',(#160));
ENDSEC;
END-ISO-10303-21;
