ISO-10303-21;
HEADER;
/* Generated by software containing ST-Developer
 * from STEP Tools, Inc. (www.steptools.com) 
 */
/* OPTION: using custom renumber hook */

FILE_DESCRIPTION(
/* description */ ('STEP AP242 Edition 2',
'CAx-IF Rec.Pracs.---Representation and Presentation of Product Manufa
cturing Information (PMI)---4.0---2014-10-13',
'CAx-IF Rec.Pracs.---3D Tessellated Geometry---0.4---2014-09-14','2;1',
'CAx-IF Rec.Pracs.---User Defined Attributes---1.5---2016-08-15'),
/* implementation_level */ '2;1');

FILE_NAME(
/* name */ 'Gripper versions - Robot_glava - Robot_glava',
/* time_stamp */ '2026-09-25T07:55:05Z',
/* author */ (''),
/* organization */ (''),
/* preprocessor_version */ 'ST-DEVELOPER v20',
/* originating_system */ 'ONSHAPE BY PTC INC, 1.221',
/* authorisation */ '  ');

FILE_SCHEMA (('AP242_MANAGED_MODEL_BASED_3D_ENGINEERING_MIM_LF { 1 0 10303 442 3 1 4 }'));
ENDSEC;

DATA;
#10=SHAPE_REPRESENTATION_RELATIONSHIP('','',#201,#11);
#11=ADVANCED_BREP_SHAPE_REPRESENTATION('',(#199),#355);
#12=PLANE('',#209);
#13=PLANE('',#217);
#14=PLANE('',#219);
#15=PLANE('',#222);
#16=PLANE('',#223);
#17=PLANE('',#226);
#18=PLANE('',#229);
#19=PLANE('',#232);
#20=PLANE('',#235);
#21=ORIENTED_EDGE('',*,*,#53,.T.);
#22=ORIENTED_EDGE('',*,*,#54,.F.);
#23=ORIENTED_EDGE('',*,*,#55,.F.);
#24=ORIENTED_EDGE('',*,*,#56,.T.);
#25=ORIENTED_EDGE('',*,*,#57,.F.);
#26=ORIENTED_EDGE('',*,*,#58,.F.);
#27=ORIENTED_EDGE('',*,*,#59,.F.);
#28=ORIENTED_EDGE('',*,*,#60,.F.);
#29=ORIENTED_EDGE('',*,*,#61,.F.);
#30=ORIENTED_EDGE('',*,*,#53,.F.);
#31=ORIENTED_EDGE('',*,*,#55,.T.);
#32=ORIENTED_EDGE('',*,*,#61,.T.);
#33=ORIENTED_EDGE('',*,*,#62,.F.);
#34=ORIENTED_EDGE('',*,*,#56,.F.);
#35=ORIENTED_EDGE('',*,*,#63,.T.);
#36=ORIENTED_EDGE('',*,*,#64,.F.);
#37=ORIENTED_EDGE('',*,*,#64,.T.);
#38=ORIENTED_EDGE('',*,*,#63,.F.);
#39=ORIENTED_EDGE('',*,*,#54,.T.);
#40=ORIENTED_EDGE('',*,*,#62,.T.);
#41=ORIENTED_EDGE('',*,*,#65,.F.);
#42=ORIENTED_EDGE('',*,*,#60,.T.);
#43=ORIENTED_EDGE('',*,*,#65,.T.);
#44=ORIENTED_EDGE('',*,*,#66,.F.);
#45=ORIENTED_EDGE('',*,*,#59,.T.);
#46=ORIENTED_EDGE('',*,*,#66,.T.);
#47=ORIENTED_EDGE('',*,*,#67,.F.);
#48=ORIENTED_EDGE('',*,*,#58,.T.);
#49=ORIENTED_EDGE('',*,*,#67,.T.);
#50=ORIENTED_EDGE('',*,*,#68,.F.);
#51=ORIENTED_EDGE('',*,*,#57,.T.);
#52=ORIENTED_EDGE('',*,*,#68,.T.);
#53=EDGE_CURVE('',#69,#69,#85,.F.);
#54=EDGE_CURVE('',#70,#70,#86,.F.);
#55=EDGE_CURVE('',#71,#71,#87,.F.);
#56=EDGE_CURVE('',#72,#72,#88,.F.);
#57=EDGE_CURVE('',#73,#73,#89,.T.);
#58=EDGE_CURVE('',#74,#74,#90,.T.);
#59=EDGE_CURVE('',#75,#75,#91,.T.);
#60=EDGE_CURVE('',#76,#76,#92,.T.);
#61=EDGE_CURVE('',#77,#77,#93,.F.);
#62=EDGE_CURVE('',#78,#78,#94,.F.);
#63=EDGE_CURVE('',#79,#79,#95,.T.);
#64=EDGE_CURVE('',#80,#80,#96,.T.);
#65=EDGE_CURVE('',#81,#81,#97,.T.);
#66=EDGE_CURVE('',#82,#82,#98,.T.);
#67=EDGE_CURVE('',#83,#83,#99,.T.);
#68=EDGE_CURVE('',#84,#84,#100,.T.);
#69=VERTEX_POINT('',#307);
#70=VERTEX_POINT('',#309);
#71=VERTEX_POINT('',#312);
#72=VERTEX_POINT('',#314);
#73=VERTEX_POINT('',#317);
#74=VERTEX_POINT('',#319);
#75=VERTEX_POINT('',#321);
#76=VERTEX_POINT('',#323);
#77=VERTEX_POINT('',#325);
#78=VERTEX_POINT('',#328);
#79=VERTEX_POINT('',#331);
#80=VERTEX_POINT('',#334);
#81=VERTEX_POINT('',#340);
#82=VERTEX_POINT('',#344);
#83=VERTEX_POINT('',#348);
#84=VERTEX_POINT('',#352);
#85=CIRCLE('',#204,0.01575);
#86=CIRCLE('',#205,0.01575);
#87=CIRCLE('',#207,0.0315);
#88=CIRCLE('',#208,0.0315);
#89=CIRCLE('',#210,0.0025);
#90=CIRCLE('',#211,0.0025);
#91=CIRCLE('',#212,0.0025);
#92=CIRCLE('',#213,0.0025);
#93=CIRCLE('',#214,0.003);
#94=CIRCLE('',#216,0.003);
#95=CIRCLE('',#218,0.04);
#96=CIRCLE('',#220,0.04);
#97=CIRCLE('',#225,0.0025);
#98=CIRCLE('',#228,0.0025);
#99=CIRCLE('',#231,0.0025);
#100=CIRCLE('',#234,0.0025);
#101=EDGE_LOOP('',(#21));
#102=EDGE_LOOP('',(#22));
#103=EDGE_LOOP('',(#23));
#104=EDGE_LOOP('',(#24));
#105=EDGE_LOOP('',(#25));
#106=EDGE_LOOP('',(#26));
#107=EDGE_LOOP('',(#27));
#108=EDGE_LOOP('',(#28));
#109=EDGE_LOOP('',(#29));
#110=EDGE_LOOP('',(#30));
#111=EDGE_LOOP('',(#31));
#112=EDGE_LOOP('',(#32));
#113=EDGE_LOOP('',(#33));
#114=EDGE_LOOP('',(#34));
#115=EDGE_LOOP('',(#35));
#116=EDGE_LOOP('',(#36));
#117=EDGE_LOOP('',(#37));
#118=EDGE_LOOP('',(#38));
#119=EDGE_LOOP('',(#39));
#120=EDGE_LOOP('',(#40));
#121=EDGE_LOOP('',(#41));
#122=EDGE_LOOP('',(#42));
#123=EDGE_LOOP('',(#43));
#124=EDGE_LOOP('',(#44));
#125=EDGE_LOOP('',(#45));
#126=EDGE_LOOP('',(#46));
#127=EDGE_LOOP('',(#47));
#128=EDGE_LOOP('',(#48));
#129=EDGE_LOOP('',(#49));
#130=EDGE_LOOP('',(#50));
#131=EDGE_LOOP('',(#51));
#132=EDGE_LOOP('',(#52));
#133=FACE_BOUND('',#101,.T.);
#134=FACE_BOUND('',#102,.T.);
#135=FACE_BOUND('',#103,.T.);
#136=FACE_BOUND('',#104,.T.);
#137=FACE_BOUND('',#105,.T.);
#138=FACE_BOUND('',#106,.T.);
#139=FACE_BOUND('',#107,.T.);
#140=FACE_BOUND('',#108,.T.);
#141=FACE_BOUND('',#109,.T.);
#142=FACE_BOUND('',#110,.T.);
#143=FACE_BOUND('',#111,.T.);
#144=FACE_BOUND('',#112,.T.);
#145=FACE_BOUND('',#113,.T.);
#146=FACE_BOUND('',#114,.T.);
#147=FACE_BOUND('',#115,.T.);
#148=FACE_BOUND('',#116,.T.);
#149=FACE_BOUND('',#117,.T.);
#150=FACE_BOUND('',#118,.T.);
#151=FACE_BOUND('',#119,.T.);
#152=FACE_BOUND('',#120,.T.);
#153=FACE_BOUND('',#121,.T.);
#154=FACE_BOUND('',#122,.T.);
#155=FACE_BOUND('',#123,.T.);
#156=FACE_BOUND('',#124,.T.);
#157=FACE_BOUND('',#125,.T.);
#158=FACE_BOUND('',#126,.T.);
#159=FACE_BOUND('',#127,.T.);
#160=FACE_BOUND('',#128,.T.);
#161=FACE_BOUND('',#129,.T.);
#162=FACE_BOUND('',#130,.T.);
#163=FACE_BOUND('',#131,.T.);
#164=FACE_BOUND('',#132,.T.);
#165=CYLINDRICAL_SURFACE('',#203,0.01575);
#166=CYLINDRICAL_SURFACE('',#206,0.0315);
#167=CYLINDRICAL_SURFACE('',#215,0.003);
#168=CYLINDRICAL_SURFACE('',#221,0.04);
#169=CYLINDRICAL_SURFACE('',#224,0.0025);
#170=CYLINDRICAL_SURFACE('',#227,0.0025);
#171=CYLINDRICAL_SURFACE('',#230,0.0025);
#172=CYLINDRICAL_SURFACE('',#233,0.0025);
#173=ADVANCED_FACE('',(#133,#134),#165,.F.);
#174=ADVANCED_FACE('',(#135,#136),#166,.T.);
#175=ADVANCED_FACE('',(#137,#138,#139,#140,#141,#142,#143),#12,.T.);
#176=ADVANCED_FACE('',(#144,#145),#167,.F.);
#177=ADVANCED_FACE('',(#146,#147),#13,.T.);
#178=ADVANCED_FACE('',(#148),#14,.F.);
#179=ADVANCED_FACE('',(#149,#150),#168,.T.);
#180=ADVANCED_FACE('',(#151),#15,.T.);
#181=ADVANCED_FACE('',(#152),#16,.T.);
#182=ADVANCED_FACE('',(#153,#154),#169,.F.);
#183=ADVANCED_FACE('',(#155),#17,.T.);
#184=ADVANCED_FACE('',(#156,#157),#170,.F.);
#185=ADVANCED_FACE('',(#158),#18,.T.);
#186=ADVANCED_FACE('',(#159,#160),#171,.F.);
#187=ADVANCED_FACE('',(#161),#19,.T.);
#188=ADVANCED_FACE('',(#162,#163),#172,.F.);
#189=ADVANCED_FACE('',(#164),#20,.T.);
#190=CLOSED_SHELL('',(#173,#174,#175,#176,#177,#178,#179,#180,#181,#182,
#183,#184,#185,#186,#187,#188,#189));
#191=STYLED_ITEM('',(#192),#199);
#192=PRESENTATION_STYLE_ASSIGNMENT((#193));
#193=SURFACE_STYLE_USAGE(.BOTH.,#194);
#194=SURFACE_SIDE_STYLE('',(#195));
#195=SURFACE_STYLE_FILL_AREA(#196);
#196=FILL_AREA_STYLE('',(#197));
#197=FILL_AREA_STYLE_COLOUR('',#198);
#198=COLOUR_RGB('',0.647058823529412,0.647058823529412,0.647058823529412);
#199=MANIFOLD_SOLID_BREP('Robot_glava',#190);
#200=SHAPE_DEFINITION_REPRESENTATION(#360,#201);
#201=SHAPE_REPRESENTATION('Robot_glava',(#202),#355);
#202=AXIS2_PLACEMENT_3D('',#304,#236,#237);
#203=AXIS2_PLACEMENT_3D('',#305,#238,#239);
#204=AXIS2_PLACEMENT_3D('',#306,#240,#241);
#205=AXIS2_PLACEMENT_3D('',#308,#242,#243);
#206=AXIS2_PLACEMENT_3D('',#310,#244,#245);
#207=AXIS2_PLACEMENT_3D('',#311,#246,#247);
#208=AXIS2_PLACEMENT_3D('',#313,#248,#249);
#209=AXIS2_PLACEMENT_3D('',#315,#250,#251);
#210=AXIS2_PLACEMENT_3D('',#316,#252,#253);
#211=AXIS2_PLACEMENT_3D('',#318,#254,#255);
#212=AXIS2_PLACEMENT_3D('',#320,#256,#257);
#213=AXIS2_PLACEMENT_3D('',#322,#258,#259);
#214=AXIS2_PLACEMENT_3D('',#324,#260,#261);
#215=AXIS2_PLACEMENT_3D('',#326,#262,#263);
#216=AXIS2_PLACEMENT_3D('',#327,#264,#265);
#217=AXIS2_PLACEMENT_3D('',#329,#266,#267);
#218=AXIS2_PLACEMENT_3D('',#330,#268,#269);
#219=AXIS2_PLACEMENT_3D('',#332,#270,#271);
#220=AXIS2_PLACEMENT_3D('',#333,#272,#273);
#221=AXIS2_PLACEMENT_3D('',#335,#274,#275);
#222=AXIS2_PLACEMENT_3D('',#336,#276,#277);
#223=AXIS2_PLACEMENT_3D('',#337,#278,#279);
#224=AXIS2_PLACEMENT_3D('',#338,#280,#281);
#225=AXIS2_PLACEMENT_3D('',#339,#282,#283);
#226=AXIS2_PLACEMENT_3D('',#341,#284,#285);
#227=AXIS2_PLACEMENT_3D('',#342,#286,#287);
#228=AXIS2_PLACEMENT_3D('',#343,#288,#289);
#229=AXIS2_PLACEMENT_3D('',#345,#290,#291);
#230=AXIS2_PLACEMENT_3D('',#346,#292,#293);
#231=AXIS2_PLACEMENT_3D('',#347,#294,#295);
#232=AXIS2_PLACEMENT_3D('',#349,#296,#297);
#233=AXIS2_PLACEMENT_3D('',#350,#298,#299);
#234=AXIS2_PLACEMENT_3D('',#351,#300,#301);
#235=AXIS2_PLACEMENT_3D('',#353,#302,#303);
#236=DIRECTION('',(0.,0.,1.));
#237=DIRECTION('',(1.,0.,0.));
#238=DIRECTION('',(0.,-1.,0.));
#239=DIRECTION('',(-1.,0.,0.));
#240=DIRECTION('',(0.,-1.,0.));
#241=DIRECTION('',(-1.,0.,0.));
#242=DIRECTION('',(0.,-1.,0.));
#243=DIRECTION('',(-1.,0.,0.));
#244=DIRECTION('',(0.,-1.,0.));
#245=DIRECTION('',(-1.,0.,0.));
#246=DIRECTION('',(0.,-1.,0.));
#247=DIRECTION('',(-1.,0.,0.));
#248=DIRECTION('',(0.,-1.,0.));
#249=DIRECTION('',(-1.,0.,0.));
#250=DIRECTION('',(0.,1.,0.));
#251=DIRECTION('',(1.,0.,0.));
#252=DIRECTION('',(0.,1.,0.));
#253=DIRECTION('',(1.,0.,0.));
#254=DIRECTION('',(0.,1.,0.));
#255=DIRECTION('',(1.,0.,0.));
#256=DIRECTION('',(0.,1.,0.));
#257=DIRECTION('',(1.,0.,0.));
#258=DIRECTION('',(0.,1.,0.));
#259=DIRECTION('',(1.,0.,0.));
#260=DIRECTION('',(0.,-1.,0.));
#261=DIRECTION('',(-1.,0.,0.));
#262=DIRECTION('',(0.,-1.,0.));
#263=DIRECTION('',(-1.,0.,0.));
#264=DIRECTION('',(0.,-1.,0.));
#265=DIRECTION('',(-1.,0.,0.));
#266=DIRECTION('',(0.,1.,0.));
#267=DIRECTION('',(1.,0.,0.));
#268=DIRECTION('',(0.,1.,0.));
#269=DIRECTION('',(1.,0.,0.));
#270=DIRECTION('',(0.,1.,0.));
#271=DIRECTION('',(1.,0.,0.));
#272=DIRECTION('',(0.,1.,0.));
#273=DIRECTION('',(1.,0.,0.));
#274=DIRECTION('',(0.,1.,0.));
#275=DIRECTION('',(1.,0.,0.));
#276=DIRECTION('',(0.,1.,0.));
#277=DIRECTION('',(1.,0.,0.));
#278=DIRECTION('',(0.,1.,0.));
#279=DIRECTION('',(1.,0.,0.));
#280=DIRECTION('',(0.,1.,0.));
#281=DIRECTION('',(1.,0.,0.));
#282=DIRECTION('',(0.,1.,0.));
#283=DIRECTION('',(1.,0.,0.));
#284=DIRECTION('',(0.,1.,0.));
#285=DIRECTION('',(1.,0.,0.));
#286=DIRECTION('',(0.,1.,0.));
#287=DIRECTION('',(1.,0.,0.));
#288=DIRECTION('',(0.,1.,0.));
#289=DIRECTION('',(1.,0.,0.));
#290=DIRECTION('',(0.,1.,0.));
#291=DIRECTION('',(1.,0.,0.));
#292=DIRECTION('',(0.,1.,0.));
#293=DIRECTION('',(1.,0.,0.));
#294=DIRECTION('',(0.,1.,0.));
#295=DIRECTION('',(1.,0.,0.));
#296=DIRECTION('',(0.,1.,0.));
#297=DIRECTION('',(1.,0.,0.));
#298=DIRECTION('',(0.,1.,0.));
#299=DIRECTION('',(1.,0.,0.));
#300=DIRECTION('',(0.,1.,0.));
#301=DIRECTION('',(1.,0.,0.));
#302=DIRECTION('',(0.,1.,0.));
#303=DIRECTION('',(1.,0.,0.));
#304=CARTESIAN_POINT('',(0.,0.,0.));
#305=CARTESIAN_POINT('',(0.1479,0.006,-9.64409354328541E-19));
#306=CARTESIAN_POINT('',(0.1479,0.006,-9.64409354328541E-19));
#307=CARTESIAN_POINT('',(0.13215,0.006,-9.64409354328541E-19));
#308=CARTESIAN_POINT('',(0.1479,0.,-9.64409354328541E-19));
#309=CARTESIAN_POINT('',(0.13215,0.,-9.64409354328541E-19));
#310=CARTESIAN_POINT('',(0.1479,0.006,-1.92881870865708E-18));
#311=CARTESIAN_POINT('',(0.1479,0.006,-1.92881870865708E-18));
#312=CARTESIAN_POINT('',(0.1164,0.006,-1.92881870865708E-18));
#313=CARTESIAN_POINT('',(0.1479,0.,-1.92881870865708E-18));
#314=CARTESIAN_POINT('',(0.1164,0.,-1.92881870865708E-18));
#315=CARTESIAN_POINT('',(0.1479,0.006,0.));
#316=CARTESIAN_POINT('',(0.130222330470336,0.006,0.0176776695296637));
#317=CARTESIAN_POINT('',(0.132722330470336,0.006,0.0176776695296637));
#318=CARTESIAN_POINT('',(0.165577669529663,0.006,0.0176776695296637));
#319=CARTESIAN_POINT('',(0.168077669529663,0.006,0.0176776695296637));
#320=CARTESIAN_POINT('',(0.130222330470336,0.006,-0.0176776695296637));
#321=CARTESIAN_POINT('',(0.132722330470336,0.006,-0.0176776695296637));
#322=CARTESIAN_POINT('',(0.165577669529663,0.006,-0.0176776695296637));
#323=CARTESIAN_POINT('',(0.168077669529663,0.006,-0.0176776695296637));
#324=CARTESIAN_POINT('',(0.1479,0.006,0.025));
#325=CARTESIAN_POINT('',(0.1449,0.006,0.025));
#326=CARTESIAN_POINT('',(0.1479,0.006,0.025));
#327=CARTESIAN_POINT('',(0.1479,-0.0065,0.025));
#328=CARTESIAN_POINT('',(0.1449,-0.0065,0.025));
#329=CARTESIAN_POINT('',(0.1479,0.,0.));
#330=CARTESIAN_POINT('',(0.1479,0.,-2.4492935982947E-18));
#331=CARTESIAN_POINT('',(0.1879,0.,-2.4492935982947E-18));
#332=CARTESIAN_POINT('',(0.1479,-0.04,0.));
#333=CARTESIAN_POINT('',(0.1479,-0.04,-2.4492935982947E-18));
#334=CARTESIAN_POINT('',(0.1879,-0.04,-2.4492935982947E-18));
#335=CARTESIAN_POINT('',(0.1479,-0.04,-2.4492935982947E-18));
#336=CARTESIAN_POINT('',(0.1479,0.,0.));
#337=CARTESIAN_POINT('',(0.1479,-0.0065,0.));
#338=CARTESIAN_POINT('',(0.165577669529663,-0.0065,-0.0176776695296637));
#339=CARTESIAN_POINT('',(0.165577669529663,-0.0065,-0.0176776695296637));
#340=CARTESIAN_POINT('',(0.168077669529663,-0.0065,-0.0176776695296637));
#341=CARTESIAN_POINT('',(0.1479,-0.0065,0.));
#342=CARTESIAN_POINT('',(0.130222330470336,-0.0065,-0.0176776695296637));
#343=CARTESIAN_POINT('',(0.130222330470336,-0.0065,-0.0176776695296637));
#344=CARTESIAN_POINT('',(0.132722330470336,-0.0065,-0.0176776695296637));
#345=CARTESIAN_POINT('',(0.1479,-0.0065,0.));
#346=CARTESIAN_POINT('',(0.165577669529663,-0.0065,0.0176776695296637));
#347=CARTESIAN_POINT('',(0.165577669529663,-0.0065,0.0176776695296637));
#348=CARTESIAN_POINT('',(0.168077669529663,-0.0065,0.0176776695296637));
#349=CARTESIAN_POINT('',(0.1479,-0.0065,0.));
#350=CARTESIAN_POINT('',(0.130222330470336,-0.0065,0.0176776695296637));
#351=CARTESIAN_POINT('',(0.130222330470336,-0.0065,0.0176776695296637));
#352=CARTESIAN_POINT('',(0.132722330470336,-0.0065,0.0176776695296637));
#353=CARTESIAN_POINT('',(0.1479,-0.0065,0.));
#354=MECHANICAL_DESIGN_GEOMETRIC_PRESENTATION_REPRESENTATION('',(#191),
#355);
#355=(
GEOMETRIC_REPRESENTATION_CONTEXT(3)
GLOBAL_UNCERTAINTY_ASSIGNED_CONTEXT((#356))
GLOBAL_UNIT_ASSIGNED_CONTEXT((#359,#358,#357))
REPRESENTATION_CONTEXT('Robot_glava','TOP_LEVEL_ASSEMBLY_PART')
);
#356=UNCERTAINTY_MEASURE_WITH_UNIT(LENGTH_MEASURE(1.E-8),#359,
'DISTANCE_ACCURACY_VALUE','Maximum Tolerance applied to model');
#357=(
NAMED_UNIT(*)
SI_UNIT($,.STERADIAN.)
SOLID_ANGLE_UNIT()
);
#358=(
NAMED_UNIT(*)
PLANE_ANGLE_UNIT()
SI_UNIT($,.RADIAN.)
);
#359=(
LENGTH_UNIT()
NAMED_UNIT(*)
SI_UNIT($,.METRE.)
);
#360=PRODUCT_DEFINITION_SHAPE('','',#361);
#361=PRODUCT_DEFINITION('','',#363,#362);
#362=PRODUCT_DEFINITION_CONTEXT('',#369,'design');
#363=PRODUCT_DEFINITION_FORMATION_WITH_SPECIFIED_SOURCE('','',#365,
 .NOT_KNOWN.);
#364=PRODUCT_RELATED_PRODUCT_CATEGORY('','',(#365));
#365=PRODUCT('Robot_glava','Robot_glava','Robot_glava',(#367));
#366=PRODUCT_CATEGORY('','');
#367=PRODUCT_CONTEXT('',#369,'mechanical');
#368=APPLICATION_PROTOCOL_DEFINITION('international standard',
'ap242_managed_model_based_3d_engineering',2020,#369);
#369=APPLICATION_CONTEXT('managed model based 3d engineering');
ENDSEC;
END-ISO-10303-21;
